<?xml version="1.0" encoding="utf-8"?>
<!-- Generator: Adobe Illustrator 27.0.0, SVG Export Plug-In . SVG Version: 6.00 Build 0)  -->
<svg version="1.1" id="Layer_1" xmlns="http://www.w3.org/2000/svg" xmlns:xlink="http://www.w3.org/1999/xlink" x="0px" y="0px"
	 viewBox="0 0 64 80" style="enable-background:new 0 0 64 80;" xml:space="preserve">
<g>
	<path d="M47,57c0.6,0,1-0.4,1-1V13c0-3.3-2.7-6-6-6H32c-0.1,0-0.3,0-0.4,0.1s-0.2,0.1-0.3,0.2l-6.9,6.9l0,0
		c-0.5,0.5-0.8,1.2-0.8,1.9s0.3,1.4,0.8,1.9l0,0c1,1,2.3,1.5,3.5,1.5c1.3,0,2.6-0.5,3.5-1.5l2.4-2.4c0.4-0.4,0.9-0.6,1.4-0.6H36l0,0
		c0.8,0,1.6,0.3,2.1,0.9c0.6,0.6,0.9,1.3,0.9,2.1v3H29c-0.3,0-0.5,0.1-0.7,0.3l-3.1,3.1c-0.6,0.6-1,1.4-1.1,2.2
		C23,25.6,21.6,25,20,25h-1c-1.7,0-3,1.3-3,3v14.1c0,0.1,0,0.3,0.1,0.4c0,0.1,0.1,0.1,0.1,0.2c0,0,0,0.1,0.1,0.1l13.9,13.9
		c0.2,0.2,0.5,0.3,0.7,0.3s0.5-0.1,0.7-0.3c0.4-0.4,0.4-1,0-1.4L18,41.7v-8.2h3c0.3,0,0.5-0.2,0.5-0.5v-2c0-1.4-1.1-2.5-2.5-2.5h-1
		V28c0-0.6,0.4-1,1-1h1c2.2,0,4,1.8,4,4v6.4c0,1.3,0.5,2.6,1.5,3.5c1.9,1.9,5.1,1.9,7.1,0l6.4-6.3c0.9-0.9,1.6-2.1,1.9-3.3v-0.1
		c0.1-0.5,0.2-1,0.2-1.5V18c0-1.3-0.5-2.6-1.5-3.5c-1-1-2.3-1.5-3.6-1.5l0,0h-0.8c-1.1,0-2.1,0.4-2.8,1.2l0,0l0,0L30,16.6
		c-0.7,0.7-1.8,1-2.7,0.8l1.6-1.6c0.9-0.9,1-2.4,0.1-3.4L32.4,9H42c2.2,0,4,1.8,4,4v43C46,56.6,46.4,57,47,57z M19,29.5
		c0.8,0,1.5,0.7,1.5,1.5v1.5H18v-3H19z M26,27.2c0-0.5,0.2-1,0.6-1.4l2.8-2.8H39v5.6l-0.4-0.4c-0.7-0.7-1.8-1.2-2.8-1.2H30
		c-0.6,0-1,0.4-1,1v3c0,1.1-0.9,2-2,2h-1V27.2z M31.1,39.5c-1.2,1.2-3.1,1.2-4.3,0c-0.6-0.6-0.9-1.3-0.9-2.1V35h1c2.2,0,4-1.8,4-4
		v-2h4.8c0.5,0,1,0.2,1.4,0.6l1.6,1.6c-0.2,0.8-0.6,1.5-1.2,2L31.1,39.5z M25.8,16.5L25.8,16.5c-0.1-0.1-0.2-0.3-0.2-0.5
		c0-0.2,0.1-0.3,0.2-0.5l0,0l2.5-2.5c0.5,0.6,0.4,1.4-0.1,2l-1.9,1.9C26.2,16.8,26,16.7,25.8,16.5z"/>
</g>
</svg>
