<?xml version="1.0" encoding="utf-8"?>
<!-- Generator: Adobe Illustrator 27.0.0, SVG Export Plug-In . SVG Version: 6.00 Build 0)  -->
<svg version="1.1" id="Layer_1" xmlns="http://www.w3.org/2000/svg" xmlns:xlink="http://www.w3.org/1999/xlink" x="0px" y="0px"
	 viewBox="0 0 64 80" style="enable-background:new 0 0 64 80;" xml:space="preserve">
<path d="M56.3,36.9c2.4-5.1-1.4-11.5-7-11.9c-1.9,6.6-7.5,11.6-14.4,12.7c-0.4,1.7-2.3,2.7-3.9,2.1v1.8c-0.8,2-3.8,3.1-5.7,2.1
	c-0.5-0.2-1.1,0-1.3,0.5c-0.2,0.5,0,1.1,0.5,1.3c2.1,1,4.8,0.6,6.6-0.8c0,0,0,9.4,0,9.8C30.6,62,19.8,61.7,20.3,54
	c0.2-1.5,1-3,2.3-3.9c0.4-0.3,0.6-0.9,0.2-1.4c-0.9-1.1-2.1,0.3-2.8,1.1c-0.7-1.2-5.3-3.5-5.6-1.1c0,0.6,0.5,1,1,1
	c1.3,0,2.7,0.8,3.4,2c-0.9,2-0.8,4.4,0.2,6.4c-3.6,0.4-6.9-2.4-7.1-6c0-0.5-0.4-0.9-0.9-0.9C7.7,50.8,5,47.9,5,44.5
	c0-2.8,1.8-5.3,4.4-6.2c0.3-0.1,0.5-0.3,0.6-0.6c0.1-0.3,0.1-0.6-0.1-0.9c-0.6-1-1-2.2-1-3.4c0-3.5,2.9-6.5,6.4-6.5
	c-0.3-0.6-0.5-1.3-0.7-2c-5.6,0.4-9.4,6.7-7,11.9c-7.3,3.7-5.7,14.7,2.4,16c0.7,4.6,5.4,8,10.1,6.9c3.3,3.5,9.6,2.6,11.8-1.6
	c2.2,4.2,8.5,5.1,11.8,1.6c4.7,1,9.4-2.3,10.1-6.9C62,51.6,63.6,40.6,56.3,36.9L56.3,36.9z M39.6,45.5c-2.1,1-4.8,0.6-6.6-0.8v-3.1
	c0.8,2,3.8,3.1,5.7,2.1C39.9,43.2,40.7,44.9,39.6,45.5L39.6,45.5z M48.5,49.8c-1.3,0-2.7,0.8-3.3,1.9c0.9,2,0.8,4.3-0.1,6.2
	c-0.8,0-1.7-0.6-2.3,0.1c1.9-2.4,1.3-6.1-1.2-7.8c-0.4-0.3-0.5-0.9-0.2-1.4c0.9-1.1,2.1,0.3,2.7,1c0.7-1.2,5.2-3.4,5.4-1.1
	C49.5,49.4,49,49.9,48.5,49.8L48.5,49.8z M52.4,41.1c-1.3,0-2.6,1.3-2.6,2.7c0,0.5-0.4,1-1,1c-1.4-0.1-1-1.8-0.6-2.7
	c-1.6-0.6-2.8-2-3-3.8c-0.1-0.5,0.3-1,0.9-1.1c0.5-0.1,1,0.3,1.1,0.9c0.1,1.1,1.1,2.1,2.2,2.2c0.8-0.8,3.7-2.2,4-0.2
	C53.4,40.6,52.9,41.1,52.4,41.1z"/>
<path d="M18.9,38.3c0.1-1.3-1.8-1.5-2-0.2c-0.1,1.1-1.1,2.1-2.3,2.2c-0.9-0.8-3.7-2.2-4-0.2c0,0.6,0.4,1,1,1c1.4,0,2.6,1.3,2.6,2.7
	c0,0.6,0.4,1,1,1c1.4-0.1,1-1.8,0.6-2.7C17.5,41.5,18.7,40,18.9,38.3z"/>
<path d="M32,10c-5.5,0-10,4.5-10,10s4.5,10,10,10C45.3,29.5,45.3,10.6,32,10z M32,12c4.4,0,8,3.6,8,8s-3.6,8-8,8
	C21.4,27.6,21.4,12.5,32,12z"/>
<path d="M36,20c-0.2-5.3-7.8-5.3-8,0C28.2,25.3,35.8,25.3,36,20z"/>
<path d="M32,38c0.6,0,1-0.4,1-1V36C41,35.5,47.4,29,47.9,21H49c0.6,0,1-0.4,1-1s-0.4-1-1-1h-1.1C47.4,11,41,4.6,33,4.1V3
	c0-0.6-0.4-1-1-1s-1,0.4-1,1v1.1C23,4.6,16.6,11,16.1,19H15c-0.6,0-1,0.4-1,1s0.4,1,1,1h1.1C16.6,29,23,35.5,31,36V37
	C31,37.6,31.4,38,32,38z M18.1,21H20c0.6,0,1-0.4,1-1s-0.4-1-1-1h-1.9c0.5-6.9,6-12.5,12.9-12.9V8c0,0.6,0.4,1,1,1s1-0.4,1-1V6.1
	c6.9,0.5,12.5,6,12.9,12.9H44c-0.6,0-1,0.4-1,1s0.4,1,1,1h1.9c-0.5,6.9-6,12.5-12.9,12.9V32c0-0.6-0.4-1-1-1s-1,0.4-1,1V34
	C24.1,33.5,18.5,27.9,18.1,21z"/>
<path d="M15,8c0,0,0-3,0-3c0-0.6,0.4-1,1-1h3c1.3,0,1.3-2,0-2h-3c-1.7,0-3,1.3-3,3v3C13,9.3,15,9.3,15,8z"/>
<path d="M51,8V5c0-1.7-1.3-3-3-3h-3c-1.3,0-1.3,2,0,2c0,0,3,0,3,0c0.6,0,1,0.4,1,1v3C49,9.3,51,9.3,51,8z"/>
</svg>
