<?xml version="1.0" encoding="utf-8"?>
<!-- Generator: Adobe Illustrator 27.0.0, SVG Export Plug-In . SVG Version: 6.00 Build 0)  -->
<svg version="1.1" id="Layer_1" xmlns="http://www.w3.org/2000/svg" xmlns:xlink="http://www.w3.org/1999/xlink" x="0px" y="0px"
	 viewBox="0 0 98 122.5" style="enable-background:new 0 0 98 122.5;" xml:space="preserve">
<g>
	<path d="M85.4,102.5H78H20h-7.4c-2,0-3.6,1.6-3.6,3.6s1.6,3.6,3.6,3.6h72.8c2,0,3.6-1.6,3.6-3.6S87.5,102.5,85.4,102.5z"/>
	<path d="M12.6,20H20H78h7.4c2,0,3.6-1.6,3.6-3.6s-1.6-3.6-3.6-3.6H12.6c-2,0-3.6,1.6-3.6,3.6S10.5,20,12.6,20z"/>
	<path d="M78,81.7c0-1.1-0.5-2.2-1.3-2.9L53.6,60.6l23.1-18.1c0.8-0.7,1.3-1.7,1.3-2.9V27.2H20v12.4c0,1.1,0.5,2.2,1.3,2.9l23,18.1
		l-23,18.1c-0.8,0.7-1.3,1.7-1.3,2.9v13.6H78V81.7z"/>
</g>
</svg>
