<?xml version="1.0" encoding="utf-8"?>
<!-- Generator: Adobe Illustrator 27.0.0, SVG Export Plug-In . SVG Version: 6.00 Build 0)  -->
<svg version="1.1" xmlns="http://www.w3.org/2000/svg" xmlns:xlink="http://www.w3.org/1999/xlink" x="0px" y="0px"
	 viewBox="0 0 100 125" style="enable-background:new 0 0 100 125;" xml:space="preserve">
<g id="Layer_2">
</g>
<g id="Layer_1">
	<g>
		<path d="M5273.1,2400.1v-2c0-2.8-5-4-9.7-4s-9.7,1.3-9.7,4v2c0,1.8,0.7,3.6,2,4.9l5,4.9c0.3,0.3,0.4,0.6,0.4,1v6.4
			c0,0.4,0.2,0.7,0.6,0.8l2.9,0.9c0.5,0.1,1-0.2,1-0.8v-7.2c0-0.4,0.2-0.7,0.4-1l5.1-5C5272.4,2403.7,5273.1,2401.9,5273.1,2400.1z
			 M5263.4,2400c-4.8,0-7.4-1.3-7.5-1.8l0,0c0.1-0.5,2.7-1.8,7.5-1.8s7.3,1.3,7.5,1.8C5270.7,2398.7,5268.2,2400,5263.4,2400z"/>
		<path d="M5268.4,2410.3c-0.6,0-1,0.4-1,1s0.4,1,1,1h4.3c0.6,0,1-0.4,1-1s-0.4-1-1-1H5268.4z"/>
		<path d="M5272.7,2413.7h-4.3c-0.6,0-1,0.4-1,1s0.4,1,1,1h4.3c0.6,0,1-0.4,1-1C5273.7,2414.1,5273.3,2413.7,5272.7,2413.7z"/>
		<path d="M5272.7,2417h-4.3c-0.6,0-1,0.4-1,1s0.4,1,1,1h4.3c0.6,0,1-0.4,1-1C5273.7,2417.5,5273.3,2417,5272.7,2417z"/>
	</g>
	<g>
		<path d="M62.3,55.1c-0.5-0.5-1.1-0.7-1.7-0.7c-0.6,0-1.2,0.3-1.7,0.7c-0.9,0.9-0.9,2.4,0,3.3l3.2,3.2H32.8l3.2-3.2
			c0.9-0.9,0.9-2.4,0-3.3c-0.9-0.9-2.4-0.9-3.3,0l-7.2,7.2c-0.9,0.9-0.9,2.4,0,3.3l7.2,7.2c0.5,0.5,1.1,0.7,1.7,0.7s1.2-0.3,1.7-0.7
			c0.9-0.9,0.9-2.4,0-3.3l-3.2-3.2h29.2l-3.2,3.2c-0.9,0.9-0.9,2.4,0,3.3c0.9,0.9,2.4,0.9,3.3,0l7.2-7.2c0.9-0.9,0.9-2.4,0-3.3
			L62.3,55.1z"/>
		<path d="M19.9,54.6h-2.7c-0.6,0-1,0.4-1,1v16.5c0,0.6,0.4,1,1,1h2.7c0.6,0,1-0.4,1-1V55.6C20.9,55.1,20.4,54.6,19.9,54.6z"/>
		<path d="M77.8,54.6H75c-0.6,0-1,0.4-1,1v16.5c0,0.6,0.4,1,1,1h2.7c0.6,0,1-0.4,1-1V55.6C78.8,55.1,78.3,54.6,77.8,54.6z"/>
		<path d="M86.2,37.7H8.8c-0.6,0-1,0.4-1,1v2.7c0,0.6,0.4,1,1,1h7.4V48c0,0.6,0.4,1,1,1h2.8c0.6,0,1-0.4,1-1v-5.7h6.9V48
			c0,0.6,0.4,1,1,1h2.7c0.6,0,1-0.4,1-1v-5.7h6.9V48c0,0.6,0.4,1,1,1H43c0.6,0,1-0.4,1-1v-5.7h6.9V48c0,0.6,0.4,1,1,1h2.7
			c0.6,0,1-0.4,1-1v-5.7h7V48c0,0.6,0.4,1,1,1h2.7c0.6,0,1-0.4,1-1v-5.7H74V48c0,0.6,0.4,1,1,1h2.7c0.6,0,1-0.4,1-1v-5.7h7.4
			c0.6,0,1-0.4,1-1v-2.7C87.2,38.2,86.7,37.7,86.2,37.7z"/>
	</g>
</g>
</svg>
