<?xml version="1.0" encoding="utf-8"?>
<!-- Generator: Adobe Illustrator 27.0.0, SVG Export Plug-In . SVG Version: 6.00 Build 0)  -->
<svg version="1.1" id="Layer_1" xmlns="http://www.w3.org/2000/svg" xmlns:xlink="http://www.w3.org/1999/xlink" x="0px" y="0px"
	 viewBox="0 0 64 80" style="enable-background:new 0 0 64 80;" xml:space="preserve">
<path d="M36.7,45.3c-3.3,2.6-6.8,2.6-10.1,0c-0.7-0.5-1.5-0.8-2.3-0.8c-2.1,0.2-18.1,1.5-19.8,1.7c21.8,15.3,33,15.4,54.9,0
	c-1.7-0.1-18.4-1.5-20.5-1.7C38.1,44.5,37.3,44.8,36.7,45.3z"/>
<path d="M5.5,44.1l4.1-0.3l14.6-1.2c2.7-0.2,5.1,3,7.4,2.8c2.8,0,4.5-3,7.4-2.8c2.9,0.2,16.9,1.4,19.5,1.6
	c-7.8-4.5-16-15.9-25.3-9.4c-0.7,0.5-1.7,0.5-2.4,0C21.5,28.2,13.3,39.6,5.5,44.1z"/>
<path d="M20,27.1l4.3,0.6c0.6,0.1,1.1-0.3,1.1-0.9c0-0.1,0-0.2,0-0.3l-0.6-4.3c2.1-4.2,1.3-9.4-2-12.8C12.1-0.3-2.6,14.4,7.3,25.1
	C10.6,28.5,15.8,29.3,20,27.1z M10.9,14.9c0-1.9,1.6-3.5,3.5-3.5h1.2c1.9,0,3.5,1.6,3.5,3.5v7.5c0,0.6-0.5,1-1,1c-0.5,0-1-0.4-1-1
	v-4h-4.2v4c0,0.6-0.5,1-1,1c-0.5,0-1-0.4-1-1L10.9,14.9z"/>
<path d="M17.2,14.9c0-0.8-0.7-1.5-1.5-1.5c0,0,0,0,0,0h-1.2c-0.8,0-1.5,0.7-1.5,1.5c0,0,0,0,0,0v1.5h4.2L17.2,14.9z"/>
<path d="M38.6,26.6c-0.1,0.5,0.3,1.1,0.9,1.1c0.1,0,0.2,0,0.3,0l4.3-0.6c11,5.6,21.5-8.8,12.8-17.6c-9-8.7-23,1.6-17.6,12.8
	L38.6,26.6z M54,15.9c0.8,0,1.5,0.7,1.5,1.5c0,0.8-0.7,1.5-1.5,1.5c-0.8,0-1.5-0.7-1.5-1.5C52.5,16.5,53.2,15.9,54,15.9z M49,15.9
	c0.8,0,1.5,0.7,1.5,1.5c0,0.8-0.7,1.5-1.5,1.5c-0.8,0-1.5-0.7-1.5-1.5C47.5,16.5,48.2,15.9,49,15.9z M44,15.9c0.8,0,1.5,0.7,1.5,1.5
	c0,0.8-0.7,1.5-1.5,1.5c-0.8,0-1.5-0.7-1.5-1.5C42.5,16.5,43.2,15.9,44,15.9z"/>
</svg>
