<?xml version="1.0" encoding="utf-8"?>
<!-- Generator: Adobe Illustrator 27.0.0, SVG Export Plug-In . SVG Version: 6.00 Build 0)  -->
<svg version="1.1" id="Layer_1" xmlns="http://www.w3.org/2000/svg" xmlns:xlink="http://www.w3.org/1999/xlink" x="0px" y="0px"
	 viewBox="0 0 100 125" style="enable-background:new 0 0 100 125;" xml:space="preserve">
<g>
	<path d="M5,97c-1.1,0-2-0.9-2-2c0-0.5,0.2-1,0.6-1.4l13.2-13.2c0.8-0.8,2-0.8,2.8,0c0.8,0.8,0.8,2,0,2.8L6.4,96.4
		C6,96.8,5.5,97,5,97z"/>
	<path d="M18.2,20.2c-0.5,0-1-0.2-1.4-0.6L3.6,6.4C2.9,5.6,3,4.3,3.8,3.6c0.7-0.6,1.9-0.6,2.6,0l13.2,13.2c0.8,0.8,0.8,2,0,2.8
		C19.2,20,18.7,20.2,18.2,20.2z"/>
	<path d="M89,74.5H11c-1.1,0-2-0.9-2-2c0-0.4,0.1-0.7,0.3-1L48.3,4C48.8,3,50,2.7,51,3.3c0.3,0.2,0.6,0.4,0.7,0.7l39,67.5
		c0.6,1,0.2,2.2-0.7,2.7C89.7,74.4,89.4,74.5,89,74.5z M14.5,70.5h71L50,9L14.5,70.5z"/>
	<path d="M50,97c-0.7,0-1.4-0.4-1.7-1l-39-67.5c-0.6-1-0.2-2.2,0.7-2.7c0.3-0.2,0.6-0.3,1-0.3h78c1.1,0,2,0.9,2,2
		c0,0.4-0.1,0.7-0.3,1L51.7,96C51.4,96.6,50.7,97,50,97z M14.5,29.5L50,91l35.5-61.5H14.5z"/>
	<path d="M50,97C24,97,3,76,3,50S24,3,50,3s47,21,47,47S76,97,50,97z M50,7C26.3,7,7,26.3,7,50s19.3,43,43,43s43-19.3,43-43
		S73.7,7,50,7z"/>
	<path d="M50,67.3c-9.6,0-17.4-7.8-17.4-17.3S40.4,32.6,50,32.6S67.3,40.4,67.3,50v0C67.3,59.6,59.6,67.3,50,67.3z M50,36.6
		c-7.4,0-13.4,6-13.4,13.3s6,13.4,13.4,13.4s13.3-6,13.3-13.3C63.3,42.6,57.4,36.7,50,36.6z"/>
	<path d="M50,59.3c-5.2,0-9.4-4.2-9.4-9.3s4.2-9.4,9.3-9.4s9.4,4.2,9.4,9.3v0C59.3,55.2,55.2,59.3,50,59.3z M50,44.6
		c-3,0-5.4,2.4-5.4,5.3s2.4,5.4,5.3,5.4s5.4-2.4,5.4-5.3C55.3,47,53,44.7,50,44.6z"/>
	<path d="M81.8,20.2c-1.1,0-2-0.9-2-2c0-0.5,0.2-1,0.6-1.4L93.6,3.6c0.8-0.7,2.1-0.6,2.8,0.2c0.6,0.7,0.6,1.9,0,2.6L83.2,19.6
		C82.9,20,82.3,20.2,81.8,20.2z"/>
	<path d="M95,97c-0.5,0-1-0.2-1.4-0.6L80.4,83.2c-0.8-0.7-0.9-2-0.2-2.8s2-0.9,2.8-0.2c0.1,0.1,0.2,0.1,0.2,0.2l13.2,13.2
		c0.8,0.8,0.8,2,0,2.8C96,96.8,95.5,97,95,97z"/>
</g>
</svg>
