<?xml version="1.0" encoding="UTF-8"?>
<svg id="Layer_1" data-name="Layer 1" xmlns="http://www.w3.org/2000/svg" viewBox="0 0 1145.93 1439.63">
  <defs>
    <style>
      .cls-1 {
        fill: #00da28;
        stroke: #00da28;
        stroke-miterlimit: 10;
        stroke-width: 3px;
      }
    </style>
  </defs>
  <path d="M472.47,1.06c-2,.7-5.1,1.8-6.9,2.3-2.1,.7-4.5,2.7-6.7,5.7-1.8,2.6-6.5,7.5-10.3,10.9s-7.7,7.9-8.6,10c-1,2.1-2.8,6-4.1,8.8-3,6.3-5,17.7-4.1,23.6,.4,2.4,.6,6.3,.6,8.6-.1,3.2,.3,4.3,1.4,4.3,.8,0,1.8,.9,2.1,2s1.3,2,2,2c1.8,0,3.5,3.1,3.5,6.4,0,1.4-1.9,5.6-4.1,9.3-2.3,3.8-4.4,7.2-4.7,7.7s.5,.2,1.9-.7c2.9-2.1,5.8-2.2,6.5-.3,.8,2.2-9.7,22.5-16.1,31.1-5.4,7.3-6.4,10.1-2.7,7.9,.9-.6,4.3-4.5,7.5-8.7,5.8-7.7,8.4-9.7,7.2-5.5-.9,3.1-5.4,15.7-6.7,18.8-2.6,6-9.5,27-9,27.4,.2,.3,1.8-.8,3.4-2.4,3-3,6.5-4.1,5.5-1.8-.3,.7-1.9,4.9-3.6,9.3-1.8,4.4-4,9.8-5.1,12-1.8,3.8-7,17.3-7,18.1,0,.3,1.2,.9,2.6,1.4,2.3,.9,2.5,1.4,1.9,4.3-.4,1.7-2.5,7.7-4.6,13.2-4.5,11.5-4.7,13.5-1.9,13.5,1.1,0,2,.7,2,1.4,0,2.8-7.1,13.7-13,20-6.2,6.5-6.5,8.6-1.3,8.6,3.9,0,2.7,3-3.7,8.7-6.7,6.1-7.5,8.3-3,8.3,2.3,0,8.4,3.1,10.8,5.5,.2,.2-1.2,2-3.1,3.9-6.6,6.5-23.7,29.7-23.7,32,0,1.5-13.2,27.1-15.9,30.8-3.8,5.2-4,7.1-.6,6.2,3.7-.9,4.1,1.7,1.1,6.3-5.3,7.9-16.3,21.8-23.1,29.1-3,3.3-5.5,6.3-5.5,6.7s1.6,.4,3.5,.1c7.1-1.4,6.7,.7-2.6,11.9-5.8,7.1-17.5,18.2-30.4,29.1-16.3,13.6-22.4,19.6-23.9,23.5-2.1,5.2-2,7.1,.4,10.2,2.8,3.5,2.6,4.7-2.4,12.4-10.4,16.1-17.6,35.1-17.6,46.3,0,3.9,.5,7.3,1.4,8.5,.8,1.3,1.5,6.4,1.9,14,.4,6.6,1.3,14.4,2.1,17.4,2.2,7.6,7.8,15.8,11.6,16.6,2.2,.5,4,2.3,7.3,7.3,2.5,3.7,5.8,7.9,7.3,9.3,4.6,4.1,12.7,9.6,15.4,10.4,1.4,.4,4,2.1,5.9,3.8,4.7,4,12.8,7.7,17.2,7.7s5.1,.6,3.4,4.1c-.8,1.5-1.5,4.4-1.5,6.3,0,9.6,4.8,30.3,7.5,32.6,.7,.6,1.6,3.2,1.9,5.8,2,14.1,11.5,44.4,17.7,56.2,3.8,7.5,3.9,7.7,3.1,15l-.7,7.5-4.8-.1c-5,0-6,.9-2.7,2.6,4.9,2.6-.5,8-8.1,8-2.7,0-4.9,.4-4.9,1,0,.5,.8,1,1.9,1,1,0,2.4,.7,3.1,1.5,1.7,2-.1,4.1-4.2,4.9-1.7,.3-3.7,1.1-4.5,1.7-2.8,2.4-1.1,2.7,4.2,.9,5.2-1.8,9-1.8,8.3,0-.2,.5-3.1,2.9-6.4,5.3-6.1,4.4-18,18-21.1,24.1-.9,1.7-1.6,4.5-1.4,6.3,.1,2.4-1.2,5-5.8,11.5-6.1,8.4-12.1,19.5-12.1,22.2,0,2,1.6,2.9,5.4,3,4.4,.1,4.4,2.2-.4,15.5-3.4,9.8-4.2,13.6-5.6,27.5-.9,8.8-1.4,19.5-1.1,23.6,1.2,15.5,3.1,50.6,3,54.3-.1,2.7-2.6,8.6-8.4,20-4.5,8.9-8.8,18.4-9.5,21.2-1.6,5.8-1.8,12.4-.4,14.5,.8,1.2,1.1,1.2,2.8-.3,3.9-3.6,7.3-1.5,4.8,3-2.1,3.9-7.1,20.8-11.3,37.9-.3,1.4,.4,3.1,2.1,4.9,2.9,3.1,3.5,8.9,1.5,15.8-.5,2-1.5,7.2-2,11.5-2.6,19.8-3.6,25.2-7.9,41.6-1.1,4.4-2,9-2,10.3,0,5.4-4.5,10.6-14.5,16.8-3.3,2.1-8.7,6.3-12,9.3s-7.1,6.4-8.4,7.6c-6.7,5.9-9.9,21.9-5.5,26.8,1.2,1.3,2.4,4.1,2.7,6.2,.4,2.2,1.3,4.7,2.2,5.5,1.3,1.4,1.5,1.3,1.5-.7,0-3.8,2.8-8.2,5.2-8.2,1.2,0,3.6,1.1,5.4,2.5s3.5,2.5,3.8,2.5,1-1.8,1.6-4c2.2-8.1,9.4-12.8,13-8.5,1.6,1.9,.4,4.5-4.7,10.5-3.8,4.3-4.2,6-1.4,5.3,1.1-.3,4.8,.9,8.2,2.6,7.3,3.6,8.9,3.8,8.9,1.1,0-2.9,3.6-9.7,5.8-10.9,3.5-1.9,8.6-2.3,10.7-.8q1.9,1.5,0,5.8c-1.1,2.4-4.6,7-7.9,10.2-5.1,5.1-6.2,5.7-8.7,5.2-2.8-.6-2.9-.5-2.9,3.4,0,2.3,.5,4.1,1,4.1,.6,0,1-.4,1-.8,0-.5,3-3,6.6-5.6l6.5-4.8,6.9,.6c7,.7,12.9,.2,37-3.5,14.1-2.2,18.1-3.1,29.3-7.3,7.5-2.8,10.7-4.8,15.2-9.6,1.7-1.8,6.9-5.1,11.8-7.5,18-8.9,21.8-12.6,23.7-23.4,1.2-6.5,5.7-25.9,7.8-33.1,2.7-9,7.2-18.7,15.6-33.5,3.9-7,7.6-8.8,7.6-3.6,0,1.6,.4,3.3,1,3.6,2.5,1.6,10.2-5.1,15.6-13.6,3.8-6,7.9-6.8,5.8-1.1-2.3,6.1,1.7,7.1,6.5,1.7,3.4-3.9,8.4-11.5,12.6-19.3,4.3-7.9,8-6.6,5,1.7-1.7,4.8-2,11.2-.6,13.9,.5,.9,1.4,3,2.1,4.7,1.1,2.9,1.2,2.9,2.7,1,1.3-1.7,9.9-19.4,12.2-25,.5-1.1,1.3-3.2,2-4.8,1.1-2.8,2.9-3.6,3.5-1.5,2,7.2,3.3,10.4,4.9,12.2l1.8,2.1-.5-2.5c-.2-1.4-.7-3.5-1.1-4.6-1-3.3,1.9-3.7,5.4-.9,1.6,1.4,3.9,2.5,5,2.5,1.2,0,3.6,.7,5.2,1.6,3.3,1.6,5.1,1.2,3.1-.8-1.7-1.7-1.5-3.8,.5-6,1.5-1.7,1.5-2.1,0-6-2.1-5.1-.9-7.3,2.8-5.6,4.5,2,6.1-1.1,10-20.2,2.1-10.2,4.9-17.5,6.7-17.5,1,0,1.5,2.8,1.9,11,.3,6.6,1.3,12.9,2.3,15.7,2.3,6.2,4.1,7.4,3.1,2.2-.4-2.2-.9-10.1-1.2-17.8-.4-12.9-.2-14.4,2.3-22.3,1.5-4.7,3.3-8.7,4.1-9,3.3-1.3,5.6,3.5,9.2,19,1.3,5.8,1.4,15.4,.2,19.3-.5,1.6-1.2,5.6-1.5,8.9-.5,5.9-.5,6,1.3,3.6,2.8-3.6,4.4-13.8,3.6-22.5-.6-6.7-.5-7.7,1-8.2,2.9-1.2,4.4,2.5,8.9,22.6,3.5,15.5,3.8,16.1,8.3,15.8l3.6-.3-.1,5.5c-.2,3,.2,6.1,.7,6.9,.6,.9,.6,2.4,0,3.9-.9,2.2-.7,2.4,1.3,1.9,8-1.9,10.1-2.7,11.7-4.1,3.3-3,5.1-2,5.1,2.6,0,5.8,1.9,3.7,3.3-3.8,1-4.8,1.6-5.9,3.2-5.9,1.3,0,2.3,1,2.9,3,2.4,7.8,12.5,28.8,14.2,29.3,1.7,.4,4.4-7.2,4.4-12.5,0-2.5-.5-6.3-1.1-8.4-.7-2-.9-4.5-.5-5.5,.6-1.6,.8-1.6,2.6,.1,1,.9,3.2,4.2,4.8,7.4,1.6,3.1,5,8.6,7.7,12.3,6.7,9.3,10.8,10.5,9.8,2.8-.8-5.9,2.1-5,6.7,2,5.7,8.7,12.9,14.2,15.6,12,1-.9,1.1-1.7,.3-3.2-1.2-2.3,0-4.2,2.2-3.3,1.3,.5,3.1,3.3,10.5,16.5,1.7,3,4.9,10.2,7.2,16,4.7,12.1,6,17,10.8,39.5,.9,4.4,2.7,9.7,4,11.7,2.4,3.8,12.7,10.7,19.4,12.9,4.2,1.4,8.1,4,13.6,9,2.2,2,5.2,4.4,6.5,5.3,3.4,2.1,19.2,7.6,25.4,8.7,20.6,3.5,34.6,5.2,44.6,5.3l11.7,.1,6.1,4.8c3.3,2.6,6.3,4.7,6.6,4.7s.5-1.4,.5-3c0-2.4-.4-3-2.1-3-3.2,0-11.4-7.4-14.9-13.4-1.6-3-3-5.9-3-6.5,0-2.2,4.4-3.3,8.7-2.2,4.1,1.1,4.6,1.8,8.7,11.4l1.6,3.7,6.6-3.5c3.6-1.9,7.4-3.5,8.5-3.5,2.9,0,2.3-1.7-2.1-6.7-2.2-2.5-4-5.3-4-6.2,0-3.5,3.1-5.4,6.7-4,2.4,.9,8.3,10.3,8.3,13.4,0,2,.1,1.9,1.8-.1,2.1-2.6,5.4-4.4,8.1-4.4,2.5,0,2.7-2.2,.5-4.1-.8-.7-2.2-2.5-3-4-2.9-5.6-1-10.4,3.8-9.7,3,.4,6.7,7.8,6.8,13.5,0,4-.2,4.3-2.6,4.3s-2.6,.2-2.1,3.7c.9,5.4,2.3,6.2,4,2.2,.8-1.9,2.5-5.7,3.6-8.4,3.4-7.8,2.9-14.7-1.6-21.8-3.7-5.9-16-17.2-23-21.4-12.3-7.2-13.6-9.2-17.7-27.8-.8-3.9-2.4-10.8-3.5-15.5s-2.3-11.2-2.7-14.5c-.3-3.3-1.2-8.5-1.9-11.5s-1.6-10-2-15.5c-.6-9.4-.5-10.2,1.4-11.9,1.2-1.1,2.1-3.1,2.1-4.9,0-4.8-6.4-27.6-9.5-33.7-.7-1.4-1.6-4-2-5.8-.6-3-.5-3.2,2-3.2,1.4,0,2.8,.7,3.1,1.5,.4,.8,1.3,1.5,2.1,1.5,1.2,0,1.4-1.4,1.2-8.3-.4-8.1-.6-8.7-9.3-26.4-10.1-20.8-9.7-18.4-7.7-44.8,1.8-24,1.1-62.7-1.3-70.5-1-3-2.1-6.9-2.6-8.5-.5-1.7-2-6.1-3.3-9.9-2.9-7.8-2.6-9.8,1.2-9.6,4.3,.3,4.9,.1,5.6-2,.8-2.5-5-13.7-12.2-23.7-4.3-6-5.2-7.9-5-11.2,.1-3.1-.7-5-4.3-9.7-8.5-11.4-13.4-16.5-19.7-20.7-5.3-3.4-6.1-4.3-5-5.5,1.2-1.1,2.4-1,7.6,.8,9.8,3.4,9.5,.7-.4-3-5.1-2-5.9-4.8-1.6-5.6,4.6-1,3.7-2.4-1.4-2.4s-10.5-2.3-10.5-4.7c0-.9,.8-2.5,1.7-3.6,1.7-1.8,1.7-1.9-2.2-1.6-6,.4-6.5-.2-6.5-8.7,0-6.1,.5-8.3,2.4-11.7,1.3-2.3,3.8-8,5.6-12.7s3.7-9.4,4.1-10.5c1.8-4.2,6.7-22.3,7.9-29,.7-3.9,1.9-9.2,2.6-11.9,.8-2.7,1.4-6.3,1.4-8,.1-1.7,.7-5.3,1.4-8.1l1.3-5,7.7-2.6c10-3.4,17-8.3,28.6-19.9,12.8-12.9,22.5-27.1,26.2-38.5,3-9.5,3.8-17.5,3.8-39.5s-.9-28.9-5.6-41.5c-12.4-33.5-19.9-44.4-38.3-55.2-13.8-8.2-17.1-12.2-20.2-24.7-.5-2.1-3.4-8.6-6.5-14.5-5.1-9.8-6.5-14-9.4-29.1-5-25.9-17.9-57-28.5-68.7-5.7-6.4-16.5-14.1-22.5-16.2-3.9-1.3-8-4.8-8-6.8,0-2.1,2.6-2.6,5.7-1,3.6,1.9,11.4,3.1,14.2,2.2,3.7-1.1,2.3-3.1-4.4-6.4-9.9-4.9-11.4-9.5-2.6-7.9,5,.9,10.1-.2,10.1-2.2,0-.5-2.3-3.5-5.1-6.6-15.5-17.1-16.9-24.1-17.5-83.9-.2-23.8-.8-43.3-1.5-46.5-3-15.1-7.6-26.1-16.5-39.5-7.3-10.9-9.1-14.7-12-25.6-.3-1.1,.7-2.4,2.9-3.7,2.9-1.6,4-3.6,7.6-12.6,3.9-10,4.1-11.2,4-20.4-.1-8.5-.5-10.5-3.1-16.2-1.6-3.6-3.4-7.2-3.9-8s-1.7-2.8-2.7-4.4c-2.7-4.6-9.3-11.6-12.6-13.3-3-1.6-3.8-1.5-18.6,.5-6,.9-12,3.6-16.9,7.8-3.6,3-3.9,3-19.1-.9-21.5-5.5-33-6.1-50-2.6l-10.2,2.1-8.2-3.3c-8-3.3-8.3-3.4-23.1-3.3-16.2,0-18.5,.5-29.9,6-3.8,1.9-7.7,3.4-8.7,3.4s-3.8-2-6.2-4.4c-6.6-6.5-15.4-10.3-25.1-10.8-5-.2-9.2,.1-11.5,1Zm16.6,17.3c3.3,1.2,8.3,5.8,8.3,7.5,0,.7-3.4,3.8-7.4,6.9-4.1,3.1-7.8,6.5-8.1,7.5-.3,1.1-4.4,5.4-9.1,9.6-7.3,6.7-8.4,8.1-7.9,10.2,.7,3-1.9,6.2-5.1,6.2-2.8,0-3.1-.9-3.9-14.3-.7-11.8,.2-14.2,8.8-23.3,8.8-9.5,17.2-13,24.4-10.3Zm204.5,6.5c7.9,2.6,10,6.6,10.1,18.9,.1,9.2-2.6,17.5-5.7,17.5-.7,0-4-4.2-7.3-9.3-3.4-5-8.7-12.3-11.8-16.2-3-3.8-5.4-7.6-5.3-8.4,.4-1.8,6.7-3.9,11.9-4,1.9-.1,5.6,.6,8.1,1.5Zm-103.5,14.6c-2.6,29-3,30.9-6.3,27.6-1.4-1.4-1.4-3.2-.5-16.3,1.2-15.7,2-18.5,5.3-18.5,2,0,2.1,.3,1.5,7.2Zm-33,24.4c7.1,7.4,10,12.1,8.5,13.6-1.7,1.7-3.9,.2-8.7-6-6.5-8.3-7.8-8.9-15.1-6.2-8.3,3.1-11.4,3.6-11.4,1.8,0-2.3,3.2-4.7,9.7-7.4,8.8-3.6,9.9-3.3,17,4.2Zm78.1,1.9c8.5,1.7,12.2,3.4,12.2,5.3,0,1.2-1.4,1.3-8.2,.8-4.6-.3-10-.9-12.1-1.2-3.7-.6-4.2-.3-9,4.4-9.2,9-13.1,6.5-5-3.2,6.7-8.2,9.2-8.9,22.1-6.1Zm-117.2,11c.3,.8-.4,2.7-1.6,4.2-4.7,5.9-6.3,13.9-3.9,18.6,.6,1.2,2.3,3.4,3.7,4.9,1.5,1.6,2.2,3.3,1.8,4.3-1.3,3.5-9.5-3.8-12.5-11.3-1.1-2.7-1.2-4.1-.1-7.5,2.8-9.6,10.8-18,12.6-13.2Zm33.2,3.2c3.6,2.7,4.1,4.8,1.5,6.2-1.5,.7-20.7,1.7-25,1.2-3-.3-.9-3.3,3.9-5.7,11.5-5.8,13.8-6,19.6-1.7Zm132.8,4c3.5,4.6,7.4,15,7.4,19.9,0,3.8-3,8-5.2,7.1-1.1-.4-1.9-3.1-2.8-8.8-.6-4.6-2.4-11-3.9-14.4-4.3-9.4-1.6-11.7,4.5-3.8Zm-47.1-.8c2.2,1,4.8,2.8,5.9,3.9,1.7,2,1.8,2.2,.2,2.8-2.6,1-20.9-1.9-21.3-3.3-.6-1.6,5.5-5.3,8.7-5.3,1.4,0,4.3,.9,6.5,1.9Zm25.3,1.8c6,7.8,6.7,15.1,2.2,22.9-3,5.3-8.2,9.4-11.8,9.4-3.9,0-3.7-2.3,.5-5.9,5.5-4.8,7.7-9.3,7-14.5-.5-4.2-1.8-7.9-3.9-10.7-1.4-2-.4-4.9,1.6-4.9,.8,0,2.7,1.7,4.4,3.7Zm-189.8,1.4c0,.6-1.5,3.7-3.4,6.8-5.2,8.6-10.6,20.2-10.6,22.8s-2.6,4.1-4.3,2.4c-3.5-3.5,11.1-33.1,16.4-33.1,1,0,1.9,.5,1.9,1.1Zm120.5,2.3c5.5,2.6,14.5,11.5,17.1,16.9,1.7,3.5,1.6,3.7-1.1,9.4-3,6.1-9.2,12.9-16.5,18.2-4.9,3.6-10.1,4.1-15.5,1.5-4.8-2.3-16.8-15.1-19.9-21.3l-2.7-5.5,3.8-5.5c6.4-9.3,17-15.9,25.8-16,2.2-.1,6.2,1,9,2.3Zm-125,23.5c.3,.5-1.6,3.9-4.1,7.6-2.6,3.6-6.8,11.4-9.3,17.2-4.7,10.6-6.5,13-7.7,9.8-1.7-4.4,7.3-23.2,15-31.3,4.2-4.3,5.1-4.8,6.1-3.3Zm232.6,2.3c5.8,4.9,12,25.1,12,39.6,0,8.3-.3,9.2-3.5,9.2-2.2,0-2.3-.5-3-9.6-.9-13.4-3.4-23.5-8.1-33.2-1.6-3.3-2-5.1-1.3-6,.6-.6,1.4-1.2,1.7-1.2,.4,0,1.4,.6,2.2,1.2Zm-144.3,9.7c.5,5-2.5,12.8-8.5,21.8-4.3,6.6-5.9,8.3-7.9,8.3-3.4,0-3.1-2.1,1.1-7.6,3.9-5.1,10.5-18.2,10.5-20.8s2-5.8,3.3-5.3c.7,.2,1.3,1.8,1.5,3.6Zm61.8,10.1c2.3,5.8,4.9,12.1,5.7,14,2.6,5.8,2.8,7.6,1.3,9-1.3,1-2,.7-4-1.4-1.3-1.5-2.6-3.7-2.9-4.9s-1.7-5.4-3.2-9.2c-4.8-12.2-5.7-15.4-5.1-17.1,1.4-3.7,4.1-.7,8.2,9.6Zm-149.6-8.1c0,.8-2.1,5.9-6.7,16.1-2.6,6-3,6.5-4.7,6.8-2.4,.5-2.1-3.7,.9-11,3.2-8,6.5-12.8,8.8-12.8,.9,0,1.7,.4,1.7,.9Zm7,4.6c0,.8-1.4,4.5-3.1,8.2-3.9,8.6-7.6,20.1-8.9,27.6-.5,3.1-1.2,6.3-1.7,7-.4,.6-1,3-1.3,5.2-.3,2.7-1,4-2,4-2.2,0-2.5-12.1-.6-19.9,3.4-13.4,9-26.7,13.4-31.9,1.8-2.1,4.2-2.2,4.2-.2Zm122.4,19.7c1.4,1.3,4.2,5.4,6.2,9.3,1.9,3.8,4.7,8.2,6.2,9.8,2.3,2.4,2.4,2.9,1.1,4.3-1.4,1.3-2.5,1-10.4-3.1l-8.8-4.7-12.2,.4c-11.3,.3-12.4,.5-16.3,3-4.4,2.9-10.5,3.7-11.8,1.6-.5-.7,.9-2.5,3.7-4.7,2.4-2,7.8-6.9,12.1-10.9l7.7-7.2h10c8.9,0,10.3,.2,12.5,2.2Zm-125.7,14.3c-.9,2-1.7,4.2-1.7,5,0,1.9-2.9,1.9-3.6,0-.8-2.1,1.5-8.3,3.4-9.4,2.9-1.6,3.8,.5,1.9,4.4Zm64.8,3c0,4.3-2.9,4-3.3-.3-.3-2.8,0-3.3,1.5-3,1.3,.2,1.8,1.2,1.8,3.3Zm171.9,1.9c.8,1.9,2,6.8,2.6,10.8,1.4,8.9-.2,16.3-3.5,16.3-1.7,0-2-.8-2.2-6-.1-3.3-.7-9.5-1.4-13.7-.6-4.3-.9-8.4-.5-9.3,1-2.6,3.5-1.6,5,1.9Zm-230.4-.7c-.1,1-.7,2.9-1.5,4.3-2,3.5-1.9,4,1.1,4,1.7,0,2.4,.4,2.1,1.2-.3,.7-1.2,3.3-2.2,5.8-3.8,10.3-4.8,12-6.7,12-1.2,0-1.8-.7-1.8-2.3,0-1.3,.3-2.7,.7-3.1s1.3-2.5,1.9-4.6c1.1-3.5,1-4-.7-4.5-2.3-.8-2.5-3.8-.4-5.5,.8-.7,1.5-1.9,1.5-2.7,0-2,3.2-6.2,4.8-6.3,.6,0,1.2,.8,1.2,1.7Zm152,2.2c0,4.2-1.6,6.3-3.1,4-1-1.7-1.2-6.3-.2-7.2,1.8-1.9,3.3-.5,3.3,3.2Zm67,14.6c3.3,7.5,3.5,8.6,3.4,18.5,0,11.7-2.4,20.2-5.8,20.8-1.6,.4-1.7-.1-1.2-4.5,1.8-13.8,1.8-22.6,0-28.2-1-3.1-2.1-6.1-2.5-6.6-.4-.6-1-2.7-1.4-4.8-.7-3.7-.6-3.9,1.6-3.5,1.9,.2,3.1,1.9,5.9,8.3Zm-145.2,1c2.9,4.7,4.8,6.1,6.6,4.6,.6-.4,3.1-.6,5.5-.2l4.3,.6,2,6.5c3,10.1,2.8,9.7,3.8,8,.6-.8,1-2.7,1-4.1,0-3.6,3.2-7.4,5.4-6.6,1.4,.5,1.6,1.4,1.1,3.7-.8,3.7,.7,3.9,2.9,.5,1.8-2.8,5.3-3.3,6.3-.9,.5,1.2,1.2,.9,3.9-1.7,2.3-2.2,3.9-3,5.3-2.6,1.6,.4,2.9-.5,5.3-3.6,1.8-2.3,3.7-4.5,4.3-4.9,2.1-1.6,4.5-.8,5.1,1.8l.6,2.5,2.5-2.3c2-1.9,2.7-2,4.3-1,1.1,.7,3.1,1.2,4.5,1.2,3.2,0,3.2,2-.1,6-2.1,2.4-3.2,3-5.3,2.6-2.2-.4-3.2,.3-6.7,4.7-4,5.2-7.6,6.9-9.7,4.8-1.6-1.6-2.2-1.4-5.5,1.4-2.9,2.4-3.3,2.5-7.6,1.3-4-1.1-5-1-7.5,.5-1.6,.9-3.8,1.7-4.8,1.7s-2.4,.5-3.1,1.2c-.9,.9-1.6,.8-3-.5-1-.9-2.4-1.7-3.1-1.7s-1.9-1.6-2.7-3.6c-1.5-3.6-1.6-3.6-3-1.5-.8,1.1-2.4,2.1-3.4,2.1-2.1,0-6.9-6.2-10-12.9-1.1-2.3-2.9-5.4-4-6.8-2.6-3.3-2.5-5.3,0-5.3,1.4,0,3,1.5,4.8,4.5Zm-74.3,16.7c-.3,2.4-.9,9.9-1.1,16.8-.6,12.9-1.2,15.2-3.8,13.1-1.9-1.6-2.5-8.8-1.4-19.6,1-10.7,2.3-14.5,5-14.5,1.8,0,1.9,.5,1.3,4.2Zm-27.2-1c.7,2.1-1.8,21.1-3.2,23.6-1.9,3.5-3.6,2.1-3.5-2.8q.1-4.2-1.6-2c-2,2.7-5,2.1-5-.9,0-2.4,5.6-14.9,7.8-17.4,1.8-2,4.8-2.3,5.5-.5Zm221,1c.8,1.3,2,5,2.6,8.3,1.8,8.4,2.8,10.5,5,10.5,2.6,0,3.1,1.8,3.1,12s-1.1,14-3.8,14c-3.3,0-4.9-3.2-6.1-12-.6-4.7-1.8-11.4-2.6-15-.9-3.6-1.5-7.9-1.5-9.7,0-1.7-.4-3.5-1-3.8-1.1-.7-1.4-4.8-.3-5.8,1.3-1.3,3.3-.7,4.6,1.5Zm-177.3,1.2c0,1.4-.4,2.7-.9,3s-1.1,1.9-1.3,3.6c-.4,2.7-.2,3,2.1,2.8,2.4-.3,2.6,0,2.3,3.2-.2,1.9-.4,11.5-.5,21.3-.1,15.2-.4,17.7-1.6,17.5-3.3-.7-6.5-11.2-5.6-18.4,.7-5.6,.1-6.6-2.1-3.7-1.3,1.7-1.5,1.7-2.9-.1-.8-1.1-1.5-4-1.5-6.6,0-5.2,4.9-20.1,7.5-23,2.5-2.7,4.5-2.5,4.5,.4Zm171.7,22.6c.9,3.3,1.3,8.8,1.1,13.8-.2,7-.6,8.6-2.3,9.8-3.5,2.6-4.4-.4-4.3-13.6,.1-6.4-.2-12.2-.6-12.8-1.1-1.8,.3-3.4,2.6-3,1.6,.2,2.4,1.6,3.5,5.8Zm-34.2,5.4c2.5,3.8,1.6,21.2-1.4,29.1-3.8,9.8-11.4,17.6-14.2,14.8-.6-.6,.3-3.2,2.5-6.9,5.7-9.5,7.6-16.4,7.6-27,0-5.1,.3-9.9,.6-10.8,.9-2.3,3.1-2,4.9,.8Zm19.3-1.2c1.4,1.8,3.2,11.1,3.2,16.6,0,8.5-3.7,16.9-6.2,14.4-1-1-1.2-29.8-.2-31.4,.7-1.2,2-1,3.2,.4Zm-148.2,2.3c.5,1.1,1,1.2,2.4,.3,.9-.6,2.4-.9,3.2-.5,1.9,.7,3,5.7,2.2,9.7-.5,2.5-1.1,3-3.4,3-1.6,0-3,.7-3.4,1.5-.7,2-4.2,1.9-5-.1-1-2.5-.7-11.4,.4-13.5,1.3-2.3,2.8-2.5,3.6-.4Zm19.2,15.5c.1,4.7,.5,9.6,.8,11q.6,2.5,1.9-.8c2.3-5.4,3.8-4.4,6.1,4.3,2.8,10.9,1,15.2-2.9,7.2-2.5-5-3.7-4.7-3.7,.9,0,3.7-.3,4.5-1.7,4.2-3.3-.6-5.3-9.2-5.3-22.4,0-6.6,.3-12.4,.7-12.8s1.4-.5,2.3-.4c1.2,.3,1.6,2.1,1.8,8.8Zm82.3-4.3c1,2.6,.3,10.8-1.7,21.3-1,5.4,1,2.5,3.5-5,1.3-3.5,2.5-8.6,2.8-11.2,.6-4.9,2.4-7.5,4.3-6.3,.5,.3,1,3.6,1,7.3,0,13.8-8.8,30.2-11.8,22.1-.8-1.9-.9-2-2.2-.4-.8,1-1.9,2.7-2.5,3.8-.6,1.2-1.9,2.3-2.9,2.5-3.8,.8-3.9-1.4-.6-11.5,4.5-13.9,5-15.6,5-18.7s1.6-6.6,3.1-6.6c.5,0,1.4,1.2,2,2.7Zm-64.1,8.6c0,2,1,5.7,3.6,13,1.9,5.2,1.8,8.9-.2,8.5-2.4-.5-5.1-6.4-7-15.6-1.5-7.1-1.6-8.5-.4-9.2,1.9-1.1,4,.6,4,3.3Zm13.7,4.9c.6,2,1.5,7.5,1.9,12.2,.6,8.3,.6,8.6-1.4,8.6-3.9,0-5.2-3.6-5.2-14.1,0-5.2,.3-9.9,.7-10.3,1.3-1.3,2.8,.1,4,3.6Zm26.3-.3c0,1.4-.7,5.3-1.5,8.6-1.7,7.1-1.7,7.5-.7,7.5,.4,0,1.7-2.4,3-5.3,4.4-10.2,6.7-14.2,8.5-14.5,2.8-.6,3.1,2.5,.9,9.3-3.1,9.3-7.8,16.5-10.8,16.5-1.9,0-2.4-.5-2.4-2.5,0-1.5-.5-2.3-1.2-2-3,1.1-4-1.1-3.3-6.9,.4-3.1,1.1-5.9,1.6-6.2s.9-1.8,.9-3.3,.5-3.2,1.1-3.8c1.8-1.8,3.9-.4,3.9,2.6Zm-15.1,1c1.5,2.7,2.5,15.1,1.7,19.5-.5,2.7-1.2,3.6-2.3,3.4-2.6-.5-4.1-6.6-4.2-16.1-.1-8,.1-8.7,1.9-8.7,1,0,2.4,.9,2.9,1.9Zm-120.4,28.1c.7,1.2-2.6,4.6-10.6,10.7-7.4,5.7-13.4,8.6-15.9,7.8-2.9-.9-2.5-2.2,1.8-4.9,2-1.4,7.5-5.2,12.2-8.5,8.4-5.9,11.3-7.1,12.5-5.1Zm235,13.7c5.9,5.6,14.1,11.3,16.1,11.3,.3,0-1.1-2.1-3.1-4.6-1.9-2.6-3.5-5.3-3.5-6,0-2.5,3.6-1.4,7.1,2.2,6.1,6.3,17.9,12.6,17.9,9.5,0-.6-.4-1.1-.9-1.1-1.6,0-11.1-9.8-11.1-11.4,0-2.5,2.7-1.9,6.7,1.7,8.2,7.2,15.3,11.4,15.3,9,0-.3-1.2-2.1-2.6-4-2.6-3.4-3-8.3-.7-9,.6-.2,2.7,.9,4.5,2.6,1.9,1.7,6.4,4.5,9.9,6.4s6.4,4,6.4,4.8c0,1.8-4.8,2.3-7.7,.8-1.7-.9-2.3-.9-2.6,0-.9,2.6-4.6,4.9-8.5,5.4-2.3,.3-6.4,1.1-9.2,1.7-2.7,.7-7,1.3-9.5,1.5-4.3,.2-4.5,.4-4.5,3.3,0,4-.3,4.2-6.7,5.1-3,.4-6.5,1.5-7.8,2.4-5.6,3.9-14.9,.2-26.5-10.4-4-3.7-6-7.9-3.7-7.9,.5,0,5.3,2.9,10.8,6.5,9.9,6.6,13.9,8.4,15.2,7,.4-.4-.3-1.4-1.5-2.2-2.9-2-3.1-5.3-.3-5.3,1.2,0,3.3,.6,4.8,1.4,1.5,.7,3.9,1.6,5.5,2,4.9,1.2,3.1-2.3-5.8-10.8-9.4-9-13.5-14.1-13.5-16.8,0-3.1,1.9-2,9.5,4.9Zm-229.5-3c0,1-2.3,3.3-5.3,5.3-6.9,4.6-4.4,4.9,6.9,1,11.1-3.9,13.4-4.5,13.4-3.3,0,2.8-10.9,9.3-19.5,11.6-4.9,1.3-16.7,1.7-22.7,.8-3.1-.4,6-6.8,20.7-14.5,5.9-3.1,6.5-3.2,6.5-.9Zm32.4,5.2c.3,.4-2.5,3.7-6.2,7.3-11.9,11.5-31.2,19.7-31.2,13.4,0-.9,3-3,7.3-5,3.9-1.9,11.5-6.3,16.7-9.9,9.2-6.3,12.3-7.6,13.4-5.8Zm15.6,7.7c0,2.1-11.5,14-16.9,17.5-4.6,3-9.1,3.8-9.1,1.7,0-1.1,11.9-12.6,18.8-18.1,3.9-3,7.2-3.5,7.2-1.1Zm92.8,3.9c5.5,2.3,15.7,13.3,20,21.5,3,5.9,3.2,7,3.2,16.4,0,10.9,.3,12,3.7,13,2.9,.9,3.7,3.7,3.5,12-.1,6.7-1.2,9.6-3.7,9.6-.7,0-1.8,1.4-2.5,3-.7,1.8-2.2,3.3-3.6,3.6-1.3,.3-2.4,1.2-2.4,2,0,.7-1.7,4.9-3.7,9.1-5.6,11.9-7.3,26.9-3.8,33.7,3.5,6.7,19.9,14.8,35.5,17.6,20,3.6,26.1,6,31.8,12.4,9.2,10.5,11.2,18.4,11.6,46.1,.4,21.9,2.4,34.3,8.1,49.5,.9,2.5,2.8,8.5,4.1,13.5,3,11.6,7.2,25.1,12.3,39.4,4.6,13.1,8.3,26.4,11.1,40.1,2,9.4,6,27.3,8.6,38.1,.8,3.1,1.4,6.8,1.4,8.2,0,1.5,.4,3.6,.9,4.9s1.6,5.9,2.6,10.3c2,9.8,4,16.9,7.1,25.5,6.6,18.6,7.7,23.9,7,33.4-.4,5-.6,10.9-.5,13.1,.7,11.4-.5,23.9-2.9,29.8-.7,1.6-1.2,3.9-1.2,5.1,0,1.3-.7,2.9-1.5,3.6-3.3,2.7-10.5-6.1-10.5-13,0-1.7-.7-4.2-1.6-5.5-1.3-2-1.4-4.2-.7-14.2,.4-6.5,.7-12.9,.5-14.3-.4-4.2-4.4-12.1-6-11.8-.8,.2-3.3,3.7-5.6,7.9-7.3,13.4-9.1,15-15,13.5-4.6-1.1-4.1-4.1,2.9-17.6,4.4-8.6,9.5-26.3,9.5-33.1,0-5-1.4-8.2-19.8-44.9-24.7-49.3-28-58.3-33.2-91-.5-3-1.3-6.9-1.8-8.5-.6-1.7-1.8-5.8-2.8-9.3-1-3.4-2.2-6.1-2.8-5.9-1.2,.4-3.6,10.2-6,24.2-1,5.5-2.2,11.9-2.8,14.3-1.5,5.9-1.4,32.2,.1,40.7,2.1,11.6,4.2,21.5,6.3,30,1.1,4.4,2.8,11.8,3.9,16.5,3.6,15.8,7,24.4,20,50.2,17.2,34.3,17.4,34.8,23.4,65.3,.8,3.8,1.9,9.5,2.4,12.5,.6,3,1.7,9.1,2.6,13.6,.8,4.5,1.5,10.1,1.5,12.5s.4,6,.9,7.9c1.1,4.1,3,23.7,4.1,43.5,.5,7.7,1.3,15.8,1.9,18,.5,2.2,1.5,6.5,2.1,9.5,2.9,14,6.1,22.9,17.1,47,7.5,16.6,11,28.2,14.9,49.5,.5,2.7,1.6,8.6,2.4,13,1.6,8.4,3.2,18.6,4.1,27,.4,2.7,1.7,9.7,3,15.5s3.3,15,4.4,20.5c1.8,8.5,6.2,26.5,10.2,41,5.3,19.4,14,31.6,32.2,45.2,11.4,8.6,11.2,12.3-.7,17.9-4.1,1.9-8.6,3.4-10,3.4s-4.5,1-6.9,2.1l-4.4,2.2-5.6-3.6c-3.1-2-6.8-5.4-8.3-7.6-2.1-3.2-3.7-4.3-7.8-5.6-2.8-.8-5.9-2.2-7-3-1.8-1.3-3.8-7-5.6-16-2.4-11.3-5.9-26.4-7.2-30.5-1.8-5.6-8.8-25.3-9.8-27.5-.5-1.1-1.9-4.3-3.1-7-1.2-2.8-5.1-11.1-8.7-18.5-3.5-7.4-8.2-17.6-10.2-22.5-14.3-34.2-13.8-32.8-19.4-58-4.2-18.8-7.3-28.7-12-38.2-2.3-4.8-6.6-14.4-9.4-21.3s-7-17-9.2-22.5c-2.3-5.5-6.4-16.1-9-23.5-6.2-17.2-12.7-33.2-17.9-43.8-2.3-4.5-4.1-8.5-4.1-8.8s-1.8-4.2-4.1-8.7c-4.8-9.8-10.8-24.7-11.6-29-1.7-9.3-9.2-21.3-19.8-32.1-12.3-12.5-19.3-11.5-33.8,5-7.1,7.9-11.4,15.4-14,23.9-2.4,8.2-8.1,22.3-13.7,34-11.4,23.9-11.3,23.7-22.2,51-2.2,5.5-4.6,11.6-5.3,13.5s-2,5.3-2.8,7.5c-.9,2.2-3.2,8.5-5.3,14-2,5.5-4.8,12.5-6.2,15.5-1.3,3-3.2,7.6-4.2,10.1s-3.9,8.9-6.5,14.3c-4.6,9.8-6.9,16.4-10,29.1-.9,3.8-2,8.6-2.5,10.5s-1.6,7.1-2.5,11.5c-1.5,7.3-3.4,13.6-5.5,19-2.2,5.6-5.5,13.5-7.2,17.5-1.1,2.5-2.5,5.8-3.2,7.5-.7,1.6-1.8,4.1-2.4,5.5s-3.9,8.3-7.3,15.5c-15.2,32-25.8,61.8-28.9,81-1.6,10-4.2,18.7-6.4,21.2-1.3,1.5-4.2,3-7.1,3.8-4,1-5.6,2-8,5.4-3.7,5.2-11,10.1-15,10.1-1.6-.1-4.1-.7-5.5-1.5s-3.4-1.4-4.5-1.5c-3.4,0-15.3-5.2-17.6-7.6-4-4.2-.8-9.2,10.6-16.9,5.4-3.7,14.7-13.7,19.9-21.3,1.7-2.6,4.4-8.8,5.9-13.7,2.7-8.8,3.1-10.4,6.1-21.5,.8-3,2.4-9.1,3.6-13.5s3.2-13.7,4.5-20.8c1.3-7,2.6-13.5,3-14.5,1.2-3.2,4.6-24.5,6.1-38.2,.3-3,1.2-7.2,2-9.3,.8-2,1.4-5.1,1.4-6.7,0-8.2,7.8-33.9,14.9-49.1,7.6-16.6,12.3-29,15.4-41.4,.9-3.3,2-7.8,2.6-10,1.6-6.3,3.1-20.2,4.1-38.3,1.1-20.3,2.7-35.7,4-39.6,.6-1.6,1-4.5,1-6.5,0-4.7,6.2-36.8,9.7-50.1,2.8-10.7,6.7-19.8,18.3-42.5,13.7-26.8,15.7-31.7,19.8-48.5,12-49,14.2-63.5,12.3-80.7-.7-5.9-1.7-13.1-2.3-15.8-.6-2.8-1.4-7.3-1.9-10-2.3-14.5-4.2-21.5-5.9-21.5-.9,0-2.7,3.8-3.4,7-.2,1.4-1.6,7-3,12.5s-2.6,11.1-2.6,12.4-.4,4-1,6c-.5,2-1.6,7-2.5,11.1s-2.2,9.1-3,11c-5,13.5-8.8,21.6-25.4,54.5l-18.6,37,.1,9c.2,10.5,2.7,19.2,9.9,33.5,6.1,12.1,5.9,16-1,16-4.1,0-6.3-2.4-11.8-13-2.4-4.7-5-8.6-5.8-8.8-.9-.2-2.5,1.9-4.2,5.3-2.2,4.6-2.7,6.9-2.7,13.5,0,4.3,.5,9.1,1.1,10.7,1.7,4.4,1.3,9-1,11.9-1.4,1.7-2.1,4.1-2.1,6.8,0,3.4-.7,4.9-3.4,8-5.2,5.6-6.6,4.2-9.5-8.6-1.3-5.7-2.8-11.8-3.3-13.6-.6-2.1-.6-4.3,.1-6.5,.6-1.7,1-10.4,.9-19.2l-.2-16,4.8-14c5.8-17.1,7.4-22.4,8.6-29.5,.5-3,1.7-8.4,2.5-12,.9-3.6,2.7-11.7,4.1-18l4-18c.8-3.6,1.9-8.5,2.4-11,2.6-13.2,6.5-27.8,10-38,5.6-16.2,8.8-26,10-30,1.6-5.8,3.1-10.7,8-26.5,6.9-22.3,7.1-23.7,7.5-43,.8-35.5,3.5-45.9,14.7-56,6.3-5.7,7.1-6,22.3-9.1,23.6-4.9,34.8-9.4,40.9-16.6,3.2-3.7,3.3-4.2,3.9-14.6,.6-13.3-.1-18.5-2.8-19.1-2.6-.5-4.1-2.7-5.5-7.9-.8-3.2-1.7-4.5-3.8-5.3-6.6-2.5-9.2-7.8-9.2-18.9,0-7.3,.2-8,2.7-9.8,2.4-1.7,2.7-2.7,3.4-11.3,.4-5.2,1-10.3,1.4-11.4,3.4-9.7,9.9-19.5,16.1-24.1,6.7-5.1,12.5-6.5,25.9-6.1,8.5,.3,13.2,.9,16.3,2.2Zm50.2,.6c0,.7,4.3,5.5,9.5,10.8,5.2,5.4,9.5,10,9.5,10.4,0,1.5-4.3,.6-7.3-1.5-11.1-7.5-19.8-20.8-13.7-20.8,1.1,0,2,.5,2,1.1Zm-126,1.6c0,2.2-9.8,14.9-15.5,20.2-4.6,4.2-8.5,5.4-8.5,2.5,0-3.4,19.9-24.4,23.1-24.4,.5,0,.9,.8,.9,1.7Zm14,.3c0,4.2-8.5,18.9-14.9,25.7-6.1,6.6-9.2,2.9-3.7-4.6,2-2.7,3.6-5.2,3.6-5.5,0-.8,8.4-13.1,10.8-15.9,2-2.3,4.2-2.2,4.2,.3Zm88.8,8.9c2.4,4.2,6.5,10.5,9.3,13.9,5.4,6.7,5.9,8.2,2.9,8.2-5.6,0-20-19.1-20-26.4,0-6.2,2.9-4.6,7.8,4.3Zm15.7-.5c1.8,2.8,6.3,8.2,9.9,12.1,3.6,3.8,6.6,7.3,6.6,7.7,0,.5-1.4,.8-3.1,.8-6.3,0-17.7-11.1-21-20.3-1.2-3.5-1.2-4,.5-5.3,2.4-1.7,3.1-1.3,7.1,5Zm-196.2,10.3c14.8,7.8,29,27.4,32.2,44.4,.5,2.7,.2,4-1,5.3-2.5,2.5-3.6,1.6-5.5-4.4-.9-3-2.5-7.1-3.5-9-5.2-10.3-19.3-26.7-28.7-33.7-2.7-1.9-4.8-4.1-4.8-4.9,0-2.4,3.9-1.6,11.3,2.3Zm282.5-2.4c-.2,.7-3.2,3.8-6.8,6.8-14.6,12.4-30,33.7-30,41.4,0,2.4-2.3,5.5-4.1,5.5-2.2,0-3.1-4.7-2-10.1,3.3-15.3,17.4-33.9,31.7-41.6,6.1-3.4,11.8-4.4,11.2-2Zm-319.8,11.8c-.6,1-2.8,3.9-5,6.4s-4,4.8-4,4.9c0,.2,1.1,.1,2.5-.2,3.9-.7,3.1,1.9-2.3,8.5-6.6,7.9-12.8,13.3-15.2,13.3-3.5,0-2.2-2.9,4-9.4,3.3-3.5,6-6.6,6-7,0-.3-1.8,.3-4,1.4-4.7,2.4-5.9,2.5-6.6,.5-.6-1.5,12.4-14.6,19.9-20.2,3.5-2.6,6.4-1.5,4.7,1.8Zm352.4,2.3c4.3,6.6-1.2,8-6.3,1.6-2.6-3.3-3-4.4-2.1-5.5,1-1.3,1.6-1.3,4,0,1.5,.8,3.4,2.5,4.4,3.9Zm-8.7,3.2c5.3,6.1,5.8,7.8,2.7,8.2-1.4,.2-3.6-1.4-7.2-5.2-5.8-6.1-6.6-8.6-2.8-8.6,1.8,0,3.9,1.6,7.3,5.6Zm-10.2,9.5c5,7,5.2,7.9,2.2,7.9-3.8,0-10.9-9.3-9.1-12.1,1.2-2,3.4-.7,6.9,4.2Zm-327.5,18.4c0,2.8-6.3,14.7-11.2,21.3-2.8,3.7-7.8,9.5-11.2,12.9-5.8,6-8.7,7.5-10.1,5.3-.7-1.2,.3-2.7,7-11,2.5-3,7.7-10,11.7-15.5,3.9-5.5,8-11,9.1-12.3,2.3-2.5,4.7-2.9,4.7-.7Zm235.1,4.6c4.7,5,9.9,15.2,13.5,26.4,3.6,11.1,4,14.7,2.3,20.7-1.6,5.8-4.2,4.5-5.4-2.7-3.1-17.1-10.4-37.5-15.6-43.1-1-1.1-1.9-2.6-1.9-3.2,0-2.3,4.2-1.2,7.1,1.9Zm118.9,7.9c5.5,5.6,10,10.8,10,11.5,0,2.1-3.7,1.9-7.4-.4-4.9-3.1-15.6-16.3-15.6-19.3,0-3.6,3.1-1.6,13,8.2Zm-370-7.2c0,1.8-6.3,9.9-15.1,19.5-3.2,3.6-4.9,4.7-6.1,4.2-1-.4-1.8-1.3-1.8-2,0-3.7,18.2-23.5,21.6-23.5,.8,0,1.4,.8,1.4,1.8Zm356.1,5c2.7,6.3,15,24.1,19.8,28.6,3.3,3.2,4.1,6.6,1.6,6.6-7.1,0-19-14.5-26.5-32.2-2.2-5.1-2.7-7.4-2-8.3,2-2.4,4.7-.4,7.1,5.3Zm-39.5-5c.6,.4,2.1,2.7,3.4,5.1,1.2,2.4,3.8,6.7,5.8,9.5,10.8,15.4,17.5,25.7,16.9,26.2-2.8,2.9-18.8-16.7-26.9-32.9-3.4-6.8-3-10.5,.8-7.9Zm-265,1.7c.7,1.7-2.9,9.1-8.5,17.5-4.5,6.9-17,22-18.2,22-2.2,0-.2-3.9,9.4-18.2,5.7-8.4,11.3-17,12.5-19.1,2.3-3.9,3.9-4.7,4.8-2.2Zm-28.2,2.3c1.1,1.9-9.5,26.1-12.9,29.6-4.6,4.5-4.6-.1,0-8.6,1.9-3.6,4.4-9,5.5-11.9,3.3-8.5,5.8-11.6,7.4-9.1Zm291.6,16.9c5.5,10.4,8.6,15.1,16.2,24.6,1.6,1.9,1.9,3,1.1,3.8-1.6,1.6-4.2-.1-10.1-6.5-6.9-7.6-18.1-28.8-16.9-32,1.4-3.6,3.8-1.1,9.7,10.1Zm-255-8.7c0,2.3-4,10.7-9.7,20.5-4.9,8.3-13.9,17.3-15.6,15.6-.8-.8-.5-1.7,1-3.3,4-4.5,12.5-18.1,16.5-26.4,3-6.1,4.6-8.4,5.9-8.4,1.2,0,1.9,.7,1.9,2Zm287.3,8.4c5.3,6.1,7.2,9.8,6.4,12-.8,2-3.6,2.1-6.2,.2-2.8-2-8.9-14-8.2-16,1.1-2.8,3.3-1.8,8,3.8Zm-273.3-3.2c0,2.2-2.9,9.6-6,15.9-6.8,13.5-14.9,23.4-17.1,21.2-.9-.9-.6-1.9,.8-4,1.1-1.5,5.1-8.4,8.8-15.3s7.8-14,9.1-15.8c2.6-3.3,4.4-4.1,4.4-2Zm57,4.9c0,2.6-4.5,10.8-11.6,20.9-6.6,9.5-9.2,12-10.4,10-.6-1,.6-4.1,3.8-10,5.2-9.5,10.7-18.6,13-21.3,2.1-2.4,5.2-2.2,5.2,.4Zm-43.6,.8c1.7,2.7-7,18.7-16.4,30.5-8.5,10.5-18,19-18,16.1,0-1.1,5-8.4,9.7-14.1,7.2-8.8,16.5-23.4,19.2-30.2,1.3-3,4.3-4.4,5.5-2.3Zm15.6,2.6c0,5.1-8.5,23.6-14.9,32.5-6.6,9.2-14.1,14.9-14.1,10.6,0-.7,3.7-6.9,8.3-13.7,4.5-6.8,10-15.8,12.1-19.9,4-7.8,6.3-11,7.8-11,.4,0,.8,.7,.8,1.5Zm130.7,3.2c1.6,2.1,3.6,4.9,4.6,6.3,.9,1.4,3,4.4,4.7,6.8,3.4,4.9,3.8,7.2,1.2,7.2-3,0-10.6-9.1-15.6-18.8-3.2-6.1,.7-7.2,5.1-1.5Zm174.8,38c9.3,8.1,13.3,12.9,13.7,16.3,.2,1.9-.2,2.6-2,2.8-1.8,.3-4.4-1.8-11.9-9.5-10.6-10.9-12.8-13.7-11.8-15.3,1.4-2.2,4.6-.7,12,5.7Zm-352.3,22.9c4.5,1.8,7.1,4.1,6.2,5.6-.3,.5-3.2,.6-6.4,.2-3.5-.4-7.1-.2-9.3,.5-4.5,1.5-12,9.5-13.8,14.7-1.5,4.4-1.6,13.9-.4,26,.9,9.5-.5,15.4-6.3,26.7-5.5,10.7-17.4,21-24.4,21.1-4.7,.1-5-1.4-.7-3.7,5.2-2.7,14.3-13,18.2-20.5,4.9-9.4,6.2-15.8,5.1-25.1-2-18.5,.1-28,8.4-37.2,4.7-5.2,12.6-9.9,16.9-9.9,1.3,0,4.2,.7,6.5,1.6Zm-92.6,4.9c5.1,3.2,12.7,12.9,13.9,17.8,.6,2.2,.4,2.7-1.2,2.7-1.1,0-3.2-1.4-4.9-3.1-1.6-1.7-5.5-5.1-8.7-7.5l-5.9-4.4h-9.6c-13.1,0-21.7,2.9-33.1,11.1-7.3,5.2-8.6,5.8-9.8,4.6-1.3-1.3-1.3-1.8,0-4.3,3.2-6.2,14-14.2,23.3-17.2,9-3,9.2-3.1,20.5-2.9,9.9,.2,10.9,.4,15.5,3.2Zm86.3,11.1c1.1,1.4,3,5.1,4.3,8.2,2.1,5.3,2.3,7.1,2.2,24-.2,23.6-2,39.4-7,59.1-2.3,9.3-8.5,23.3-12.2,28l-1.9,2.4-1.1-3.1c-.9-2.6-.5-4.7,2.9-14.6,2.1-6.4,4.3-14.6,4.9-18.3,.6-3.6,1.3-7,1.6-7.4,1.2-1.9,3.8-27.2,5-48.3,.7-11.1-.3-18.4-3.3-25.8-2.7-6.4,.6-9.3,4.6-4.2Zm274-.7c5,2.6,9.9,8.3,10.5,12.3,.3,1.8,.8,9.4,1.1,16.8,.7,14.9,1.4,19.7,5.6,37.5,3.4,14.2,3.4,14.5,1.1,14.5-2,0-7.1-8.9-9.5-16.5-2.7-8.7-5.5-30.3-5.8-44.2-.2-8.7-1.8-12.3-7-15.9-3.7-2.5-4.7-4.3-3.2-5.7,1.1-1.2,3.2-.8,7.2,1.2Zm122.6,11.5c8.3,4.1,13.2,8.4,15.9,14,3.8,8-1.5,9.1-8.8,1.7-8.9-9-21.3-13.3-31.9-11.1-5.7,1.1-14,5-20.9,9.7-6.5,4.4-8,.2-2.2-6.5,7.5-8.8,16.8-12.4,30.6-11.8,8.6,.4,10.5,.8,17.3,4Zm-450.9-1.9c.4,.9-.4,3.9-1.7,6.8-1.8,4-2.4,7.1-2.5,13.7-.1,9.5-.9,14.7-3,20.3-.8,2.1-1.7,8.4-2,14-.6,9-.4,10.8,1.4,15.2,4.7,11.3,4.8,17.5,.3,17.5-2.1,0-3.1-1.9-3.1-5.6,0-1.3-1.4-5.5-3.1-9.2-4.4-9.4-5.1-19.9-1.8-29.7,1.6-5,2.4-10.5,2.9-19.5,.7-13.7,2.4-18.8,7.6-22.9,3.2-2.5,4.3-2.6,5-.6Zm319.1,6.1c3.5,2.2,4.6,7.5,3.9,18.8-1.9,31.3-1.9,35.1-.2,43.2,3.3,15.2,6.3,21.2,20,39.9,5.3,7.1,9.4,13.4,9.3,13.9-.8,2.5-3.2,1.3-9.3-4.6-12.1-11.5-23.2-29-25.6-40-.5-2.3-1.4-6.6-2-9.3-1.3-6-.5-31.9,1.3-42,1.3-7.6,.6-12-2.4-13.9-1.3-.8-3.1-.4-7.8,2.1-6.4,3.2-8.9,3.3-8.9,.4,0-2.2,3.4-5.4,8.5-7.9,7-3.5,8.5-3.5,13.2-.6Zm64.4,21.4c1,.6,2.6,2.5,3.5,4.2,3,5.8,1,14.7-7,32.3-2.2,4.9-8.7,22.1-12,32-1,3.1-1.6,8.3-1.6,13.7,0,7.7,.4,9.6,3,15.2,1.7,3.5,3.7,6.9,4.5,7.6s1.5,2.3,1.5,3.6c0,3.5-4.1,3.1-8.6-.9-5.4-4.7-9-13.4-9.9-23.7-1.2-15.6,2.1-26.7,15.1-50.5,10-18.1,11.8-22.6,10.2-26-1-2.2-1.6-2.4-4.5-1.9-2.8,.5-3.3,.3-3.3-1.3,0-1,1.2-2.6,2.8-3.5,3.2-2.1,3.7-2.1,6.3-.8Zm-352.1,33.9c-2.9,5.8-13.8,16.3-20,19.4-5.6,2.8-9.4,3.3-12,1.7-1.3-.8-1.3-.9,0-1.4,9-2.8,11.9-4.5,18-10.6,3.6-3.6,7.8-8,9.3-9.8,1.5-1.7,3.6-3.2,4.7-3.2h2l-2,3.9Zm-131.9,21.2c.4,.8,2,4,3.5,7.3,1.4,3.2,4.6,8.3,7,11.2,4.7,5.7,5.3,7.4,2.8,7.4-5.1,0-20.2-23.1-17.3-26.6,1.4-1.7,2.9-1.4,4,.7Zm87.6,2.1c1.3,1.2,2.3,2.9,2.3,3.7,0,.9,.7,3.4,1.4,5.6,2.5,7,3,11.5,1.4,11.5-2.4,0-9.6-8.3-11.3-12.9-1.9-5.5-1.9-5.7,.5-8.1s2.8-2.5,5.7,.2Zm-14.7,10.3c1.6,.8,4.8,4.6,7.5,9,2.6,4.2,5.6,8,6.6,8.6,3.7,1.9,2.2,3.9-2.9,3.9-9.3,0-18.8-7.5-19.9-15.7-.4-3.4-.2-4.3,1.8-5.7,2.9-2,3.3-2,6.9-.1Zm-11.4,10.3c.6,.4,2.4,2.8,4.2,5.3,1.7,2.5,5.3,6.4,7.9,8.7,3.7,3.1,4.5,4.3,3.6,5.3-1.6,1.6-8.7-.2-16.1-4.2l-5.7-3.1,5,4.6c2.7,2.5,5.8,4.9,6.7,5.2,3,.9,2.1,1.9-3.6,3.8-5.2,1.8-5.4,1.8-9.9-.2-3.6-1.6-5.2-3.2-7.6-7.4-3.6-6.2-3.8-8.1-1.1-10.8,2.9-2.9,5.8-2.5,7.8,1,1.8,3.2,3.9,4.2,2.2,1.1-1.1-2.2-1.4-8.4-.3-9.4,.9-.9,5.5-.9,6.9,.1Zm-21.7,22.9c3,2.9,5.2,5.6,4.7,6-1.2,1.2-9.6-3.8-12-7.1-2.6-3.7-4.6-9.2-3.7-10.1,.3-.4,1.7,.8,3.1,2.6s5,5.6,7.9,8.6Zm449.1,2.5c0,4.1-3.1,8.9-7.8,12.2-3.7,2.5-7.7,3.5-7,1.7,.2-.5,2.1-4.5,4.3-8.9,3.2-6.6,4.4-8.2,6.5-8.4,3.5-.5,4-.1,4,3.4Zm11.5,1.4c1.6,1.6,1.5,3.1-.1,8.1-.3,1,.6,.3,2.1-1.5,4-4.9,7.2-5.8,10.2-3.1,1.2,1.3,2.3,3.2,2.3,4.3,0,1.9,.1,1.9,1.3-.4,3-5.9,10.6-6,12.8-.3,2.8,7.4-6.1,17.5-20,23-3.9,1.5-4.3,1.5-5.8,0-1.6-1.6-1.5-1.9,1.2-4.7,3.1-3.3,2.1-3.9-2.6-1.4-1.8,.9-4.9,1.4-7.7,1.2-4-.3-4.7-.6-5-2.5s-.6-2.1-3.3-1.1c-4.2,1.5-5.5-.1-2.9-3.5,1.1-1.4,3-4.7,4.1-7.2,2.3-5.2,8.4-12.5,10.4-12.5,.8,0,2.1,.7,3,1.6Zm42,10.8c-1,4.5-3.2,7.6-5.5,7.6s-2.6-2.6-.5-5.4c.8-1.1,1.5-3.9,1.5-6.2v-4.3l2.6,2.5c2,2.1,2.4,3.2,1.9,5.8Zm-441.1,10.3c-1.3,12.8-6,17.4-5.2,5,.5-7.7,2-11.7,4.4-11.7,1.2,0,1.3,1.1,.8,6.7Zm355,17.3c4.2,5.1,7.8,17.9,8.4,30.3,.4,10.2,.3,10.9-1.4,10.5-1.4-.2-2.1-1.9-3.1-7.3-2-11.5-2.9-15.9-4-18.5-.6-1.4-1.7-4.5-2.4-7-.6-2.5-1.8-5.5-2.6-6.8-2.9-4.8,1.2-5.7,5.1-1.2Zm-332.7-.4c.3,.8-.6,5.2-1.9,9.7-1.4,4.5-3.3,11.8-4.3,16.2-3.1,14.3-4.5,18.7-5.8,18.2-2.6-.8-1.9-11,1.9-28.2,2.9-12.9,8.1-21.1,10.1-15.9Zm323.7,6.6c.8,1.8,3.3,10.3,5.6,18.8,2.4,8.5,5.3,19.1,6.5,23.5,5,17.6,5.7,22.9,2.8,22.3-1-.2-2.3-1.4-2.9-2.8-2.8-5.9-7.1-20.2-9-30-.3-1.4-1.1-4.8-1.9-7.5-4.3-15.7-6.6-25.6-5.9-26.6,1.1-1.9,3.4-.8,4.8,2.3Zm-345.8,117.5c6,18.7,13.7,37.1,20.7,49.3,7.8,13.7,19.5,32.7,23.5,38.3,5.7,7.9,1.8,10.8-5,3.6-5.2-5.4-22.3-31.4-28-42.5-9.4-18.1-15.2-34.1-17-46.9-.5-3.3-1.1-7.7-1.4-9.8-.7-4,0-6.7,1.5-6.7,.5,0,3.1,6.6,5.7,14.7Zm380.4-10.9c0,7.6-4.7,27.6-8.7,36.9-.7,1.7-1.3,3.4-1.3,3.8,0,1.9-11,23.1-16.9,32.5-13.8,22.2-23.2,33.6-26.6,32.4-2.3-.9-1.9-1.9,3.8-10.7,16.1-24.6,25.6-41.6,32.2-57.2,5-11.9,11.1-29.9,12.9-37.8,.9-3.9,4.6-3.8,4.6,.1Zm28.8,58.4c2.3,4,6.2,9.9,8.9,13.2,6.6,8.1,6.8,8.4,6.1,9.2-.4,.3-2,.3-3.5,0-7.5-1.9-22.5-25.1-18.6-28.9,1.7-1.7,3.4-.1,7.1,6.5Zm-203.1,.7c.3,1.4,2.8,7.4,5.5,13.2,2.6,5.8,4.8,10.9,4.8,11.3,0,.5,.6,2.2,1.4,3.9,3.8,8.5,7.6,18.3,7.6,19.9,0,3.1-2.7,.8-6.4-5.4-2-3.2-3.6-6.2-3.6-6.5s-2.3-5.6-5-11.9c-7.3-16.3-10.2-25.9-8.4-27.7,1.2-1.2,3.4,.6,4.1,3.2Zm-26.4,5.1c.4,2.5,1.2,6.7,1.7,9.5,.5,2.7,1.4,8.8,2,13.5s1.5,10.8,2,13.7c1.1,6-.4,65.4-2.1,89.1-1.2,15.9-2.3,19.9-4.6,17-2.1-2.6-3.1-16.1-2.1-28.8,.5-6.9,1.1-27.1,1.4-44.9,.3-25.7,.1-34.2-1.1-41-.8-4.7-1.8-14.2-2.1-20.9l-.7-12.4,2.4,.4c2,.2,2.5,1.1,3.2,4.8Zm-19.7,3.3c.2,.7-.2,3.9-1.1,7-.8,3.1-2.2,8.2-3,11.2-1.9,7.1-6,16.8-7.3,17.3-1.5,.5-2.1-2.1-1.2-6.4,1.9-9.8,7.3-26.8,9.2-29.1,1.3-1.7,2.7-1.6,3.4,0Zm248.1,28.6c1.9,3.9,5.3,8.9,7.9,11.6,3.3,3.3,4.4,4.9,3.6,5.7-3.1,3.1-11-3.4-15.7-12.9-1.5-3.2-3.2-6.7-3.8-7.7-.7-1.5-.5-2.3,.8-3.2,2.6-1.9,3.7-.9,7.2,6.5Zm-436.3,80.3c.3,1.2,3.2,19.5,5.7,36.1,.5,3.2,1.3,6.7,1.9,7.7,.5,1,1,3.7,1,5.9,0,3.3-.4,4.1-1.8,4.1-2.4,0-4.7-5-6.7-14.5-.9-4.4-2-9.6-2.5-11.5-1.9-7.8-3.2-24.8-2.1-26.9,1.3-2.3,4-2.8,4.5-.9Zm434.2,1.3c.3,1.3,.1,6.2-.6,10.7-.7,4.6-1.6,11-2,14.3-1.6,12.1-5.6,25.2-8.3,26.9-2.8,1.8-4.3-.7-2.9-4.7,.7-1.8,1.2-4.5,1.2-5.9s.7-4.5,1.5-6.8,1.5-5.7,1.5-7.6c0-1.8,.4-4.4,1-5.8,.5-1.4,1.2-6.7,1.6-11.8s1.1-9.9,1.7-10.6c1.6-2.1,4.6-1.4,5.3,1.3Zm-452.1,13.2c.9,4,12.5,36.3,14,39.3,2.6,5.1,2.8,7,.7,7-1.9,0-6.4-5.5-9.5-11.6-4.9-9.5-11.5-32.8-10.3-36.1,1-2.4,4.3-1.5,5.1,1.4Zm38.2,3.3c.9,3.8,1.2,10.9,.9,23-.5,23.5-2.4,34-6.1,34-2.1,0-2.6-3.1-1.5-9.1,.6-3,1.3-16.2,1.5-29.4s.4-24.1,.5-24.3c0-.2,.8-.2,1.7,0,1.2,.2,2.2,2.1,3,5.8Zm393.8,14.1c.1,10.7,.5,24.7,1,31.1,.7,10.5,.6,11.8-.8,11.8-2,0-2.5-.8-4.1-7.2-2.7-10.6-4.1-30.3-2.8-39.2,.7-4.5,1.2-9.4,1.2-10.8,0-2.8,2.5-6.1,4.3-5.5,.7,.2,1.1,7.1,1.2,19.8Zm38.3-17.3c.2,1.3-.3,4.4-1.2,7-.8,2.6-2.7,8.5-4.1,13.2-3,9.8-10.2,23.7-13.3,25.8-3.3,2.2-3.9-.8-1.3-6.3,1.2-2.5,2.1-4.8,2.1-5.1s.6-2,1.4-3.7c1.9-4.2,7.1-18.7,9.2-25.7,.9-3,2.2-6.1,2.7-6.8,1.5-1.9,4.2-1,4.5,1.6Zm-327.2,16.7c2.7,6.7,5.4,21.7,5.4,30.2,0,3.2-.7,10.1-1.4,15.4-1.1,8.1-2.2,11.3-6.6,20-8.6,17.3-13.8,24.9-17.1,24.9s-3.1-1.9,.9-10.3c2.2-4.5,5.2-10.9,6.6-14.2,1.5-3.3,3.1-6.8,3.7-7.9,4.1-7.3,6.1-33.8,4-52.4-.7-5.6-.9-10.7-.6-11.3,1.2-1.9,2.7-.3,5.1,5.6Zm183.7,.5c-.2,3.6-.8,10.8-1.4,16-.8,6.9-.8,11.2,0,15.5,.6,3.2,1.1,8,1.1,10.6s.7,7,1.6,9.6c1.6,4.7,11.2,26.3,14,31.5,3.4,6.3-.3,9.4-5,4.3-2.8-3-15.9-27.2-18.1-33.5-2.5-6.9-2.6-37.2-.2-46,3.1-11.1,4.8-15.1,6.6-14.8,1.3,.3,1.6,1.6,1.4,6.8Zm-276.3,15.7c0,5.8-.6,12.8-1.4,15.6-.7,2.9-1.9,7.7-2.6,10.7-2.3,9.8-5,13.1-7.9,9.6-1-1.1-1-2,0-3.7,1.5-2.9,4.9-20.1,4.9-25,0-2,.7-5.8,1.5-8.5s1.5-6.1,1.5-7.5c0-3.2,.9-4.2,2.7-2.8,.9,.8,1.3,4.1,1.3,11.6Zm7.4-9.5c1.3,4.9,.6,30-1,37.2-2.3,9.9-2.1,9.6-4.4,9.6-1.8,0-2.5-1.1-2.1-3.4,.1-.5,.7-6.1,1.2-12.5,.8-9.9,3.4-32.1,3.8-32.9,.5-1,2,.2,2.5,2Zm359.5-.8c1.1,1.3,2,5.6,4.1,19.6,.6,4.1,2,11.7,3.2,16.8,1.5,7.1,1.8,9.6,.9,10.5-1.8,1.8-4.3-.4-5.9-5.4-.7-2.4-1.8-5.8-2.4-7.4-.5-1.7-1.4-6.4-1.8-10.5-.5-4.1-1.1-10.3-1.5-13.7-1.1-9,.4-13.5,3.4-9.9Zm-6.3,2.4c.4,.9,1.1,8.4,1.5,16.7,.5,8.2,1.2,18.3,1.5,22.2,.5,6.1,.4,7.3-.9,7.3-2.7,0-5-5.2-6.1-13.9-1.2-9.7-1.5-30.7-.4-33.3,.8-2,3.3-1.4,4.4,1Zm-504.2,206.8c3.2,1.2,1.5,8.2-3.4,14.4-5.5,7-8.7,2.9-5.9-7.5,1.8-6.5,4.7-8.7,9.3-6.9Z"/>
  <path d="M578.47,92.36c-7.6,2.2-18.1,11.7-18.1,16.3,0,7.4,15.7,23.6,22.8,23.6,4,0,14.2-9,14.2-12.5,0-1.3,.7-3,1.5-3.9,.8-.8,1.5-2.1,1.5-2.9,0-1.5-5.4-6.7-7-6.7-1.7,0-2.9,2.9-3.2,8-.3,5-.5,5.5-2.8,5.7-1.4,.2-3.6,.4-5,.5-2.4,.3-2.5,0-2.8-5.7-.2-3.2-.8-6.5-1.4-7.2-2.9-3.6-9.1,1.5-6.8,5.7,2.2,4.2-1.7,5.6-4.4,1.5-3.2-4.9-1.6-9.4,4.4-12.5,5.3-2.7,5.8-2.6,10.3,1.7,2.9,2.8,4.1,3.4,4.5,2.4,.7-2.2,4.9-6.1,6.4-6.1,2.4,0,7.8,4,9.7,7.1,1.1,1.7,2.2,2.6,2.5,2,1.1-1.6-1.9-6.4-6.9-11.2-6.7-6.4-11.9-7.9-19.4-5.8Z"/>
  <path class="cls-1" d="M398.87,180.76c-47.4,15.5-84.9,32.8-125.5,57.7-16.4,10.1-18.6,11.6-36,24.2-18.4,13.4-33.2,25.4-47.3,38.5-5.8,5.3-5.8,5.4-10.9,4.8-2.8-.4-5.4-1.1-5.7-1.5-.9-1.4-18.8-2.6-33.6-2.3-17.6,.3-34.6,3.8-49.5,10.2-8.9,3.9-16.8,8.4-16.3,9.3,.4,.5,.1,.6-.5,.2-.9-.6-16.4,9-18.2,11.3-.3,.3-3,2.8-6,5.6-17.3,15.6-29.9,35.5-39,61.5-1.6,4.7-4,16.9-3.9,20l.1,2.5,.7-2.5c.5-1.4,1.6-6.1,2.6-10.5,5.6-25.6,22.6-53.4,43.3-71.1,27.7-23.6,60.6-35.3,96.5-34.2,8.6,.2,14,.8,14.9,1.6,.9,.7,2.7,1,4.5,.6,3-.6,10.3,1.8,10.3,3.3,0,.5-6.2,7.2-13.8,14.8-12.8,13.1-29.6,31.7-36.9,41-2.3,3-4.9,4.8-10,6.9-3.7,1.5-7.8,2.8-9,2.8-2.6,0-20.5,17.1-25.3,24.1-3.6,5.4-9,16.9-9,19.1,0,.8-1.2,4.2-2.6,7.5-1.7,4-2.4,6.7-1.8,7.8,.4,1,.8,5.2,.9,9.3,.2,6.1-.2,8.1-1.9,11-3.5,5.5-24.6,50.2-24.6,51.9,0,.4-.7,2.3-1.7,4.1-.9,1.8-2.6,6.2-3.8,9.7-1.3,3.5-2.5,6.6-2.8,6.9-1.3,1.3-4.9-2-7.2-6.6-1.3-2.7-2.9-5.1-3.5-5.5-1.3-.8-8.7-15.6-12.1-24-1.3-3.3-2.5-5.3-2.7-4.4-.4,1.9,5.5,15.7,11.4,26.7,2.4,4.5,4.4,8.9,4.4,9.7s.8,1.5,1.8,1.5c.9,0,2.7,1.8,4,4.1l2.3,4-2.4,6.7c-4.5,12.3-5.2,14.4-10.2,32.2-.7,2.5-1.7,6.3-2.3,8.5s-1.7,6.5-2.5,9.5c-3.2,11.6-9,41.4-10.7,55C1.17,693.96-.03,731.16,3.37,771.76c1.3,15.9,5.1,46.6,7,55.5,4.9,24,6.4,30.4,13.5,57.5,.8,3.3,3.6,11.8,6.1,19,5.1,14.6,6.1,19,4.5,19.9-1.8,1.2-1.2,2.5,.8,1.9,1.5-.4,2.2,.3,3.1,3.4,4.1,12.5,22.2,52.3,30.3,66.6,2.9,5,4,8.3,4.4,12.7,.9,9.1,2.5,7.2,2.3-2.8-.1-5.3,.4-10.8,1.4-14.2,2-7,2-7.3-.2-6.6-2.6,.9-4.3-1.5-8.7-11.4-2-4.7-4-9-4.5-9.5-1.3-1.7-11.7-26.2-16-38-1-2.8-2.5-6.7-3.4-8.7-1.1-2.5-1.2-3.9-.5-4.4,.7-.4,.4-1.4-.9-2.8-1.1-1.1-2.5-3.9-3.2-6.1s-1.9-5.6-2.7-7.6c-2.8-6.8-1.9-8,8.7-11.6,14.4-5,14-5.7-.7-1.4-9.7,2.8-11.1,2.7-11.9-.7-.3-1.5-1-3.7-1.5-5-1.2-3-1.2-6.9,0-7.7,.5-.3-.1-1.6-1.5-3-1.3-1.3-2.4-3.5-2.4-4.8,0-1.4-.7-4.1-1.6-6.2-1.4-3.4-1.4-3.9,.1-5.5,1.4-1.6,1.4-1.8-.5-3.1-1.5-1-2.5-3.9-4-10.8-1.1-5.1-1.7-9.8-1.4-10.3,.4-.6,2-1.6,3.8-2.4l3.1-1.3-3.5-.1c-3.5,0-3.6-.1-5.3-6.4-.9-3.5-1.7-7.8-1.7-9.5,0-3.6-1-3.3,19.5-6.1,25.1-3.4,35.9-5.2,37.5-6.2,1.2-.7,1.1-.8-.5-.4-1.1,.3-7.8,1.2-15,2.1-23.9,2.7-29,3.4-33.8,4.4-7.9,1.8-8.8,.8-10.1-12.5-.6-6.2,.4-7.4,5.9-7.4,5.2,0,23.4-1.8,35.5-3.6l9.5-1.3-11.5,.5c-6.3,.3-17.3,1.1-24.4,1.9-7.1,.7-13.5,1.1-14.2,.8-1.4-.5-1.9-2.8-2.9-12.5-.4-4.8-.2-5.9,1.3-6.7,2.2-1.2,24.3-3.1,37-3.2,5.3,0,11.7-.4,14.2-.9,2.8-.6-2.7-.7-14.5-.2-10.4,.3-23.3,.6-28.5,.7H11.87l-.3-7.9c-.2-5.7,.1-8.2,1-8.7,.7-.5,11.7-.9,24.3-1,12.7,0,25.3-.5,28-.9,3.1-.6-5.5-.7-22.8-.5-17.4,.3-28.6,.1-29.7-.5-1.6-.9-1.9-2.2-1.8-9.5,.1-5,.6-8.9,1.3-9.5,.6-.5,7.9-1.1,16.1-1.2l14.9-.3-15.2-.9c-9.1-.5-15.6-1.3-16.2-2-.5-.6-.6-4-.2-7.6l.6-6.5h10.5c5.8,0,17.7,.3,26.5,.7,19.4,.8,9.1-.5-16.8-2.1-9.7-.7-18.4-1.4-19.2-1.7-1.2-.5-1.4-2-1-7.6,.3-3.9,.8-7.4,1.1-7.9,.8-1.3,8.2-1.1,35.2,1.1,14.2,1.1,25,2.4,25.8,3.1s1.5,3.2,1.5,6.3l.2,5.1,.7-4.5c1.4-7.5,2.4-29,1.4-29-.5,0-1,3.9-1.1,8.6-.2,4.7-.6,9-.9,9.6-.8,1.2-15.2,.7-31.4-1.1-5.2-.6-13.9-1.5-19.3-2-5.4-.4-10.3-1.3-10.8-1.8-.7-.7-.7-4-.2-9.4l.8-8.4,7,.3c3.9,.1,11.7,.9,17.5,1.7,13,1.8,27.7,3,27,2.2-.4-.4-4.4-1.1-9-1.6-29.3-3.5-39.4-5.1-40.6-6.3-1-1-1.1-3-.3-9.3,.6-4.4,1.7-8.6,2.4-9.4,1.1-1.1,2.8-1.1,10.3-.1,4.9,.7,9.6,1,10.3,.8,1.4-.5-14.8-3.8-18.3-3.8-1.4,0-1.8-.8-1.8-3.3,.1-4.3,2.6-15.7,3.7-16.8,.6-.6,8,.5,18.8,2.6,9.9,2,18.6,3.4,19.5,3.3,1.5-.3-10.8-3.3-27.7-6.7-4.5-.9-8.7-2.1-9.3-2.7-2.1-2.1,2.4-18.9,5.5-20,1.1-.5,1.2-1,.2-2.5-1.1-1.8-.6-4.7,3.4-19.4,1.6-5.8,.1-6,36.4,5.5,6.6,2.1,14.6,4.6,17.7,5.5,5.3,1.5,7.5,3.5,6.2,5.6-.3,.5,0,.9,.6,.9s1.3-1.3,1.6-3c1-4.8,2.7-5.5,8.7-3.6,16.3,5.1,44.7,7.3,60.3,4.6,13.5-2.4,32.4-8.5,43.2-13.9,15.9-8,35.6-24,44.4-35.9,5.8-7.9,4.2-8.1-2.3-.3-19.5,23.4-52.3,41.8-82.9,46.7-15.8,2.5-42.9,1.5-56.4-2-10.6-2.8-13-4-12.1-6.5,.5-1.3,.4-1.4-.6-.4-2.2,2.2-5.8,1.5-14.2-2.8-14.7-7.3-40.7-26.7-40.7-30.3,0-.6,1.8-5.5,4-10.9,2.2-5.3,4-10.2,4-10.8,0-.5,1.2-3.6,2.6-6.7,1.5-3.1,3.7-8,4.9-10.7,5-11.1,12.5-26.1,13.9-27.8,2.5-3.2,4.8-1.6,8.5,5.8,5,9.9,18.9,23.7,29.1,29,4.1,2.1,8.3,4.4,9.2,5.3,1,.8,3.9,1.5,6.5,1.7,2.6,.1,8.9,.5,13.8,1,28.8,2.4,57.5-14.3,69.8-40.5,3.4-7.3,6.7-20.3,6.6-25.9-.1-4.1-.3-3.8-1.6,3.4-5.8,31.8-27,53.5-58.5,59.9-9.7,2-15.8,2-25.6,.1-13.6-2.7-29.5-12-39.4-23-4.2-4.7-12.8-18.3-12.8-20.3,0-.7-.6-2.5-1.4-4-2.3-4.5-3.4-17.9-2.5-28.8,1.6-16.9,8.4-30.8,21.5-43.7,11.5-11.4,31.1-19.7,46.4-19.7,12.4,0,28.2,4,36.8,9.1,19.1,11.5,30.6,28.2,35.2,50.9,1.4,6.9,1.8,7.7,1.9,4.4,.2-8.9-6.7-28.1-13.4-36.8-2.7-3.5-2.7-3.7-1-6.2,.9-1.5,10.7-11.6,21.7-22.5,11-11,19.6-19.9,19-19.9-2.4,0-26.5,23.1-37.8,36.2-2.3,2.7-4.9,4.8-5.8,4.8s-4.4-2.3-7.8-5c-7.4-6-12.6-9-20.5-12-8.3-3.2-16-4.9-21.9-5-3.3,0-5.6-.5-6.4-1.5-1.3-1.5-.8-2.1,19.6-24.9,8.2-9.1,26.9-27.2,29.9-28.9,2.1-1.1,17.6,6.5,30.2,15,10.6,7.1,22.3,17,22.3,19,0,2.2,1.6,1.5,6.2-3,11.8-11.2,56.2-42.8,69.9-49.7,2.4-1.3,5.6-3.1,7-4.1,4.1-2.9,36.9-19.1,50.4-24.9,18.2-7.8,19.1-8.2,17.7-8.7-.7-.3-2.9,.2-5,1-2,.8-4.3,1.2-5.1,.9s-2,.3-2.8,1.3c-1.3,1.9-5.5,3.7-12.9,5.9-2.3,.6-4.9,1.7-5.8,2.5-2.9,2.5-14,7.2-15.7,6.8-1-.3-1.9,.2-2.2,1.2-.5,2.1-11.2,7.5-13.3,6.7-1.1-.4-1.8,0-2.1,1.4-.6,2.1-12.2,9-15.3,9-1.1,0-2,.6-2,1.4,0,1.5-10,7.6-12.5,7.6-.8,0-1.5,.6-1.5,1.3,0,1.9-11.1,8.9-13.2,8.4-1.2-.4-1.8,.1-1.8,1.3,0,2.1-10.5,10-13.2,10-1,0-1.8,.6-1.8,1.4s-3.6,4.2-7.9,7.6c-4.4,3.4-8.1,6.7-8.4,7.3-.3,.7-2.1,2.1-4,3.2l-3.6,1.9-5.3-5c-6.3-5.9-18.3-14.9-25.3-18.8-2.7-1.6-6.9-4.7-9.2-6.9-3.4-3.2-4.6-3.8-5.5-2.9-1.7,1.7-3.8,1.5-3.8-.5,0-2.4,14.9-16.2,18-16.5,1.7-.2,2.6-1,2.8-2.5,.2-1.2,1.5-2.9,3-3.9s4.8-3.5,7.3-5.6,5.1-3.8,5.7-3.8c.7,0,1.2-.4,1.2-1,0-1,10.5-8.7,15.1-10.9,1.6-.8,3.1-2.3,3.5-3.3,.3-1,1.1-1.8,1.7-1.8,.7,0,3.2-1.4,5.7-3s5.5-3,6.6-3c1.3,0,2.4-.8,2.6-1.8,.6-2.2,9.1-7.2,12.8-7.6,1.7-.2,2.6-1,2.8-2.5,.2-1.1,.9-2.1,1.6-2.1s3.8-1.6,7-3.5,6.7-3.5,7.8-3.5c1,0,2.1-.7,2.4-1.5,.7-1.6,12.2-7.5,14.7-7.5,.8,0,2.1-.7,2.8-1.6,1.6-2,15.6-8.7,18.2-8.8,1-.1,2.1-.6,2.5-1.2,.8-1.3,15-7.4,17.2-7.4,.9,0,2.3-.9,3.3-2,.9-1.1,2.5-2,3.6-2s4-.9,6.6-2,5.7-2,6.9-2,2.6-.4,3.2-.9c1.7-1.7,20.4-7.9,22.3-7.4,1,.3,2.1-.2,2.4-1s2.2-1.8,4.2-2.1c2-.4,3.8-1.3,4.1-2,.5-1.4-2.3-8.6-3.4-8.5-.4,.1-6.5,2-13.7,4.4ZM50.87,547.46c3.1,2.9,9.1,7.8,13.3,10.8,6.8,4.8,11.5,7.4,27.1,14.9,1.9,.9,3.4,2,3.5,2.6,.2,2-4.5,1.5-13.6-1.4-5.1-1.6-14-4.4-19.8-6.1-26.3-7.9-26.1-7.8-24.1-13.8,3.6-10.7,4.4-12.2,6.1-12.2,1,0,4.4,2.4,7.5,5.2Z"/>
  <path class="cls-1" d="M749.07,181.96c-.2,.5-.2,2.9,.1,5.5l.4,4.7,6.4,2.1c3.8,1.3,6.9,3,7.5,4.1,.8,1.6,1.3,1.8,2.4,.9s2.9-.6,7.7,1.3c3.5,1.4,7.3,2.8,8.6,3.2,1.2,.3,2.2,1.1,2.2,1.6s.9,.9,1.9,.9c2.8,0,17.1,6.8,17.7,8.4,.3,.8,1.3,1.2,2.2,.9,2-.5,17.4,6.4,18.5,8.3,.4,.8,1.6,1.4,2.5,1.4,3,0,13.7,6,14.4,8.1,.5,1.4,1.4,1.9,2.5,1.5,1-.3,2.7,0,3.9,.7,1.2,.6,4.3,2.4,7,3.8,2.7,1.5,5.8,3.6,6.8,4.8,1.1,1.2,2.7,2.1,3.7,2.1s2.1,.5,2.4,1c.4,.6,2.5,2,4.8,3.1,2.3,1.2,4.6,2.8,5,3.5,.4,.8,1.3,1.4,1.9,1.4,2,0,27.1,17.3,36.6,25.3,2.5,2.2,7,5.7,10.1,8,8,5.8,21,17.8,20.8,19-.1,.6,.7,1.3,1.8,1.5,3,.7,18.4,15.3,34,32.3,7.7,8.4,15.9,17.3,18.3,19.8,2.3,2.4,4.2,4.8,4.2,5.2,0,1.5-2.3,2.2-9.8,2.6-9.1,.5-23.7,5-30.7,9.4-2.8,1.7-7.3,5.1-10.2,7.5-2.8,2.4-5.5,4.4-6,4.4-.6,0-10.5-9.5-22.1-21-11.7-11.6-22.3-21.5-23.7-22-1.5-.6-2.5-1.7-2.5-2.9,0-3.8,18.5-18.9,35.3-28.8,4.3-2.5,7.6-4.7,7.4-4.9-.6-.6-9.4,3.4-15.2,6.9-8.5,5.2-15.7,10.8-22.6,17.5-6.9,6.6-10.1,7.7-10.7,3.5-.2-1.2-1.3-2.4-2.6-2.7-3.1-.8-13.6-9.5-13.6-11.2,0-.8-.8-1.4-1.7-1.4-1,0-3.1-.9-4.8-2-1.6-1.1-4.5-3-6.2-4.1-1.8-1.2-3.3-2.7-3.3-3.5s-.8-1.4-1.9-1.4c-1,0-2.9-.8-4.2-1.9-1.3-1-3.9-2.6-5.6-3.5-2-1-3.3-2.4-3.3-3.6,0-1.3-.5-1.8-1.5-1.4-1.7,.7-11-4.9-11.9-7.1-.3-.8-1.4-1.5-2.5-1.5s-4.2-1.4-6.8-3c-2.6-1.7-5.3-3-6-3s-1.5-1.1-1.9-2.4c-.4-1.7-1.1-2.2-2.3-1.9-2.1,.5-12.2-4.3-13.4-6.3-.4-.8-1.7-1.4-2.8-1.4-2.2,0-15.4-6.4-16.4-8-.3-.5-1.5-1-2.6-1-2.8,0-14.9-5.7-14.9-7,0-.5-1.4-1-3.1-1s-3.9-.5-4.9-1c-2.2-1.2-3.6,.3-1.7,1.8,.6,.5,4.4,2.2,8.2,3.7,37.3,14.8,83.5,41.5,115.7,66.9,5,3.9,10.8,8.5,13.1,10.1,2.2,1.7,4.2,3.6,4.4,4.2,.3,.7-1.3,3.1-3.5,5.5-8.9,9.7-25.5,41.6-23.9,46,.3,1,.6,.9,.9-.2,2.5-8,7.4-19.2,11.5-26.3,5.7-9.8,15.4-22.7,17-22.7,2,0,7.6,5.2,30.1,27.7,10,10.1,18.2,19,18.2,19.7s-1.2,2.6-2.6,4.2c-5,5.7-13.1,24.4-11.6,26.9,.4,.5,1-.6,1.5-2.5,1.4-5.4,6.3-15.6,10.6-21.9,13.2-19.4,43.3-32.7,65.9-29,11.2,1.7,22,6,30.7,11.9,4,2.8,18,16.2,18,17.3,0,.4,.8,1.6,1.8,2.7,.9,1.1,1.7,2.4,1.7,2.8,0,.5,1,3,2.3,5.8,1.3,2.7,3.2,7.5,4.1,10.6,1,3.2,2,5.8,2.3,5.8s1.1-.8,1.8-1.7c1-1.4,.4-3.3-3.9-11.7-2.8-5.6-5.4-10.3-5.8-10.4-.5-.2-.8-.9-.8-1.5-.1-.7-2.3-3.9-5-7.2-2.8-3.3-6.9-8.3-9.1-11-2.5-2.9-5-5-6.3-5.1-4-.2-20-8.6-22.6-11.8-12.7-15.8-45.7-51.3-53.8-57.9-1.9-1.5-3-3.2-2.6-3.8,1.1-1.8,7.1-3.9,11.2-3.9,2.1,0,4.3-.5,4.9-1.1,1.7-1.7,28.7-2.4,39.7-1,20.8,2.6,34.9,7.5,53,18.3,22.3,13.3,38,29.2,51,51.5,4.9,8.4,6.3,10.1,5.1,6-2.4-8.1-13.6-24.7-24.5-36.1-14.3-15-30.9-25.8-54.5-35.2-17.6-7.1-44.9-10-65-7-4.9,.8-9.4,1.2-9.8,.9s-1.9,.2-3.2,1.1-4.8,1.8-7.7,2.2l-5.3,.6-8.9-7.8c-24.6-21.6-52.8-42.2-82.2-59.9-19.6-11.8-63.4-33.9-74.7-37.7-1.8-.6-3.6-1.4-4.2-1.8-.9-.8-6.4-2.8-28.5-10.6-10.9-3.9-9.8-3.6-10.3-2.7Z"/>
  <path class="cls-1" d="M758.87,212.76c-1,2.5-1.5,4.8-1.3,5.1,.3,.3,1.3-1.6,2.2-4.2,2.1-6.2,1.3-6.9-.9-.9Z"/>
  <path class="cls-1" d="M776.97,224.36c-2.2,5.4-1.5,6.1,.9,.9,1-2.2,1.6-4.3,1.3-4.6-.3-.2-1.3,1.4-2.2,3.7Z"/>
  <path class="cls-1" d="M754.57,224.26c-.7,1.1-1.2,2.8-1.1,3.7,0,1.1,.7,.5,1.5-1.6,1.7-3.8,1.4-5-.4-2.1Z"/>
  <path class="cls-1" d="M370.07,227.36c.4,1.3,.8,1.8,1.1,1,.2-.7-.1-1.8-.6-2.3-.8-.8-.9-.4-.5,1.3Z"/>
  <path class="cls-1" d="M821.57,231.66c-1.7,3.7-1.5,4.5,.4,1.8,.8-1.2,1.4-2.7,1.2-3.3s-.9,.1-1.6,1.5Z"/>
  <path class="cls-1" d="M751.87,232.26c-.4,1.2-.5,2.4-.2,2.7,.3,.2,.8-.5,1.2-1.7s.5-2.4,.2-2.7c-.3-.2-.8,.5-1.2,1.7Z"/>
  <path class="cls-1" d="M795.87,233.76c-.9,2-1.4,3.9-1.1,4.2s1.2-1.2,2.1-3.2c.8-2.1,1.3-4,1-4.3-.2-.3-1.2,1.2-2,3.3Z"/>
  <path class="cls-1" d="M772.87,234.26c-.4,1.2-.5,2.4-.2,2.7,.3,.2,.8-.5,1.2-1.7s.5-2.4,.2-2.7c-.3-.2-.8,.5-1.2,1.7Z"/>
  <path class="cls-1" d="M817.17,240.46c-4.4,8.4-6.2,13.2-3.4,9.2,1.7-2.4,6.7-13.4,6.1-13.4-.3,0-1.5,1.9-2.7,4.2Z"/>
  <path class="cls-1" d="M769.37,242.86c-1.9,5.1-1.9,5.4-1.4,5.4,.8,0,3.6-7.2,3-7.7-.3-.3-1,.7-1.6,2.3Z"/>
  <path class="cls-1" d="M790.47,245.66c-1.2,2.7-1.9,5.1-1.7,5.3,.7,.8,4.8-7.7,4.3-9-.3-.7-1.4,1-2.6,3.7Z"/>
  <path class="cls-1" d="M837.07,243.46c-3.8,6.3-9.7,16.7-9.7,17.2,0,.2-1.6,3.2-3.6,6.6-2,3.3-3.4,6.3-3.2,6.6,.6,.5,3.3-3.9,8.8-14.1,1.8-3.3,4.8-8.8,6.7-12.3,1.9-3.4,3.2-6.2,2.9-6.2s-1.2,1-1.9,2.2Z"/>
  <path class="cls-1" d="M859.37,249.36c0,.5,.5,.7,1,.4,.6-.3,1-.8,1-1.1,0-.2-.4-.4-1-.4-.5,0-1,.5-1,1.1Z"/>
  <path class="cls-1" d="M357.37,250.66c0,.8,.5,1.8,1,2.1,.6,.3,1-.1,1-.9s-.4-1.8-1-2.1c-.5-.3-1,.1-1,.9Z"/>
  <path class="cls-1" d="M764.97,253.96c-.6,1.4-.5,1.5,.5,.6,.7-.7,1-1.5,.7-1.8s-.9,.2-1.2,1.2Z"/>
  <path class="cls-1" d="M785.97,255.76c-.9,2.6-.7,3.2,.5,1.2,.6-1,.9-2.1,.6-2.3-.2-.3-.7,.2-1.1,1.1Z"/>
  <path class="cls-1" d="M808.87,257.46l-1.6,3.3,2.1-2.4c1.1-1.3,2-2.7,2-3.2,0-1.8-1-.8-2.5,2.3Z"/>
  <path class="cls-1" d="M852.87,259.96c-2.1,3.2-4.6,7-5.6,8.5-1.1,1.5-1.9,3-1.9,3.4,0,.3-2.5,4.6-5.6,9.6-3,4.9-5.3,9.2-5.1,9.4,.2,.3,2.6-3,5.2-7.3s6.2-10.1,8-12.8c3.8-6.1,9.6-16.5,9.2-16.5-.2,0-2.1,2.6-4.2,5.7Z"/>
  <path class="cls-1" d="M337.87,258.26c.4,1.4,1.4,3.2,2.2,4,1.2,1.2,1.1,.7-.2-2-2.2-4.5-2.9-5.2-2-2Z"/>
  <path class="cls-1" d="M784.07,259.96c-.4,.3-.7,1.3-.7,2.2,.1,1.3,.3,1.3,1.1-.2,1.1-1.9,.8-3.3-.4-2Z"/>
  <path class="cls-1" d="M866.17,271.96c-13.5,20.3-16.8,25.5-16.8,26.7,0,.6,.3,.6,.8,0,1.1-1.1,14.6-21.9,18.7-28.8,1.7-2.6,3.8-6.1,4.8-7.7,1.1-1.6,1.7-2.9,1.5-2.9-.3,0-4.3,5.7-9,12.7Z"/>
  <path class="cls-1" d="M293.97,261.56c.3,1,.9,1.5,1.2,1.2s0-1.1-.7-1.8c-1-.9-1.1-.8-.5,.6Z"/>
  <path class="cls-1" d="M805.47,263.96c-1,2.6-1,2.7,.4,.9,.8-1.1,1.5-2.3,1.5-2.8,0-1.5-.7-.8-1.9,1.9Z"/>
  <path class="cls-1" d="M278.27,270.06c.6,1.2,1.6,2.4,2.2,2.8,.8,.4,.8,.1,0-1.4-.6-1.2-1.6-2.4-2.2-2.8-.8-.4-.8-.1,0,1.4Z"/>
  <path class="cls-1" d="M802.87,269.36c-.4,.6-.5,1.2-.2,1.5,.2,.3,.7-.2,1-1.1,.7-1.7,.1-2-.8-.4Z"/>
  <path class="cls-1" d="M300.37,272.26c.6,1.1,1.3,2,1.6,2,.2,0,0-.9-.6-2s-1.3-2-1.6-2c-.2,0,0,.9,.6,2Z"/>
  <path class="cls-1" d="M886.07,276.46c-2,2.9-7.9,11.4-13.1,18.8s-9.2,13.7-8.9,14,1-.3,1.7-1.4c.6-1,2.5-3.7,4.2-6,8.1-11,21-30.6,20.1-30.6-.2,0-2,2.4-4,5.2Z"/>
  <path class="cls-1" d="M384.97,274.16c-.4,.5-.2,1.2,.3,1.5,.5,.4,1.2,.2,1.5-.3,.4-.5,.2-1.2-.3-1.5-.5-.4-1.2-.2-1.5,.3Z"/>
  <path class="cls-1" d="M282.27,276.06c.6,1.2,1.6,2.4,2.2,2.8,.8,.4,.8,.1,0-1.4-.6-1.2-1.6-2.4-2.2-2.8-.8-.4-.8-.1,0,1.4Z"/>
  <path class="cls-1" d="M818.37,277.16c-.6,1.2-.7,2.1-.1,2.1,1,0,2.4-3,1.7-3.7-.2-.3-.9,.5-1.6,1.6Z"/>
  <path class="cls-1" d="M764.47,277.76c.4,1.8,15.5,16.5,21.2,20.5,4.6,3.2-2.1-4.6-9.5-11.1-3.9-3.5-8.3-7.5-9.6-8.9-2.2-2.3-2.4-2.3-2.1-.5Z"/>
  <path class="cls-1" d="M261.87,279.66c1,1.4,1.9,2.6,2.2,2.6,.7,0-1.7-3.9-2.8-4.6-.6-.3-.3,.5,.6,2Z"/>
  <path class="cls-1" d="M305.77,280.76c.8,1.6,2.2,3.9,3.1,5,1.5,1.9,1.5,1.8,.1-1-.8-1.7-2.2-3.9-3.1-5-1.5-1.9-1.5-1.8-.1,1Z"/>
  <path class="cls-1" d="M287.37,284.06c.6,1.3,1.4,2.1,1.8,1.8,.3-.4-.2-1.4-1.2-2.4q-1.8-1.6-.6,.6Z"/>
  <path class="cls-1" d="M355.67,290.16c-8.9,4.4-17.1,8.2-18.2,8.6-1.2,.3-2.1,1.3-2.1,2.1,0,1.9,.1,1.9,6.9-2.1,3.2-1.9,7.1-3.5,8.5-3.5s2.9-.6,3.3-1.4,4.9-3.5,9.8-6.1c9.6-5,10.3-5.5,8.9-5.5-.5,0-8.2,3.6-17.1,7.9Z"/>
  <path class="cls-1" d="M903.47,288.56c-2.2,3-4.5,6-5.3,6.8-.7,.8-2.9,3.6-4.8,6.2s-6.1,8.2-9.2,12.4c-3.2,4.1-5.8,7.8-5.8,8.2,0,1,4.7-4.2,8.2-9,1.8-2.6,7.1-9.8,11.8-16,9.4-12.4,10.4-13.9,9.6-13.9-.3,0-2.3,2.4-4.5,5.3Z"/>
  <path class="cls-1" d="M268.37,288.96c1.3,1.8,2.5,3.3,2.7,3.3,.8,0-1.7-3.8-3.3-5.1-1.1-.9-.9-.2,.6,1.8Z"/>
  <path class="cls-1" d="M292.37,290.86c0,.6,.7,1.9,1.5,3,.8,1,1.4,1.4,1.4,.9,0-.6-.6-1.9-1.4-2.9-.8-1.1-1.5-1.5-1.5-1Z"/>
  <path class="cls-1" d="M224.07,302.36c3.3,4.6,7.4,9.2,7.8,8.7,.3-.2-1.8-2.9-4.6-5.9s-4.2-4.2-3.2-2.8Z"/>
  <path class="cls-1" d="M278.37,302.96c0,.6,.8,1.7,1.8,2.4q1.6,1.3,.2-.6c-.8-1.1-1.6-2.2-1.7-2.4-.2-.2-.3,0-.3,.6Z"/>
  <path class="cls-1" d="M254.37,304.16c0,.5,.7,1.5,1.7,2.2,1.5,1.3,1.5,1.2,.4-.9-1.2-2.3-2.1-2.8-2.1-1.3Z"/>
  <path class="cls-1" d="M318.37,306.96c-.6,1.5-2.5,5.5-4.2,8.8-2.3,4.3-2.6,5.6-1.3,4.5,1-.8,2.7-3.5,3.8-5.9,1-2.4,2.8-4.6,3.9-4.9,1.2-.3,1.8-1.2,1.6-2.5-.5-3.2-2.7-3.2-3.8,0Z"/>
  <path class="cls-1" d="M914.87,310.46c-2.7,3.3-8,9.7-11.7,14-5.9,6.9-7.8,9.8-6.4,9.8,.2,0,3-3.3,6.1-7.3,3.2-3.9,6.3-7.7,6.9-8.2,1-.9,6.9-8.1,10.5-12.8,.7-.9,1-1.7,.5-1.7s-3.1,2.8-5.9,6.2Z"/>
  <path class="cls-1" d="M788.97,312.26c-.5,1.4-2,3.7-3.4,5.2-4.5,4.9-11,3.3-18.2-4.5-1.1-1.1-2.2-1.8-2.5-1.5s1.9,2.8,5,5.6c5.7,5.2,10.2,7,14.9,5.8,2.5-.6,6.1-8.1,5.4-11.3-.3-1.4-.6-1.3-1.2,.7Z"/>
  <path class="cls-1" d="M819.07,311.96c-.4,.3-.7,1.7-.7,3v2.3l2-2c1.1-1.1,2-2.5,2-3,0-1.1-2.3-1.4-3.3-.3Z"/>
  <path class="cls-1" d="M260.37,312.66c0,.2,.8,1,1.8,1.7,1.5,1.3,1.6,1.2,.3-.4s-2.1-2.1-2.1-1.3Z"/>
  <path class="cls-1" d="M324.37,312.56c0,1.2,10.3,18.7,10.8,18.3,.5-.6-7.4-15.6-9.4-17.6-.8-.8-1.4-1.1-1.4-.7Z"/>
  <path class="cls-1" d="M357.37,314.66c0,.9,.8,1.6,2,1.6,1,0,2.3,.8,2.9,1.7,.9,1.7,1,1.7,1.7,0,.8-2.2-.2-3.3-3.8-4.2-2.2-.6-2.8-.4-2.8,.9Z"/>
  <path class="cls-1" d="M234.97,315.26c1.2,2.3,12,15.4,14,17.1,1,.8,.4-.6-1.4-3.1-3.6-5-13.8-16.4-12.6-14Z"/>
  <path class="cls-1" d="M833.37,317.76c0,2.4,.1,2.4,1.8,.7,2.1-1.9,1.9-3.2-.4-3.2-.8,0-1.4,1-1.4,2.5Z"/>
  <path class="cls-1" d="M354.37,321.06c0,1.2,1.9,2.6,2.6,1.9,.2-.2-.2-1-1.1-1.7-.9-.8-1.5-.8-1.5-.2Z"/>
  <path class="cls-1" d="M295.77,328.46q-2,2.3,3,.2c.8-.3,2.4,.4,3.5,1.5,1.2,1.2,2.4,2.1,2.7,2.1,1.3,0-2-3.2-4.7-4.5-2.4-1.3-2.8-1.2-4.5,.7Z"/>
  <path class="cls-1" d="M845.97,329.76c-2.4,2.4-1.3,3,1.8,1,2.7-1.8,4.6-1.3,4.6,1.1,0,.8,2.5,4,5.5,7,3,3.1,5.8,6.7,6.1,8,.4,1.5,1.3,2.4,2.5,2.4s2.3,1,2.9,2.5c.5,1.4,1.6,2.5,2.5,2.5,1.7,0,2-1.6,.5-2.5-.6-.4-2.1-2.4-3.5-4.4-1.3-2.1-2.9-4.4-3.7-5.2-1.9-2.1-8.7-11-9-12-.2-.4-2.1-1.1-4.4-1.5-3.1-.5-4.5-.2-5.8,1.1Z"/>
  <path class="cls-1" d="M293.07,331.96c-.4,.3-.7,1.1-.7,1.7s.5,.5,1.2-.2c.6-.6,.9-1.4,.7-1.7-.3-.3-.9-.2-1.2,.2Z"/>
  <path class="cls-1" d="M336.37,334.76c0,1.8,1.9,4,2.6,3.2,.4-.4,0-1.5-.9-2.4-.9-1-1.7-1.3-1.7-.8Z"/>
  <path class="cls-1" d="M831.57,336.76c0,1.6,.2,2.2,.5,1.2,.2-.9,.2-2.3,0-3-.3-.6-.5,.1-.5,1.8Z"/>
  <path class="cls-1" d="M279.67,336.96c-.7,.2-1.3,.9-1.3,1.5,0,1.2,4.1,.6,4.1-.7,.1-1.2-1.1-1.5-2.8-.8Z"/>
  <path class="cls-1" d="M286.57,339.06c-1.8,1.5-3.2,3.1-3.2,3.6s-.8,1.8-1.7,2.9c-1,1.1,.8,.1,4-2.2,3.1-2.4,5.7-5,5.7-5.7,0-2-1.1-1.7-4.8,1.4Z"/>
  <path class="cls-1" d="M817.37,337.26c0,.5,1.1,1,2.5,1s2.5-.5,2.5-1c0-.6-1.1-1-2.5-1s-2.5,.4-2.5,1Z"/>
  <path class="cls-1" d="M296.97,338.16c-.3,.5,.4,1.1,1.6,1.4,2.5,.7,3.3,.3,2.3-1.2-.8-1.3-3.2-1.4-3.9-.2Z"/>
  <path class="cls-1" d="M267.37,343.26c0,2.5,1.1,2.5,4.1,0l2.4-1.9-3.2-.1c-2.6,0-3.3,.4-3.3,2Z"/>
  <path class="cls-1" d="M825.77,346.96l-2.8,3.8,3.4-2.6c3.5-2.6,4.9-4.9,3.2-4.9-.5,0-2.2,1.7-3.8,3.7Z"/>
  <path class="cls-1" d="M302.37,350.66c0,.9,.7,1.6,1.6,1.6s1.4-.5,1.2-1.2c-.6-1.8-2.8-2.1-2.8-.4Z"/>
  <path class="cls-1" d="M249.37,350.76c0,.4,2.1,3.5,4.8,6.9,8.7,11.1,15.8,24,21.6,39.1,2,4.9,3.5,8.2,3.6,7.3,0-1.9-4.3-14.2-6.5-18.5-.8-1.5-1.5-3.2-1.5-3.6,0-1.3-9.7-17.4-13.9-23-4-5.4-8.1-9.6-8.1-8.2Z"/>
  <path class="cls-1" d="M803.47,354.86c10.4,11.6,14.9,25.6,14.1,43.4-.1,3.3-1.2,6-3.7,9.9-3.8,5.8-3.9,8-.1,4,5-5.2,7.1-20.4,4.5-31.6-2.9-12.2-8.4-22.4-14-26.3l-3.4-2.3,2.6,2.9Z"/>
  <path class="cls-1" d="M307.37,355.86c0,.8,.5,1.2,1,.9,.6-.4,.8-1.1,.5-1.6-.9-1.4-1.5-1.1-1.5,.7Z"/>
  <path class="cls-1" d="M840.47,355.66c-.9,1.1,0,2.5,4.6,6.8,13.7,13,15.3,14,15.3,9.8,0-1.1-1-2-2.8-2.3-1.9-.4-3.8-2-5.6-4.8-2.6-3.9-9-10.9-9.9-10.9-.3,0-1,.6-1.6,1.4Z"/>
  <path class="cls-1" d="M280.37,356.16c0,.5,.5,1.3,1,1.6,.6,.3,1,.2,1-.4,0-.5-.4-1.3-1-1.6-.5-.3-1-.2-1,.4Z"/>
  <path class="cls-1" d="M863.47,357.66c-.7,.8-1.1,3-.9,4.8l.4,3.3,1.8-3.9c1.8-4.1,1-6.9-1.3-4.2Z"/>
  <path class="cls-1" d="M284.37,362.96c0,1,5.2,9.3,5.9,9.3,.3,0,1.2-.9,1.9-2,1-1.7,1-2-.3-2-2,0-3-2.7-1.7-4.3,.9-1,.4-1.3-2.3-1.4-1.9-.1-3.5,.1-3.5,.4Z"/>
  <path class="cls-1" d="M298.27,365.96c-1.3,1.6-1.2,1.7,.4,.4s2.1-2.1,1.3-2.1c-.2,0-1,.8-1.7,1.7Z"/>
  <path class="cls-1" d="M300.37,370.66c0,.8,.5,1.8,1,2.1,.6,.3,1-.3,1-1.4,0-1.2-.4-2.1-1-2.1-.5,0-1,.6-1,1.4Z"/>
  <path class="cls-1" d="M347.17,371.26c-3.7,1.1-8.6,4.7-10,7.3-1,1.9-.7,1.9,2.3-.6,1.9-1.5,5.7-3.9,8.4-5.2,4.9-2.4,4.6-3.1-.7-1.5Z"/>
  <path class="cls-1" d="M292.37,380.26c0,.5,.7,1,1.6,1,.8,0,1.2-.5,.9-1-.3-.6-1-1-1.6-1-.5,0-.9,.4-.9,1Z"/>
  <path class="cls-1" d="M1129.57,382.46c.6,1.8,1.7,4.2,2.5,5.3,1.2,1.8,1.3,1.8,1.3,.1s-3.6-8.6-4.5-8.6c-.2,0,.1,1.5,.7,3.2Z"/>
  <path class="cls-1" d="M1133.37,390.66c0,.3,.6,2.5,1.4,4.8,.8,2.4,2,7.6,2.7,11.5,.7,4,1.6,7.3,2.1,7.3,.9,0,.8-.7-2.3-13.8-1.1-5.1-2.5-9.5-3-9.8s-.9-.3-.9,0Z"/>
  <path class="cls-1" d="M332.57,394.76c0,1.6,.2,2.2,.5,1.2,.2-.9,.2-2.3,0-3-.3-.6-.5,.1-.5,1.8Z"/>
  <path class="cls-1" d="M139.97,401.86c-4.5,2.3-9.6,6.6-9.6,8.1,0,.3,1.8,.3,4.1,0,4.1-.5,4.2-.4,11.5,7.1,4.1,4.2,7.4,8.6,7.4,9.6,0,1.1-2.8,4.6-6.6,8l-6.5,6.1,7.5,8c4.2,4.4,7.6,8.7,7.6,9.5,0,.9-1.5,3.1-3.3,5-4.3,4.5-18.7,21-18.7,21.5,0,2.3,2.3,5.5,4,5.5,1.6,0,2-.7,2-3.3,0-2.9,1.7-5.3,12.6-17l12.5-13.7-2.1-2.9c-1.1-1.6-4.3-5-7.1-7.5-3.1-2.8-4.9-5.2-4.7-6.3,.2-.9,2.9-3.7,6.1-6.1,8.4-6.4,8.4-7.4-.9-18.1-4.3-5-8.2-9.1-8.7-9.1s-.7-1.6-.4-3.5c.7-4.2-.1-4.3-6.7-.9Z"/>
  <path class="cls-1" d="M866.07,401.56c-.4,1-.7,2.8-.7,4,.1,2,.2,2,1.1,.4,.6-1,.9-2.8,.7-4-.3-2-.4-2-1.1-.4Z"/>
  <path class="cls-1" d="M1026.87,402.46c-1.9,4.4-4.4,4.8-31.7,4.8-18,0-25.8,.3-25.8,1.1,0,.6,1,1.3,2.2,1.7,2.1,.5,2.1,.7,1.5,19-.5,14.4-1,18.9-2.2,20.2-1.7,1.9-2,4-.5,4,1.7,0,14-6.4,14-7.3,0-.5-.9-1.1-2-1.4-2-.5-2-1.2-1.8-15.2l.3-14.6,8-1.6c11.5-2.5,13.1-2.4,15.2,.8,1.4,2.2,1.7,4.5,1.5,12-.2,8.8-.1,9.3,1.8,9.3,1.1,0,4.3-1.6,7.1-3.5,8-5.5,10.8-4.6,11.5,3.6,.5,5.1,.3,5.7-3.8,11.1-3.1,4.1-6.3,6.8-11.4,9.7-4,2.3-7.9,5.2-8.8,6.6-2,3-2.1,12.4-.2,15,1.2,1.7,1.9,1.7,8.1,.7,3.7-.6,7.5-1.8,8.4-2.6,2.4-2.2,4.4-9.7,3.5-13.2-1.1-3.8-.7-5.3,2.1-8.6,1.3-1.5,2.6-3.8,3-5,.4-1.3,2-5.8,3.7-10,3.2-8.2,3.2-12.2,0-13.2-.9-.3-4.8-.8-8.7-1.1-8-.8-9.6-1.8-9.7-6.5-.2-5.4,2.8-7,12.8-7,7.3,0,8.5,.3,9.6,2,1.2,1.8,4.4,3,3.6,1.2-.9-2.1-9.2-14.2-9.7-14.2-.4,0-1.1,1-1.6,2.2Zm-13.5,66.3c0,3.9-2.1,5.5-4.5,3.5-2.9-2.4-1.1-7,2.7-7,1.4,0,1.8,.8,1.8,3.5Z"/>
  <path class="cls-1" d="M280.37,411.36c0,.8,.7,6.5,1.6,12.7,.9,6.5,1.4,15.9,1.2,22.2-.2,6.1,0,11,.3,11s1.3-.8,2.2-1.8c1.2-1.3,1.7-3.7,1.7-8,0-6.6-.5-6.1,6.5-7.5,1.1-.3,.4-.5-1.5-.6-6.1-.2-8-2.3-8-8.9-.1-5.9-2.2-18.7-3.3-19.9-.4-.3-.7,0-.7,.8Z"/>
  <path class="cls-1" d="M863.67,417.26c0,2.5,.2,3.5,.4,2.2,.2-1.2,.2-3.2,0-4.5-.2-1.2-.4-.2-.4,2.3Z"/>
  <path class="cls-1" d="M1139.57,419.26c-.1,2.2,.2,4,.7,4,.9,0,.8-6.6-.1-7.5-.3-.3-.5,1.3-.6,3.5Z"/>
  <path class="cls-1" d="M4.97,428.36c-.3,1.7-.5,7.9-.4,13.8l.1,10.6,.8-13.5c.4-7.4,.6-13.6,.4-13.8-.1-.1-.5,1.2-.9,2.9Z"/>
  <path class="cls-1" d="M1140.77,435.06c.1,10-1.6,26.7-3.4,33.7-4.4,17-12.1,34.6-17.6,40.6-1.3,1.4-2.4,3.2-2.4,4,0,2.3-6.9,9.9-8.4,9.3-1.7-.6-2.1-1.6-9.7-19.8-3.3-8.2-10.7-24.2-16.4-35.5-8.2-16.5-10.2-21.2-9.8-23.7,.3-1.8,0-3.5-.6-3.8-.7-.5-1.1,.7-1.2,3.6,0,4.6-2,16.2-3.7,21.6-1,3.1-1,3.2,1,1.7,2.2-1.4,4.8-.5,4.8,1.7,0,.5,3.1,7.3,6.9,15.1s9,19.4,11.6,25.7,5.8,14.1,7.1,17.3,2.4,6.5,2.4,7.2c0,1.4-3.5,4.4-18.8,15.7-8.3,6.3-28.2,16.8-31.7,16.8-1.1,0-2.6-.5-3.3-1.2-.9-.9-1.2-.7-1.2,1,0,2.8-1.5,3.5-14.5,6.3-9.6,2.1-13.6,2.4-31,2.4s-21.3-.3-30-2.4c-44.9-10.6-81.3-42.1-98.5-85.1-3.8-9.5-3.9-9.6-3.9-7.9-.1,.8,1.1,4.8,2.5,8.7,10.7,29.8,35.7,57.9,66.4,74.5,29,15.7,69,19.9,101.8,10.7,4-1.1,7.7-1.8,8.2-1.5,1.1,.7,6.6,18,9.2,29,4.2,18.2,5,21.7,7.7,38,4.4,25.4,7.1,54.7,7.1,77,0,9,.4,13.5,1.1,13.5,.6,0,.9-1.8,.8-4.5-.5-7.8-1.1-7.7,31.5-8.3,21.1-.4,28.9-.2,30,.7,1.8,1.5,1.1,18.1-1,19.7-1.1,.9-1,1.3,.3,2.6s1.4,2.8,.7,8.9l-.9,7.4-4.5,.6-4.5,.5,3.7,.8c2.1,.4,4.2,1.4,4.8,2.1,1.4,1.7,.1,18.5-1.5,19.2-.7,.2-7.7-.2-15.6-1.1-7.9-.8-20.8-2.1-28.7-2.7-17.3-1.6-17.4-1.7-16-10.9,.6-3.6,1.2-7,1.4-7.7,.2-.9,5.3-1.1,20.1-.8l19.8,.4-19-1.7c-10.4-.9-19.6-2.1-20.2-2.5-1.2-.8-1.2-12.1,0-13.3,.3-.3,13.3-.6,28.9-.6l28.3-.1-27.6-1.1c-20.5-.8-28-1.4-29.2-2.5q-2.3-1.9-4.2,22.9c-.9,11.8-1.8,23.7-2.1,26.5-.5,3.9-.3,4.7,.6,3.8,.7-.6,1.5-3.2,1.7-5.7,.3-2.5,1.1-5,1.8-5.6,.9-.7,4.5-.7,11.6,0,5.7,.5,18.5,1.7,28.4,2.6,10.3,.9,18.5,2.2,19.3,2.8,1.8,1.7,0,17.5-2.2,19.1-1.1,.8-1.2,1.5-.5,2.2,1.3,1.3-.5,17.1-2.1,18.7-.6,.6-3.4,.5-7.7-.4-8.4-1.5-13.1-.9-5.5,.8,2.9,.7,6.6,1.2,8.1,1.2,1.6,0,3.4,.7,4.1,1.5,1.2,1.4,1.1,2.1-1,12.5-.5,2.5-1.2,5.7-1.5,7.2s-1.4,2.9-2.5,3.3c-1.8,.6-1.9,.8-.4,2.2,1,1,1.3,2.4,.9,3.7-.4,1.2-1.1,4.3-1.6,7.1s-1.6,5.6-2.6,6.3-1.6,2.1-1.5,3c.2,.9,.1,4.5-.3,7.9-.9,8.1-2.2,9-9.8,6.3-6.2-2.2-9.2-2.6-6.7-1,.8,.5,3.9,1.7,6.8,2.5,2.9,.9,5.5,2.1,5.7,2.8s-1.1,5.5-2.8,10.7c-4,11.5-5.1,12-11.6,5.7-4.8-4.6-12.9-10.2-13.8-9.4-.2,.3,1.7,2.2,4.3,4.3,9.1,7.4,15.4,13.7,15.4,15.4,0,1-.9,3.9-2.1,6.6-3.3,8-3.6,8.8-5,12.4-1.9,5.5-11.6,27.5-16.9,38.5-2.7,5.5-5.1,10.8-5.4,11.9-.5,1.4-1.2,1.7-3.1,1.2-3-.8-3-.3-1,7.9,2.1,8.8,1.9,25.5-.4,33.7-5.8,20.2-18.8,35.8-37.4,44.7-10.9,5.3-18.6,7.1-29.8,7.1s-19.9-2-30.4-7c-18-8.6-32.7-26.3-37-44.5-.4-1.7-1-2.4-1.2-1.6-1.1,2.8,4.5,17.1,9.4,24.4l2.6,3.8-8.9,9.2c-10.3,10.6-36.6,35.7-38.8,36.9-.8,.4-2.2,.5-3,.2-2.1-.8-13.5-18-17.6-26.4-6-12.4-9-19.6-9-21.8-.1-.9-.7-3.1-1.6-4.7l-1.4-3,.5,3.5c1.7,10.8,11.7,32.5,21,45.5,3.6,4.9,6.5,9.5,6.5,10.1s-3.3,3.5-7.2,6.5c-10.1,7.5-13.9,10.9-13.2,12,.3,.5,1.5,.2,2.7-.6s2.9-1.5,3.9-1.5,1.8-.8,1.9-1.8c0-1.6,9.2-9.6,12.4-10.8,.7-.3,1.8,.1,2.3,.8,.6,.7,4,4.7,7.5,8.8,5.6,6.6,6.7,7.5,9.8,7.5,2.5,0,5.6,1.5,11.9,5.9,4.7,3.3,11.8,7.5,15.8,9.3,3.9,1.9,7.2,3.9,7.2,4.6,0,1.9-9.9,9.9-11.5,9.3-1-.3-1.5,.1-1.5,1.3,0,1-2.5,3.8-5.5,6.2s-5.7,4.9-6,5.6c-.3,.9-1.3,1.1-3,.7-2-.5-2.5-.3-2.5,1.3,0,1.3-2.1,3.5-6,6.2l-6.1,4.3,2.8,3.3c1.6,1.9,3.4,3.4,4.2,3.4,1.9,.1,18-12.4,33.8-26.2,7.4-6.4,14.3-11.7,15.4-11.7s3.6,.7,5.7,1.6c2,.9,5.3,1.7,7.2,1.9,1.9,.1,8.9,.8,15.4,1.5,45.5,4.5,92.2-14.8,121.6-50.5,14.3-17.4,25.2-39.6,29.6-60.4,1.9-9.1,1.7-14.5-.2-6.6-5.1,20.7-7.2,26.8-13.6,38.7-7.2,13.5-13.4,22.2-23.4,32.7-20,21-41.7,33.5-71.4,40.9-9.6,2.4-12.2,2.6-31.7,2.7-15.7,0-21.5-.3-22.5-1.3-.6-.6-2.9-1.2-5-1.2-4.7,0-8.8-1.8-8.7-3.9,.1-.9,3.6-4.8,7.8-8.6,8.7-8,30-31.2,42.3-46,7.2-8.7,9.3-10.5,15.8-13.9,4.1-2.1,8.5-3.9,9.6-4,4.2-.2,21.4-20.9,25.9-31.1,.9-2.2,3.1-6.7,4.7-10.1,2.6-5.1,2.9-6.4,1.9-8.3-.7-1.2-.9-2.6-.5-3.2,.3-.6,.6-4,.6-7.5,0-6.1,.4-7.2,8.2-22.7,4.6-8.9,9.8-19.6,11.6-23.7,1.7-4.1,4-9.3,5-11.5,5.4-11.7,8.2-18.7,9.7-24,1.1-3.6,2.5-4.7,5.6-4.1l2.8,.6-2-2.6c-2.7-3.4-2.7-3.7,1-14.6,4.3-12.9,9.6-30.8,12-40.3,1.1-4.4,2.4-9.6,2.9-11.5s1.2-6,1.5-9c.4-3,1.2-7.1,2-9,.7-1.9,1.8-6.9,2.5-11,.6-4.1,1.8-10.7,2.5-14.5,5.3-26.9,8.3-94.9,5.5-124.5-.5-5.8-1.2-13.7-1.5-17.5-1.6-19.9-6.4-50.2-11.6-72.9-4.1-17.9-9.1-36.3-10.9-41.1-.5-1.1-2.2-6.5-4-12-1.7-5.5-3.7-11.2-4.5-12.7-2.2-3.8-2-4.6,2.8-10.2,11-13,21.9-36.9,26.3-57.6,1.8-8.4,3.1-38.5,1.7-39.3-.7-.5-1,2.6-.9,9.1Zm-37,104.4c.2,.7,1.7,5.4,3.3,10.5,2.2,6.5,2.7,9.5,2,10.2-.8,.8-.5,1.5,1,2.6,1.1,.8,2.3,2.7,2.6,4.2,.3,1.6,1.3,5.5,2.2,8.8,1,3.3,1.8,7.6,1.8,9.5s.6,3.9,1.2,4.5c1.4,1.2,4.8,18.2,3.9,19.6-.3,.6,.2,1.9,1.1,2.9,2,2.2,4.2,17.7,2.8,19.1-.5,.5-5,1.6-9.9,2.5-10.5,1.8-12.7,3-3.4,1.9,3.6-.5,8.5-.9,11-.9l4.4-.1,1.4,9c1,6.3,1.1,9.5,.3,10.7-.7,1.2-.7,1.9,.3,2.7,.7,.6,1.6,3.7,1.9,6.9,.4,3.1,1,6.9,1.3,8.4,.9,3.8-1.3,4.5-18.6,5.7-8,.6-20.2,1.6-27.3,2.3-15.4,1.5-15.5,1.4-15.9-8.7-.4-8.3-1.1-7.8,16.2-9.5,6.3-.7,15.3-1.8,20-2.5s10.7-1.6,13.3-2c2.7-.4,4.7-.9,4.4-1.1-.6-.6-38,3.3-49.2,5.1-2.9,.5-4.4,.3-5.2-.7-1.5-1.8-3.7-15.8-2.7-16.7,.5-.4,6.8-1.8,13.9-3,20.9-3.6,24.5-4.5,21-4.9-1.6-.2-5.2,.1-8,.6-2.7,.6-9.7,1.8-15.4,2.7-9.1,1.5-10.5,1.5-11.8,.2-1.6-1.5-4.1-15.3-3-16.3,.4-.4,3.7-1.2,7.4-1.9,9.6-1.8,45.7-9.7,46.2-10.1,1.5-1.3-3.1-.6-26.4,4.1-16.6,3.3-26.6,4.9-27.7,4.4-1.4-.8-2.8-4.7-4.5-13-.3-1.5,.1-3,.9-3.6,.7-.6,9.6-3.2,19.8-5.8,28.9-7.4,32.1-8.3,32.8-8.9,1-1.1-3-.6-8.2,.9-12.8,3.7-42.8,10.6-44.8,10.3-1.8-.2-2.5-1.3-3.5-5.3-.6-2.8-1.7-6.9-2.4-9.3-1.3-4.6-.2-7.2,3.1-7.2,.9,0,7-1.7,13.6-3.8,6.5-2.1,15.9-5.1,20.8-6.6,11.4-3.5,14-4.5,13.3-5.2-.5-.5-10.6,2.2-19.2,5.1-2.2,.7-10.5,3.3-18.4,5.6-13.9,4.2-14.4,4.2-15.7,2.4-2.4-3.2-1.8-6.4,1.4-7.1,8.1-2,30.3-15.4,41-24.8,6.3-5.6,9-6.8,9.6-4.4Zm30,147.5c.3,4.2,.2,8.1-.2,8.5-1.1,1.1-4.9,1.5-24.7,2.2-21.8,.9-31.8,1.7-30.8,2.6,.4,.4,10,.1,21.3-.7,11.3-.7,23.7-1.2,27.5-1.1l7,.3,.9,6.8c.5,4.3,.5,7.2-.1,7.8-1.4,1.4-58,2.8-60.1,1.6-.5-.4-1.2-3-1.5-5.9-.4-4-.1-5.7,1.1-7.1,1.5-1.7,1.5-1.9-.1-2.8-1.3-.8-1.7-2.4-1.7-7.9,0-3.8,.4-7.1,.8-7.4,.4-.2,10-1.2,21.2-2.1,11.3-.9,21-1.8,21.5-2,.6-.2,4.6-.4,9.1-.4l8.1-.1,.7,7.7Zm-182.7,374.4c10.1,10.9,29.1,19.5,45,20.3,12.2,.6,12.5,1.1,5.5,8.8-2.7,2.9-7.7,8.4-11.2,12.3-3.4,3.8-13.3,14.1-21.9,22.7-11.2,11.4-16.2,15.8-17.9,15.8-2.6,0-20.4-8.8-27.2-13.4-12.7-8.8-27.3-22.2-26.3-24.1,.5-.7,4.4-4.4,8.8-8.1,4.4-3.8,15-13.9,23.5-22.5,8.5-8.7,16-15.8,16.7-15.8,.7-.1,2.9,1.7,5,4Z"/>
  <path class="cls-1" d="M861.57,433.46c-.1,2.5-.8,4.2-2.1,5-1.5,.9-1.7,1.5-.9,2.6,.7,.8,1,5.8,.9,13.7-.2,11.7,.4,14.7,2.4,11.4,.4-.6,1.4-.8,2.2-.5,1.2,.5,1.4,0,.9-2.6-.5-3-2.1-18.7-2.9-29.3l-.4-4-.1,3.7Z"/>
  <path class="cls-1" d="M929.77,435.86c-.3,2.5-.2,6.9,.3,9.7,1,5,1,4.9,1.2-4.6,0-5.3-.1-9.7-.3-9.7-.3,0-.8,2.1-1.2,4.6Z"/>
  <path class="cls-1" d="M1071.57,433.26c0,1.4,.2,1.9,.5,1.2,.2-.6,.2-1.8,0-2.5-.3-.6-.5-.1-.5,1.3Z"/>
  <path class="cls-1" d="M932.47,458.26c0,1.4,.4,3.2,.9,4,.8,1.2,1,1.2,.9-.5,0-1.1-.4-2.9-.9-4-.8-1.8-.9-1.8-.9,.5Z"/>
  <path class="cls-1" d="M6.37,465.86c0,5.5,4.9,22.5,5,17.3,0-1.7-4-18.2-4.6-18.8-.2-.2-.4,.4-.4,1.5Z"/>
  <path class="cls-1" d="M934.87,466.96c1.4,6,9,17,17.4,25.3,6.8,6.8,10.4,9.4,17.1,12.7,12.8,6.2,15.6,6.8,32,6.5,8-.1,16.3-.3,18.4-.4,3.9-.3,4-.2,7.3,6.1,1.9,3.5,4.1,8.3,5,10.5,.8,2.3,2.1,5.4,2.8,7.1,2.9,6.7,6.4,16.3,7.6,20.5,1.1,4.2,3.9,8.7,3.9,6.4s-14.8-40-18.6-47.6l-2.4-4.7,2.2-1.5c1.2-.9,2.8-1.6,3.4-1.6,2.8,0,16.5-10.3,22.9-17.2,6.5-6.9,13.5-18.1,12.2-19.4-.3-.3-1.9,1.8-3.6,4.8-4.2,7.3-12.9,16.9-20.5,22.3-27,19.2-63.2,17.2-87.2-4.8-7.9-7.2-13.2-14.2-16.8-22-2.7-6.1-4.2-7.5-3.1-3Z"/>
  <path class="cls-1" d="M865.37,469.46c0,1.5,.5,3,1,3.3,1.3,.8,1.3-2.5,0-4.5-.8-1.2-1-.9-1,1.2Z"/>
  <path class="cls-1" d="M117.17,519.46c-1.5,2.9-2.9,6.6-3.2,8.3-.4,1.7,.9-.2,2.9-4.4,4.1-8.5,4.3-11.9,.3-3.9Z"/>
  <path class="cls-1" d="M109.57,537.66c-1.2,2.7-2.2,5.4-2.2,6.1,0,.8-.6,2.6-1.4,4.2-2.3,4.5-6.6,16.7-6.6,18.6,0,2.6,1.7,1.2,2.4-2,.7-2.9,4.1-12.3,8.3-23.1,2.9-7.6,2.5-10.7-.5-3.8Z"/>
  <path class="cls-1" d="M181.87,586.06c-7.3,2.2-12.8,5.7-15.1,9.7q-1.7,2.9,2.5-.8c5.7-5.1,12.2-7.8,20.3-8.4,10.1-.8,14.9,.3,21.9,4.9,5.1,3.5,7.2,4.2,11.8,4.4,5.4,.3,5.5,.3,1.5-.6-2.3-.4-5.9-1.8-8-2.9-12.8-6.7-14.9-7.4-21.8-7.8-4.8-.2-9.1,.3-13.1,1.5Z"/>
  <path class="cls-1" d="M1016.97,586.36c-3.4,2.7-2.8,3.4,1.1,1.4,3.2-1.6,6.3-1.1,6.3,.9s2,3.4,4.1,2.9c2.5-.7,2.5-2.3-.1-2.3-1.1,0-2.7-1.1-3.6-2.5-2-3.1-4.3-3.2-7.8-.4Z"/>
  <path class="cls-1" d="M92.67,587.96c-.6,1.5-1.7,5-2.5,7.8-1.2,4.2-1.8,5-4.1,5.3l-2.7,.3,2.8,2.4c1.5,1.3,2.8,2.2,2.9,2.1,.6-.6,5.4-19.8,5-20.2-.2-.3-.9,.8-1.4,2.3Z"/>
  <path class="cls-1" d="M943.37,587.66c-1.9,.6-6.5,2.8-10.1,4.9-3.6,2-7.8,3.7-9.2,3.7s-2.9,.5-3.3,1.2c-1.6,2.5,7.9-.2,14.6-4.2,3.8-2.3,8.7-4.4,11-4.7,2.2-.3,4-1,4-1.4,0-1.2-2.6-1-7,.5Z"/>
  <path class="cls-1" d="M954.87,587.26c.3,.5,1.9,1,3.4,1,5.6,0,13.2,3.1,18.8,7.7,5.3,4.3,5.5,4.4,3.3,1.4-2.9-4.2-6.9-6.6-14.9-9.1-6.8-2.2-11.6-2.6-10.6-1Z"/>
  <path class="cls-1" d="M32.37,588.56c0,.2,3.3,1.2,7.3,2.1,3.9,1,9,2.3,11.2,3.1,2.2,.7,9.2,2.5,15.5,4,15.2,3.5,15.4,3.5,14.4,2.6s-39.6-11-45.1-11.8c-1.8-.3-3.3-.3-3.3,0Z"/>
  <path class="cls-1" d="M118.17,588.96c.7,.3,1.6,.2,1.9-.1,.4-.3-.2-.6-1.3-.5-1.1,0-1.4,.3-.6,.6Z"/>
  <path class="cls-1" d="M111.37,592.36c0,.5,.5,.7,1,.4,.6-.3,1-.8,1-1.1,0-.2-.4-.4-1-.4-.5,0-1,.5-1,1.1Z"/>
  <path class="cls-1" d="M1031.97,598.76c-5,2.5-9.6,6.2-9.6,7.6,0,.5,1.7-.2,3.7-1.4s6-3.1,8.8-4.3c4.8-1.9,6.1-3.7,3.3-4.1-.7-.1-3.5,.9-6.2,2.2Z"/>
  <path class="cls-1" d="M269.37,602.36c0,.5,.5,.7,1,.4,.6-.3,1-.8,1-1.1,0-.2-.4-.4-1-.4-.5,0-1,.5-1,1.1Z"/>
  <path class="cls-1" d="M273.97,606.86c-.4,1.5-.4,2.9-.1,3.2,1,1.1,3.8-2.6,3.2-4.2-.9-2.4-2.4-1.9-3.1,1Z"/>
  <path class="cls-1" d="M881.87,608.26c2.1,2.2,4.3,4,4.8,4,.4,0-.7-1.8-2.4-4-1.8-2.2-3.9-4-4.8-4-1,0-.1,1.4,2.4,4Z"/>
  <path class="cls-1" d="M261.87,609.26c-1,1.1-1.3,2-.8,2,1.3,0,3.8-2.9,3.1-3.5-.3-.3-1.3,.4-2.3,1.5Z"/>
  <path class="cls-1" d="M86.47,612.06c-.7,2.4-1,4.9-.8,5.5,.6,1.7,2.9-6,2.4-8-.2-1.1-.8-.1-1.6,2.5Z"/>
  <path class="cls-1" d="M102.57,618.36c-2.4,1.7-4.1,3.4-3.8,3.6,.3,.3,1.9-.6,3.6-2.1,4-3.3,5.3-3.3,7.9,.1,1.1,1.6,2.1,2.3,2.1,1.7,0-1.3-3.8-6.4-4.9-6.4-.4,0-2.6,1.4-4.9,3.1Z"/>
  <path class="cls-1" d="M871.87,617.26c-1.6,1.8-1.6,2.3-.2,6.7,2.9,8.9,6.5,21.7,8,28.8,6.3,28.8,7.2,37.2,7.1,68.5-.1,26.4-1.3,41.5-4.4,56-4.1,18.9-6.3,28.5-8.2,34.5-4.9,16.5-14.2,39.5-22,54.5-3.7,7-4.6,11.8-2.3,12.3,.6,.1,1.5-1.3,2.1-3.2,1.3-4.1,4-5.8,6.6-4.2,1.6,1,1.8,.8,1.8-2.1s2.1-5.4,18.2-21.5c10.1-10.1,17.8-18.3,17.3-18.3-.6,0-7.5,6.5-15.4,14.4-14.1,14.1-17.7,16.8-18.7,14.1-.7-1.8,4.2-11.3,8-15.2,2.8-3.1,2.9-3.4,1.1-4.6-1.7-1.3-1.7-1.5,.3-5.3,3.9-7.5,8.5-23.5,14.2-48.9,6.8-30.9,7.6-79.6,1.9-112-3.7-20.4-9-41.7-12-48.1-2.2-4.7-2.4-6.1-.7-6.6,.8-.3,.9-.6,.1-1.1-.6-.4-1.8,.2-2.8,1.3Z"/>
  <path class="cls-1" d="M65.37,619.36c1.4,.6,5.6,1.7,9.4,2.4,3.7,.7,7.3,1.8,7.8,2.3,1.3,1.3-1,15.1-2.8,17.2-1.4,1.6-.2,5.1,1.2,3.7,.8-.8,3.1-12,4.1-20,.5-4,.3-4.6-1-4.1-.8,.3-5.3-.2-9.9-1-9.5-1.8-12.5-1.9-8.8-.5Z"/>
  <path class="cls-1" d="M234.37,636.96c-9.6,9.7-15.2,15.7-12.5,13.4,7.2-6,32.2-31.1,31-31.1-.6,0-8.9,7.9-18.5,17.7Z"/>
  <path class="cls-1" d="M267.57,621.56c-1.3,1.4-1.9,3-1.6,4.3,.3,1.1-.3,4.7-1.4,8-5.5,16.3-10.8,47.4-12,69.9-.6,11.9,0,41.1,1.2,49.5,.2,1.9,.9,7.8,1.6,13,.6,5.2,2,13.8,3.2,19,1.1,5.2,2.2,10.6,2.5,12,1.3,7.5,3.9,16.5,7,24.9,2.8,7.5,3.3,9.5,2.2,10.2-1.1,.6-.9,1.3,.8,3.1,2.6,2.7,9.4,16.9,8.7,18-.3,.5-1.7,.5-3.2,.2-2.4-.6-1.9,.1,3.3,5.5,5.6,5.8,6,6.5,6.5,11.9,.5,5.5,.6,5.7,3.3,5.4,1.9-.2,2.9,.3,3.3,1.5,1.3,3.9,3.8,8.2,4.6,7.7,1.6-1,.7-5.5-1.8-9.6-1.5-2.3-3.9-6.9-5.4-10.2-1.5-3.4-4.6-10.2-7-15.1-8-17-7.6-15.9-14.5-39-4.2-14.1-5.2-17.6-6.4-23.5-.7-3-1.6-7.3-2.1-9.5-3.4-14.2-5.4-50.5-4-73.9,1.1-18.9,2.5-32.9,4-39.6,.5-2.5,1.7-7.7,2.5-11.5,.9-3.9,2.1-9.3,2.7-12,.5-2.8,1.6-6.6,2.3-8.5,4.8-13.3,4.7-17-.3-11.7Z"/>
  <path class="cls-1" d="M895.37,620.86c0,.5,22.8,23.6,50.6,51.4s51,51.5,51.5,52.7c.9,2.5,2.9,3.1,2.9,.9,0-1-92.1-94-104.6-105.5-.2-.2-.4,0-.4,.5Z"/>
  <path class="cls-1" d="M186.37,623.16c-2.1,.8-1.8,.9,2,1,8.7,.2,18,7.3,18,13.7,0,1.3,.5,2.4,1,2.4,1.7,0,1.1-6.7-1-10.2-1-1.8-3.3-4.1-4.9-5.1-3.5-2.1-11.5-3-15.1-1.8Z"/>
  <path class="cls-1" d="M952.37,624.26c-5.2,.9-9.8,4-11.5,7.6-.8,1.8-1.5,3.7-1.5,4.2,0,.6-.5,1.2-1.2,1.4-.6,.2-.8,1-.4,1.6,1,1.7,2.6,1.5,2.6-.4,0-2.6,5.1-8.4,9.1-10.5,2.3-1.1,5.9-1.9,9.1-1.9,3,0,4.8-.4,4.3-.9-1.5-1.3-6.6-1.9-10.5-1.1Z"/>
  <path class="cls-1" d="M112.97,625.66c.7,1.9,3.8,2.2,3.2,.3-.3-.6-1.2-1.3-2.1-1.5-1.2-.2-1.5,.1-1.1,1.2Z"/>
  <path class="cls-1" d="M180.37,625.26c-.8,.5-1,1-.5,1,.6,0,1.7-.5,2.5-1s1.1-1,.5-1c-.5,0-1.7,.5-2.5,1Z"/>
  <path class="cls-1" d="M296.67,640.56c-1.7,5.6-3.8,12.5-4.6,15.3-2,6.6-6.1,28.8-7.9,41.9-1.6,12.4-1.6,49.3,.1,60.1,5.1,33.2,5.3,34,13.8,61.1,2.4,7.8,5,14.7,5.8,15.3,1,.8,1.8,.4,3.5-2l2.1-3-2.1-5.8c-7.5-20.1-10.4-31-14.5-54.7-3.8-22.2-4.3-61.4-1-85,2.9-20.7,6.1-36,8.4-40.4,.6-1.1,1.1-3.3,1.1-5s.5-3.1,1-3.1c1.6,0,1.1-3.7-.6-4.4-.9-.3-1.6-.6-1.7-.6s-1.6,4.6-3.4,10.3Z"/>
  <path class="cls-1" d="M46.37,637.86c6.5,1.6,17.8,2.9,16.9,2-.7-.8-16.7-3.6-19.9-3.5-1.4,.1-.1,.7,3,1.5Z"/>
  <path class="cls-1" d="M1041.47,640.26c-5.2,3.5-6.4,3.6-13.2,1l-5.2-1.9,2.3,2.4c5.1,5.4,13.6,5.6,18.4,.6,4.1-4.3,2.8-5.5-2.3-2.1Z"/>
  <path class="cls-1" d="M66.87,641.26c1.1,.5,3.6,.8,5.5,.8h3.5l-3-.8c-1.6-.4-4.1-.8-5.5-.8-2.3-.1-2.3,0-.5,.8Z"/>
  <path class="cls-1" d="M205.97,645.46c-.8,4-.4,4.3,2.5,1.9,2-1.6,2.1-2.1,1-3.5-2-2.3-2.8-2-3.5,1.6Z"/>
  <path class="cls-1" d="M987.37,645.16c0,.5,.5,1.3,1,1.6,.6,.3,1,.2,1-.4,0-.5-.4-1.3-1-1.6-.5-.3-1-.2-1,.4Z"/>
  <path class="cls-1" d="M845.47,648.66c-1.8,1.9-2.1,3-1.6,6,.4,2,1.1,3.9,1.6,4.2,.8,.5,1.4-4.1,1-7.4-.1-.8,.3-2,1-2.8,2.1-2.5,.4-2.5-2,0Z"/>
  <path class="cls-1" d="M991.37,649.76c0,.7,8,5.8,8.4,5.4,.2-.2-1.6-1.6-4-3.1s-4.4-2.5-4.4-2.3Z"/>
  <path class="cls-1" d="M79.47,652.26c0,1.4-.4,3.6-.7,5-.5,2.2-.4,2.3,.6,.7,.6-.9,.9-3.2,.7-5-.3-2.5-.4-2.6-.6-.7Z"/>
  <path class="cls-1" d="M115.97,654.36c-.2,.8-1.1,3.6-2,6.3-1.9,5.8-1.9,5.9-.6,5.1,1.2-.8,4.4-11.4,3.6-12.2-.3-.3-.8,0-1,.8Z"/>
  <path class="cls-1" d="M1037.37,659.96c0,2.7,.5,5.5,1,6.3,.7,1.1,1,.6,1-2.1,0-5.9,3.2-7.3,9.5-4.3,2.1,.9,3.8,2.8,4.6,4.7,1,2.7,1.3,2.9,1.6,1.1,.6-3.1-1.4-7.3-3.9-8.3-1.3-.4-4.9-1.1-8-1.5l-5.8-.6v4.7Z"/>
  <path class="cls-1" d="M213.27,657.96c-1.3,1.6-1.2,1.7,.4,.4s2.1-2.1,1.3-2.1c-.2,0-1,.8-1.7,1.7Z"/>
  <path class="cls-1" d="M96.37,659.66c0,.8,.5,1.8,1,2.1,.6,.3,1-.3,1-1.4,0-1.2-.4-2.1-1-2.1-.5,0-1,.6-1,1.4Z"/>
  <path class="cls-1" d="M846.47,661.26c-.1,2.8,2.6,17.7,3.3,18.8,.4,.7,1.2,1,1.7,.7,.5-.4,.9-.1,.9,.4,0,.6-.5,1.1-1.1,1.1-.7,0-.9,1.7-.4,5.2,.4,2.9,.8,13,1,22.5,.1,9.5,.5,17.8,.8,18.5,.6,1.8-.9,25.4-2.3,34.3-3.8,24.2-6.5,37-8.2,39-.4,.5-.8,1.8-.8,3,0,1.1-1.3,6.1-3,11-2.5,7.9-2.7,9.2-1.5,10.5,2,1.9,2.7,.9,6-8.5,7.5-22,13.9-52.9,14.9-72,.3-5.5,.8-13.4,1.1-17.5,.7-8-1.7-38.8-3.6-47.5-2.2-9.2-3.8-14.4-4.9-15.7-.6-.7-1.7-2.2-2.5-3.3-1.1-1.5-1.4-1.6-1.4-.5Z"/>
  <path class="cls-1" d="M99.37,662.96c0,.5,1.5,2.4,3.4,4.2,3.4,3.3,7.5,4,8.3,1.4,.3-.7-.3-.9-1.7-.6-1.3,.3-2.9-.2-4.3-1.4-4-3.5-5.7-4.6-5.7-3.6Z"/>
  <path class="cls-1" d="M200.87,670.26c-3.3,3.3-5.5,6-4.9,6,.5,0,3.3-2.7,6.2-6s5.2-6,5-6-3,2.7-6.3,6Z"/>
  <path class="cls-1" d="M1054.37,669.76c0,.8,.4,1.5,1,1.5,.5,0,.7-.7,.4-1.5-.4-.8-.8-1.5-1-1.5s-.4,.7-.4,1.5Z"/>
  <path class="cls-1" d="M191.87,679.26c-1,1.1-1.3,2-.7,2s1.6-.9,2.2-2,.9-2,.7-2-1.2,.9-2.2,2Z"/>
  <path class="cls-1" d="M90.37,680.16c0,.7,7.3,6.4,12.3,9.6,1.5,1,3.1,1.4,3.5,1s-.1-1.2-1.1-1.9c-1.1-.6-4.8-3-8.3-5.3-3.5-2.2-6.4-3.8-6.4-3.4Z"/>
  <path class="cls-1" d="M186.87,684.26c-1,1.1-1.3,2-.7,2s1.6-.9,2.2-2,.9-2,.7-2-1.2,.9-2.2,2Z"/>
  <path class="cls-1" d="M1032.67,689.16c-5.5,3.5-3.7,5.6,2.1,2.6,3.6-1.9,5.1-1.9,8.1,.1,2.6,1.7,6.7,1.3,9.2-.8,2.2-1.8,1.5-2.3-3.4-2.5-2.7-.1-6.6-.4-8.8-.8-3.1-.4-4.8-.1-7.2,1.4Z"/>
  <path class="cls-1" d="M166.37,704.76c-9.1,9.1-16,16.5-15.5,16.5,.9,0,26.3-25.3,30.9-30.8,4.5-5.3,0-1.1-15.4,14.3Z"/>
  <path class="cls-1" d="M73.07,699.16c-1.7,.6-1.7,.8,.1,2.4,1.6,1.5,2.1,1.5,2.5,.4,.8-2.1-.6-3.5-2.6-2.8Z"/>
  <path class="cls-1" d="M90.17,704.96c-1.8,2.1-4.1,8.8-3.6,10.4,.2,.7,1.5-1,2.9-3.7,2.9-5.7,5.5-6.6,10.7-3.8,3.3,1.8,4.9,5.1,3.8,7.9-.3,.8-.2,2.3,.1,3.2,.6,1.5,.7,1.5,1.4-.3,.4-1,.8-3.8,.8-6.1,.1-3.8-.3-4.5-3.6-6.8-4.5-3-10.3-3.3-12.5-.8Z"/>
  <path class="cls-1" d="M74.57,708.26c0,1.4,.2,1.9,.5,1.2,.2-.6,.2-1.8,0-2.5-.3-.6-.5-.1-.5,1.3Z"/>
  <path class="cls-1" d="M1041.37,720.86c-1.7,1.5-3.8,4-4.6,5.6q-1.6,3,.6,1.5c1.2-.8,2.8-2.5,3.6-3.6,.9-1.2,2.2-2.1,3-2.1,.9,0,4.7,3.3,8.5,7.2,6.6,7,6.9,7.2,8.4,5.4,2.1-2.7,1.9-3.6-.9-3.6-2.3,0-7.4-4.8-11.1-10.4-2.2-3.3-3.6-3.3-7.5,0Z"/>
  <path class="cls-1" d="M146.87,724.26c-.4,.6-.3,1.6,.3,2.2,1.3,1.3,2.3-.4,1.3-2.1-.7-1-1-1-1.6-.1Z"/>
  <path class="cls-1" d="M74.67,727.76c0,2.2,.2,3,.4,1.7,.2-1.2,.2-3,0-4-.3-.9-.5,.1-.4,2.3Z"/>
  <path class="cls-1" d="M158.87,738.26c4.9,4.9,9.1,9,9.4,9,.5,0-.6-1.2-9.7-10.8-3.8-3.9-7.3-7.2-7.8-7.2s3.2,4,8.1,9Z"/>
  <path class="cls-1" d="M950.07,774.06c-24.6,24.6-44.7,45.1-44.7,45.6,0,1,2.2-1.1,53.6-51.9,20.6-20.4,37.4-37.4,37.4-37.8s-.3-.7-.8-.7c-.4,0-20.8,20.1-45.5,44.8Z"/>
  <path class="cls-1" d="M72.97,736.16c-.3,.5,.1,1.4,.9,2.1,1.3,1,1.5,.9,1.5-.9,0-2.1-1.4-2.8-2.4-1.2Z"/>
  <path class="cls-1" d="M75.57,748.26c0,1.4,.2,1.9,.5,1.2,.2-.6,.2-1.8,0-2.5-.3-.6-.5-.1-.5,1.3Z"/>
  <path class="cls-1" d="M1035.37,751.26c0,.5,.5,1,1.1,1,.5,0,.7-.5,.4-1-.3-.6-.8-1-1.1-1-.2,0-.4,.4-.4,1Z"/>
  <path class="cls-1" d="M74.47,752.66c-1,1.2-1.1,2-.4,2.4,1.5,1,2.5,16.6,1.1,18-.9,.9-.8,1.6,.4,2.9,.8,1,1.8,4,2.1,6.6,.2,2.7,1,5.4,1.7,6,1,.9,1.1,.4,.7-2.3-.4-1.9-1.1-8.5-1.7-14.5-.6-6.1-1.4-13.2-1.8-15.9-.6-4.4-.8-4.7-2.1-3.2Z"/>
  <path class="cls-1" d="M90.67,754.56c-1,1.6,1.6,3.2,2.9,1.9,.7-.7,2.4-1.2,3.9-1.2s3-.4,3.4-1c.3-.5-1.5-.8-4.6-.7-2.8,.1-5.3,.6-5.6,1Z"/>
  <path class="cls-1" d="M1043.17,755.96c.7,.3,1.6,.2,1.9-.1,.4-.3-.2-.6-1.3-.5-1.1,0-1.4,.3-.6,.6Z"/>
  <path class="cls-1" d="M178.77,758.16c2.1,2.3,2.6,2.6,2.6,1.1,0-.5-1-1.5-2.2-2.1q-2.3-1.2-.4,1Z"/>
  <path class="cls-1" d="M1035.37,758.96c0,.5,1.4,1.4,3,2,2.5,.9,3,.9,3-.3,0-.8-.6-1.4-1.4-1.4s-2.1-.3-3-.6-1.6-.2-1.6,.3Z"/>
  <path class="cls-1" d="M871.47,760.86c0,1.1,.3,1.4,.6,.6,.3-.7,.2-1.6-.1-1.9-.3-.4-.6,.2-.5,1.3Z"/>
  <path class="cls-1" d="M1051.37,765.16c0,2,3.6,7.1,5.1,7.1,1.8,0,.9-4.7-1.4-6.8-2.8-2.7-3.7-2.8-3.7-.3Z"/>
  <path class="cls-1" d="M1032.37,769.26c0,.5,.5,1,1,1,.6,0,1-.5,1-1,0-.6-.4-1-1-1-.5,0-1,.4-1,1Z"/>
  <path class="cls-1" d="M191.87,771.26c.3,.5,.8,1,1.1,1,.2,0,.4-.5,.4-1,0-.6-.5-1-1.1-1-.5,0-.7,.4-.4,1Z"/>
  <path class="cls-1" d="M1036.37,771.66c0,.8,7.3,4.7,8.3,4.3,.6-.2-.6-1.3-2.7-2.5-3.5-2.1-5.6-2.7-5.6-1.8Z"/>
  <path class="cls-1" d="M67.67,774.96c.9,.2,2.3,.2,3,0,.6-.3-.1-.5-1.8-.5-1.6,0-2.2,.2-1.2,.5Z"/>
  <path class="cls-1" d="M93.97,783.46c-.8,2.4-1.8,8.3-2.2,12-.6,5.8,1.3,5.4,2.1-.4,.9-6.2,2-8.8,4-8.8,.8,0,4.5,2,8.2,4.4,8.1,5.1,15.6,8.6,18.9,8.6,4.1,0,2.6-1.4-5.3-5.2-4.3-2-10.7-5.5-14.2-7.7-6.5-4.1-10.8-5.2-11.5-2.9Z"/>
  <path class="cls-1" d="M204.37,783.66c0,.2,.8,1,1.8,1.7,1.5,1.3,1.6,1.2,.3-.4s-2.1-2.1-2.1-1.3Z"/>
  <path class="cls-1" d="M1031.97,789.46c-1.9,2.4-4.5,5.3-5.7,6.5-1.1,1.2-1.8,2.7-1.4,3.2,.8,1.4,2.5,1.4,2.5,.1,0-1.8,7.9-11.6,10.3-12.8q2.2-1.1,.1-1.1c-1.4-.1-3.5,1.5-5.8,4.1Z"/>
  <path class="cls-1" d="M213.87,793.26c2.7,2.7,5.1,5,5.4,5s-1.7-2.3-4.4-5c-2.7-2.8-5.1-5-5.4-5s1.7,2.2,4.4,5Z"/>
  <path class="cls-1" d="M77.77,792.76c-1.9,1.4-1.8,1.4,.4,1.5,1.3,0,2.2-.6,2.2-1.5,0-1.9-.1-1.9-2.6,0Z"/>
  <path class="cls-1" d="M1066.47,794.46c-.6,1.7-1.6,7.1-2.1,11.9-.6,4.8-1.5,10-2,11.5-.7,1.7-.7,3.1-.1,3.7,.5,.5,1.1-.3,1.6-2.1,.3-1.7,1.2-3.6,2-4.2,1.4-1.1,.9-1.2,25.4,3,6.8,1.1,13.1,1.9,14,1.8,1.7-.4-6.6-2.2-26.1-5.9-12.9-2.4-14.8-3.5-12.9-7.5,.6-1.4,1.1-4.4,1.1-6.8,0-5.3,1-5.8,8.2-4.6,6.8,1.2,24.8,3.7,36.3,5.1,5,.5,10.1,1.3,11.4,1.6,1.6,.4,2.2,.2,1.7-.5-.7-1.1-4.9-1.8-34.1-5.7-11-1.5-20.4-3.1-20.9-3.6-1.6-1.5-2.4-1-3.5,2.3Z"/>
  <path class="cls-1" d="M138.37,795.36c0,.5,.5,.7,1,.4,.6-.3,1-.8,1-1.1,0-.2-.4-.4-1-.4-.5,0-1,.5-1,1.1Z"/>
  <path class="cls-1" d="M145.37,795.66c0,.2,.7,.7,1.6,1,.8,.3,1.2,.2,.9-.4-.6-1-2.5-1.4-2.5-.6Z"/>
  <path class="cls-1" d="M80.47,800.96c-.1,1.7,.4,4.4,.9,5.8,.7,1.8,.7,3.3,0,4.6-.8,1.5-.7,1.9,.5,1.9,1.9,0,1.9-5.7,0-11.5l-1.3-4-.1,3.2Z"/>
  <path class="cls-1" d="M994.37,800.26c-1.4,1.1-2.1,2-1.7,2,.5,0,2-.9,3.4-2s2.2-2,1.7-2-2,.9-3.4,2Z"/>
  <path class="cls-1" d="M230.87,810.26c4.9,4.9,9.1,8.8,9.3,8.5,.5-.4-16.8-17.5-17.7-17.5-.3,0,3.5,4,8.4,9Z"/>
  <path class="cls-1" d="M988.37,805.76c-.7,.9-1,1.8-.7,2.1s1-.4,1.7-1.5c1.3-2.5,.8-2.7-1-.6Z"/>
  <path class="cls-1" d="M936.97,809.16c-1.5,1.6-1.5,2-.3,2.8,.8,.4,1.7,2.6,2,4.7,1,6.3,6.7,11.1,13.7,11.6,6.1,.5,9.6,0,11.6-1.4,1.7-1.3,1.2-1.4-4.3-.9-5,.5-6.9,.2-10.5-1.6-5.2-2.5-8.8-8-8.8-13.5,0-4-.9-4.5-3.4-1.7Z"/>
  <path class="cls-1" d="M206.97,809.96c-1.1,1.1-.6,2.3,.9,2.3,.8,0,1.5-.4,1.5-.9,0-1.3-1.6-2.2-2.4-1.4Z"/>
  <path class="cls-1" d="M64.37,814.86c-11.9,1.9-24.3,4.4-24.9,4.9-1.5,1.5,15.5-1,32.9-4.9,8.2-1.8,3.2-1.8-8,0Z"/>
  <path class="cls-1" d="M204.07,817.66c-2.5,3.8-9,6.7-15.3,6.9-6.3,.1-5.8,1.7,.8,2.4,3.2,.3,5.4-.2,8.7-1.9,4.8-2.4,8.6-6.8,7.9-8.8-.2-.8-1.1-.2-2.1,1.4Z"/>
  <path class="cls-1" d="M83.37,817.96c0,1,.7,4.3,1.5,7.3,2.6,9.5,3.3,8.8-12,12-3.3,.7-7.8,1.8-10,2.6l-4,1.4,5.5-.6c3-.4,7.8-1.3,10.5-2.2,2.8-.8,6.9-1.5,9.3-1.6,2.5-.1,4.2-.6,4.2-1.3,0-1.9-4.1-19.3-4.6-19.3-.2,0-.4,.8-.4,1.7Z"/>
  <path class="cls-1" d="M112.67,820.16c-2.9,.8-5.3,2.1-5.3,2.8,0,1.9,2.5,1.6,6.2-.7,1.8-1.1,4.1-2,5.1-2,.9,0,1.7-.5,1.7-1,0-1.3-1.3-1.1-7.7,.9Z"/>
  <path class="cls-1" d="M31.37,821.26c-1.2,.8-1.1,1,.8,1,1.2,0,2.2-.5,2.2-1,0-1.3-1.1-1.3-3,0Z"/>
  <path class="cls-1" d="M241.37,820.56c0,.2,1.4,1.6,3.2,3.3q3.1,2.9,1.2,.2c-1.6-2.3-4.4-4.5-4.4-3.5Z"/>
  <path class="cls-1" d="M899.37,824.76c-1.3,1.4-2.1,2.7-1.8,3,.2,.3,1.7-.9,3.3-2.5,1.6-1.7,2.4-3,1.9-3-.6,0-2.1,1.1-3.4,2.5Z"/>
  <path class="cls-1" d="M1030.87,830.26c.3,.5,1.1,1,1.6,1,.6,0,.7-.5,.4-1-.3-.6-1.1-1-1.6-1-.6,0-.7,.4-.4,1Z"/>
  <path class="cls-1" d="M1058.57,836.46c-1.3,4.3-4.2,17.6-4.2,19.1,0,.4,.9,.2,1.9-.5,1.5-.9,1.7-1.6,1-2.9-.6-1.1-.5-2.8,.2-4.6,.6-1.5,1.4-4.6,1.8-6.8,.6-3.8,.9-4,4.1-3.9,1.9,.1,5.1,.4,7,.8,2.3,.5,3,.4,2-.2-.8-.5-3.1-1.2-5.1-1.6-2.1-.4-4.2-1.3-4.9-2.1-1.9-2.3-2.5-1.9-3.8,2.7Z"/>
  <path class="cls-1" d="M103.67,839.46c.2,.7,1,1.3,1.7,1.3s1.5-.6,1.8-1.3c.2-.7-.5-1.2-1.8-1.2s-2,.5-1.7,1.2Z"/>
  <path class="cls-1" d="M88.87,842.86c.4,2.1,.8,5.6,.9,7.6,0,2.4,.5,3.8,1.3,3.8,.7,0,1.3-.9,1.3-2,0-3.5-2.1-12-3.2-12.6-.8-.5-.9,.5-.3,3.2Z"/>
  <path class="cls-1" d="M1079.37,839.56c0,.4,6.9,2.1,28.6,7.3,7.7,1.8,11.3,1.7,5.4-.2-9-2.9-34-8.1-34-7.1Z"/>
  <path class="cls-1" d="M263.37,842.66c0,.2,.7,.9,1.5,1.6,.9,.7,1.5,.8,1.5,.2,0-.5-.7-1.2-1.5-1.6-.8-.3-1.5-.4-1.5-.2Z"/>
  <path class="cls-1" d="M37.17,845.16c-3.6,.9-7,2-7.5,2.5-1.1,1.2,7.2-.1,14.8-2.4,5.4-1.5,5.8-1.8,2.9-1.8-1.9,0-6.5,.8-10.2,1.7Z"/>
  <path class="cls-1" d="M119.37,844.26c0,.5,.7,.7,1.5,.4,.8-.4,1.5-.8,1.5-1s-.7-.4-1.5-.4-1.5,.4-1.5,1Z"/>
  <path class="cls-1" d="M1015.67,849.76c-.8,2.3-.2,2.3,3.7,.3l3.5-1.8h-3.3c-2,0-3.5,.6-3.9,1.5Z"/>
  <path class="cls-1" d="M1031.87,852.26c.3,.5,1.5,1,2.6,1s1.7-.5,1.4-1c-.3-.6-1.5-1-2.6-1s-1.7,.4-1.4,1Z"/>
  <path class="cls-1" d="M218.57,853.76c-2.4,.7-5.1,2-6.1,2.9-4,3.6-11.2,5.8-19.5,5.9-9.1,.1-14.2-1.3-20.3-5.4-4.7-3.3-5.5-3.5-4.7-1.4,1.1,2.8,12.9,7.5,20.9,8.4,9.4,1.1,14.4-.1,24.1-5.8,5.5-3.2,8.2-4.1,12-4.2,3.9-.1,4.4-.3,2.4-.9-3.4-1.1-3.9-1.1-8.8,.5Z"/>
  <path class="cls-1" d="M77.87,855.96c-4.9,1.4-9.2,4.1-5,3,9.2-2.3,11.5-3.1,11.5-3.8,0-1.1-.4-1.1-6.5,.8Z"/>
  <path class="cls-1" d="M976.87,856.76c-1.6,1.4-6.1,3.7-10,5.2-9,3.4-20,3.6-26.3,.4-4.6-2.3-5.2-2.5-5.2-1.3,0,.5,1.9,1.8,4.2,2.8,3.3,1.5,6.6,1.9,14.3,1.9,8.9,0,10.6-.3,15.5-2.7,3.1-1.5,6.9-4.1,8.5-5.8,3.5-3.6,3.1-3.8-1-.5Z"/>
  <path class="cls-1" d="M1060.47,855.26c1.9,1.1,17.6,5,19.9,4.9,.8,0-.3-.6-2.5-1.4-5.4-2-15.3-4.5-17.3-4.5q-1.6,.1-.1,1Z"/>
  <path class="cls-1" d="M925.67,856.36c3.8,2.2,8.7,3.9,8.7,2.9,0-1.3-5.4-4-8.2-4-2.1,.1-2.1,.2-.5,1.1Z"/>
  <path class="cls-1" d="M234.37,856.76c0,.2,1,1,2.3,1.6,2,1.1,2.1,1.1,.8-.4-1.3-1.6-3.1-2.3-3.1-1.2Z"/>
  <path class="cls-1" d="M1052.87,858.16c-.6,1.1-3.5,11.6-3.5,13,0,.4,1.3,.6,2.8,.3,3.1-.4,11.2,1.5,25,5.9,5,1.7,10,2.9,11,2.7,.9-.2-2.3-1.6-7.3-3.1-14.9-4.5-25.7-8.1-27.2-9.3-1.2-.8-1.3-1.7-.3-5.3,1.1-4.2,.9-6.3-.5-4.2Z"/>
  <path class="cls-1" d="M57.37,861.36c-1.9,.5-5.7,1.6-8.5,2.4-2.7,.8-7,1.9-9.4,2.5-2.3,.6-4.1,1.4-3.8,1.6,.6,.6,25.4-5.4,27.7-6.7,2.1-1.2-1.3-1-6,.2Z"/>
  <path class="cls-1" d="M1085.77,861.76c2.2,.8,4.2,1.3,4.4,1,.9-.9-.5-1.6-4.4-2.1l-3.9-.4,3.9,1.5Z"/>
  <path class="cls-1" d="M1101.37,865.86c1.9,.9,5.1,1.8,7,2l3.5,.4-3.5-1.6c-1.9-.9-5.1-1.8-7-2l-3.5-.4,3.5,1.6Z"/>
  <path class="cls-1" d="M93.77,867.76l-2.1,2.3,2.9,.4c2.1,.3,2.8,0,2.8-1.1,0-3.4-1.5-4-3.6-1.6Z"/>
  <path class="cls-1" d="M132.37,867.86c-1.4,.2-5.6,.9-9.5,1.5-3.8,.6-10.1,2-13.9,3.1s-7.6,1.8-8.5,1.5c-.9-.2-2.4,.6-3.4,1.9-1.6,2.2-1.6,2.3,.4,2.9,1.2,.4,2.4,.2,2.8-.4,3.1-4.9,39.2-9.9,58.8-8,20.4,1.9,33.1,5.5,51.1,14.4,26.8,13.4,46.4,32.2,61.3,58.7,5.8,10.5,8,11.9,3,1.9-19.7-39-58.7-67.9-102-75.7-8.3-1.5-35-2.7-40.1-1.8Z"/>
  <path class="cls-1" d="M981.37,869.96c-7.8,1-26.3,6.5-35.1,10.3-26.8,11.6-46.7,28.3-62.3,52-6.5,10-14.2,24.7-13.4,25.6,.7,.6,4.3-5.4,5.3-8.7,.4-1.3,1.3-3.1,2-3.9,.6-.8,2.6-4,4.4-7,4.8-8.2,7.4-11.7,15.4-20.4,26.6-29.3,66-46.7,105.7-46.6,7.6,0,24.7,2.2,31,3.9,1.9,.5,5.4,1.5,7.8,2.1,2.3,.6,4.2,1.6,4.2,2.3s1.5,1.2,3.8,1.2c2.7,.1,7.8,2.1,17.2,6.8,7.3,3.7,13.4,6.6,13.7,6.4,1.1-1.2-22.1-13.8-28-15.2-1.4-.4-3.1-1.3-3.8-2.1-.6-.8-2.1-1.4-3.3-1.4-1.1,0-6.6-1.2-12.1-2.6-8.7-2.2-12.5-2.6-29.5-2.9-10.7-.2-21.1-.1-23,.2Z"/>
  <path class="cls-1" d="M84.87,871.26c-.7,1.2,1.2,1.2,4,0,1.8-.8,1.7-.9-.7-.9-1.5-.1-3,.3-3.3,.9Z"/>
  <path class="cls-1" d="M71.37,875.26c-3,1.1-7.5,2.4-10,3.1-2.5,.6-4,1.4-3.3,1.6,1.3,.5,14.6-3.1,19.6-5.2,4.8-2.1,.3-1.7-6.3,.5Z"/>
  <path class="cls-1" d="M859.87,918.76c0,22.5,.1,31.9,.2,20.8,.2-11.1,.2-29.5,0-41-.1-11.4-.2-2.4-.2,20.2Z"/>
  <path class="cls-1" d="M79.87,884.06c-8.3,4.3-14.5,8.4-14.5,9.4,0,.4,2.8-.8,6.3-2.8,3.4-1.9,8-4.4,10.2-5.4s4.9-2.5,6-3.4c3.7-2.9-.7-1.7-8,2.2Z"/>
  <path class="cls-1" d="M1044.77,884.26c-.5,.8-1.9,4.2-3,7.5-1.2,3.3-3,8-3.9,10.5-2.4,6.5-9.3,22.5-13.1,30.6l-3.4,7.1-15.7-.5c-18.5-.5-24,.5-37.1,6.9-15.2,7.6-29.1,23.3-34.1,38.8-2.3,6.9-2.8,11.8-1.1,9.1,.5-.8,1-2.3,1-3.2,0-3.2,6.3-15.3,11.4-22.1,20.1-26.9,55.9-35.2,86.4-20.1,7.5,3.7,11,6.2,17.6,12.7,5.1,5.1,9.6,10.8,12,15,3.9,7,5.9,8.4,3.5,2.5-4.9-12.2-18.4-25.9-32.3-32.9-4.5-2.2-8.5-4.4-8.9-4.9-.5-.4,.8-4.3,2.8-8.6,5-10.4,13.5-30.6,13.5-31.9,0-.5,1.4-4.3,3-8.4,2.8-6.9,3.6-11.5,1.4-8.1Z"/>
  <path class="cls-1" d="M286.67,899.76c0,2.7,.2,3.8,.4,2.2,.2-1.5,.2-3.7,0-5-.2-1.2-.4,0-.4,2.8Z"/>
  <path class="cls-1" d="M109.37,906.46c0,.7,.8,2.9,1.9,4.8,1,1.9,2.4,5.3,3.1,7.5s3,7.5,5.2,11.8c2.1,4.3,3.6,8.2,3.4,8.6-.3,.5-5,3-10.3,5.7-8.1,4-11.2,6.2-17.8,12.9-8.1,8.1-13.8,16.5-14.9,22-.7,3.2-.5,3.1,6.6-9,6.5-11,22.5-23,37.8-28.3,6.5-2.2,9.1-2.6,20-2.6,10.1,0,13.8,.4,19.4,2.2,22.2,7.1,37.4,20.8,46.4,41.8,1.6,3.9,3.3,9,3.7,11.3s.9,4,1.2,3.7c1.4-1.3-2.3-13.9-6.5-22.6-9.2-18.9-27.7-33-49.4-37.5-8.1-1.8-23.2-2-27.6-.4-4.2,1.4-6.9-.1-9.2-5.4-1-2.3-3.3-7.6-5.2-11.7-2-4.1-4.1-9.2-4.7-11.2-1.3-3.9-3.1-6-3.1-3.6Z"/>
  <path class="cls-1" d="M286.57,907.26c0,1.4,.2,1.9,.5,1.2,.2-.6,.2-1.8,0-2.5-.3-.6-.5-.1-.5,1.3Z"/>
  <path class="cls-1" d="M25.77,934.26c-2.5,3.9-6.4,10.9-8.5,15.6-4.5,9.7-10.4,29.6-11.1,37.2-.6,6.6,.7,4.8,2.2-2.8,1.8-9.3,3.1-14.2,5.7-21.5,3.1-8.4,11.2-24.6,13.2-26.1,1.4-1.1,4.3-8.5,3.6-9.2-.2-.2-2.5,2.8-5.1,6.8Z"/>
  <path class="cls-1" d="M1115.37,928.06c0,.5,.7,1.7,1.5,2.8,.8,1,1.5,2.7,1.5,3.6,0,1,.8,2.2,1.9,2.7,4.2,2.3,16.6,31.3,19,44.6,1.4,7.7,3,10.4,2.4,3.9-1.1-11.4-10.6-36.5-18.6-49.1-1.5-2.4-2.7-4.9-2.7-5.7,0-.9-.9-2-1.9-2.6-2.4-1.2-3.1-1.3-3.1-.2Z"/>
  <path class="cls-1" d="M286.57,953.76c0,1.6,.2,2.2,.5,1.2,.2-.9,.2-2.3,0-3-.3-.6-.5,.1-.5,1.8Z"/>
  <path class="cls-1" d="M869.07,960.56c-.4,1-.7,2.6-.7,3.5,.1,1.5,.2,1.5,1.1-.1,.6-1,.9-2.5,.7-3.5-.3-1.6-.4-1.5-1.1,.1Z"/>
  <path class="cls-1" d="M284.17,964.96c-2.3,.6-2.3,1.1,.7,13.7,1.4,5.8,2.5,12.3,2.5,14.3,.1,2.9,.3,3.4,1,2.2,.6-1,.6-3.8,0-7.5-.6-3.2-1-9.8-1-14.7s-.3-8.6-.7-8.6c-.5,.1-1.6,.3-2.5,.6Z"/>
  <path class="cls-1" d="M859.97,975.96c-1,2.4-.7,23.1,.3,23.7,1.3,.9,2.1-1.9,2.1-7.5,0-2.7,.5-6.8,1.2-9.2,1-4,.9-4.6-1-6.5-1.7-1.7-2.1-1.8-2.6-.5Z"/>
  <path class="cls-1" d="M982.07,974.96c-1.3,1.3-.7,3.1,1.2,3.6,2.5,.6,9.4,14.7,8.5,17-.3,1-1,1.7-1.5,1.7s-.9,.4-.9,1c0,.5,2,1,4.5,1,5,0,5.7-1,2-3-3-1.6-4.2-4.8-2.4-6.5,.9-.7,5.4-1.5,11.2-1.8,9.7-.5,9.8-.5,13.1,2.4,1.9,1.6,4.5,2.9,5.8,2.9,4.2,0,8.8-6.7,5.9-8.5-.6-.3-1.6,.7-2.3,2.2-1.7,3.7-6.2,4.4-7.8,1.3-1.1-2-.6-2.7,3.8-7,3.6-3.4,6.3-5.1,9.4-5.8l4.3-1-4.8-.1c-4.5-.1-5.2,.3-10.1,4.8l-5.2,5-11.5,.7c-13.5,.8-14.8,.3-17.8-6.1-2-4.2-3.8-5.5-5.4-3.8Z"/>
  <path class="cls-1" d="M1040.87,976.26c.3,.5,1.2,1,1.9,1,1.5,0,5.6,4.2,5.6,5.8,0,.7,.4,1.2,.9,1.2,1.5,0-.7-6.3-2.6-7.8-2-1.4-6.7-1.6-5.8-.2Z"/>
  <path class="cls-1" d="M113.67,979.06c-.7,.4-1.4,1.9-1.5,3.2-.3,2.4-.1,2.5,8.7,3.2,5,.4,14.4,1.1,21,1.5,16.2,1.1,16.2,1.6,2.1,14.9-5.8,5.5-10.6,10.4-10.6,11,0,1.7,1.9,2.2,12.2,2.9,5.9,.5,10.3,.3,12.1-.4,2-.8,3.4-.8,4.8,0,2,1,2,1.1,.3,3-.9,1-4.7,3.4-8.3,5.2-8,4-31,17.4-33,19.3-3.5,3.3,.7,2.5,8.2-1.5,4.5-2.4,11.6-6.2,15.7-8.4,23.4-12.5,37-25.4,37-35,0-6-4.6-7.3-10.1-2.8l-2.4,1.9,3.8,1.5c2.8,1.2,3.7,2.2,3.7,4,0,3.4-1.8,4.6-9.7,6.4-7.4,1.8-10.2,1.8-17.8,.6s-6.9-3.2,5.9-16.3c5.9-6.1,10.7-11.3,10.5-11.5-.2-.1-9.6-.8-20.9-1.4s-22.7-1.3-25.5-1.6c-2.7-.2-5.6-.1-6.2,.3Z"/>
  <path class="cls-1" d="M974.37,987.06c-3.4,4.9-5.4,6.9-7.8,7.6-4.8,1.3-3.9,2.6,1.9,2.6,4.5,0,5-.2,4.4-1.9-.3-1.2,.8-4.2,3.1-8.1,2-3.4,3.4-6.3,3.2-6.5-.1-.2-2.3,2.7-4.8,6.3Z"/>
  <path class="cls-1" d="M1046.77,992.46c-7.3,14.1-20.6,24.5-51.1,39.7-10,5-18.4,9.5-18.8,10.1-.3,.5-2,1-3.6,1-3.1,0-3.9,1.2-5.4,7.7-.8,3.9,1.1,4.5,4,1.3,2-2.2,17.6-12,35-21.9,6.1-3.5,16-10.1,22.2-14.8,13.2-9.9,18.1-15.6,19.8-23.1,.9-4.1,0-4.1-2.1,0Z"/>
  <path class="cls-1" d="M1142.27,1011.26c-.2,9.6-.3,17.7-.2,17.9,1.8,2.8,3-21,1.5-29.9-.7-4.7-.9-2.8-1.3,12Z"/>
  <path class="cls-1" d="M4.47,1010.46c0,6.5,.3,11.8,.7,11.8s.6-4.4,.4-9.8c-.5-14.4-.9-15.2-1.1-2Z"/>
  <path class="cls-1" d="M215.17,1008.76c-.4,4.9-1,11.2-1.3,14l-.6,5,1.6-3.4c1.2-2.6,1.5-6.1,1.3-14l-.3-10.6-.7,9Z"/>
  <path class="cls-1" d="M930.07,1007.96c-.4,3.2-.3,7.4,.2,9.3,.7,2.8,.9,1.7,1-5.8,.1-5-.1-9.2-.3-9.2s-.6,2.6-.9,5.7Z"/>
  <path class="cls-1" d="M112.87,1006.66c-2,3-1.7,5.5,.8,7,2.4,1.5,4.9-1.8,4.5-5.9-.4-3.9-3.1-4.4-5.3-1.1Z"/>
  <path class="cls-1" d="M71.37,1018.56c0,.7,.7,2.3,1.6,3.5,.8,1.2,2.6,5.2,3.8,9,3,8.7,6.6,15.7,11.2,21.8,5.4,7.2,19.3,20.4,21.4,20.4,1,0,4.3,1.2,7.4,2.6,4.3,1.9,6.7,4,10.3,8.7,8.6,11.2,26.4,30.9,41.4,46,8.6,8.6,14.6,15.4,14.3,16.1-.3,.8,.5,1.6,2.1,2,1.5,.4,7.5,4.9,13.3,10,5.9,5.1,16.3,13.7,23.1,19l12.4,9.7,3.4-3.3c1.8-1.7,3.3-3.5,3.3-3.9,0-.3-2.5-2.6-5.5-4.9-5.8-4.5-6.8-7-3.5-9.3,1.1-.7,3-2.8,4.2-4.5,1.3-1.8,6.4-8.5,11.4-14.9,9.2-12,12.7-17.2,7.9-11.8-2.5,2.7-12.3,15-22.7,28.2-2.2,2.9-4.6,5.3-5.3,5.3-2.2,0-13.6-9.4-14.1-11.7-.4-1.3-1.3-2.3-2.1-2.3-2.2,0-11.3-6.9-11.3-8.6,0-.8,1.2-1.9,2.8-2.5,4.2-1.7,18.3-9,22.2-11.6,3.8-2.6,6-2.9,6-1.1,0,.7-3.6,5.6-8,10.8s-8,9.9-8,10.5c0,.5,.8,0,1.8-1.1,.9-1.2,5.1-6.1,9.2-11,4.1-4.8,11.7-13.7,16.7-19.8,5.1-6,9.9-11.4,10.7-11.8,1.6-.9,4.6-.1,4.6,1.3,0,.4,2,2.2,4.5,3.9,2.7,1.9,4.5,3.9,4.5,5,0,1.5,.7,2,2.4,2,1.4,0,2.8,.4,3.1,1,.9,1.5,3.5,1.2,2.9-.3-.3-.6-4.5-4.3-9.4-8.1-9.1-7-10.4-9.2-7.4-11.7,4.3-3.6,19.9-29.9,19.1-32.2-.2-.7-1.6,1.2-3.1,4.2-6.6,12.8-18.1,29.1-20.6,29.1-2,0-32.3-28.1-43-39.9-4.1-4.5-7.7-8.4-7.9-8.7-.3-.2,.5-1.7,1.6-3.2,4.2-5.7,10.9-22.2,9-22.2-.2,0-1.5,2.6-2.8,5.7-7.5,18.7-24.6,34.9-43.4,41-6.2,2-10.7,2.7-20,3.1-14.3,.5-20.3-.7-33.3-7-7.2-3.5-10.2-5.7-17.7-13.2-11.4-11.5-14.8-17.8-21.1-39.4-.5-1.6-3.4-1.6-3.4,.1Zm142.3,50.3c10.6,11,26.4,26,35,33.1,1.5,1.3,2.7,2.7,2.7,3.2,0,2.1-17.8,17.3-27.7,23.7-8.3,5.3-25.3,13.5-27.3,13.2-5.1-.9-57.9-56-56.7-59.2,.4-.9,3.5-1.5,9.4-1.9,4.8-.4,11.3-1.4,14.3-2.2,9.5-2.5,23-9.9,30-16.5,3.6-3.3,6.9-6,7.3-6s6.3,5.7,13,12.6Z"/>
  <path class="cls-1" d="M166.97,1028.16c-1,1.1-1.6,3-1.4,4.3,.4,3.2,4.1,3.6,6.2,.6,1.7-2.5,2.1-5.8,.7-5.8-.5,0-1.6-.2-2.3-.5-.8-.3-2.2,.3-3.2,1.4Z"/>
  <path class="cls-1" d="M6.97,1037.56c1.3,13.6,11.1,37.6,21.8,53.7,28.8,43.2,80,67.3,131.6,61.9,6.3-.6,13-1.3,14.8-1.4s4.1-.9,5-1.9c1.5-1.5,1.3-1.6-3.4-1.6-2.7,0-5.6,.6-6.2,1.2-1,1-6.8,1.3-22,1.3-18,0-22-.3-31.1-2.3-30.3-6.8-55.3-21.5-76.1-44.7-15.4-17.2-27.5-40.1-31.5-59.5-2.2-11.1-3.7-14.4-2.9-6.7Z"/>
  <path class="cls-1" d="M597.27,1125.06c-12.7,12.8-23.9,23.2-24.8,23.2s-11.1-9.5-22.6-21.1c-11.6-11.5-21.9-21.5-23-22.1s-1.8-.8-1.5-.5,10.3,10.5,22.3,22.6c11.9,12.1,21.7,22.5,21.7,23,0,1.4-2.8,2.1-8.8,2.1-8.3,0-27.2,4.2-38.7,8.5-22.7,8.5-43.6,23.3-59.4,42-2.1,2.5-2.7,2.7-7.5,2.2-2.8-.3-10.7-2.2-17.6-4.2-14.2-4.2-15.1-4.4-15.6-3-.2,.6,2.9,2,7,3.3,4.1,1.2,7.7,2.9,8,3.8,.4,1.2,1,1.3,2.6,.4,1.5-.8,3.1-.8,5.3-.1,1.8,.5,5.1,1.5,7.5,2.1,4.7,1.2,5.4,3.1,2.3,6.4-5.7,6.2-18.2,34.2-21.1,47.6-.7,3-1.4,6.1-1.6,6.7-.6,2.1-8.2,1.6-9.5-.5-.8-1.3-2-1.7-3.6-1.4-3,.6-19.3-4.6-20-6.3-.2-.7-1.2-1.1-2.2-.8-2.9,.7-18-4.7-18.6-6.7-.4-1.2-1.3-1.6-3.1-1.2-2.9,.5-16.3-4.3-18.1-6.6-.7-.8-1-2-.6-2.5,.4-.7-.1-.8-1.3-.3-1,.4-7,1-13.1,1.3-10.6,.6-13.7,1.5-9.5,3,.9,.3,8.2,3.4,16.2,6.8,22.5,9.6,44.5,17.4,63,22.5,16.5,4.6,18,5.3,18,8.9,0,1.7-.5,3.3-1,3.6-.7,.4-.7,1.2,0,2.5,.5,1,1,5.7,1,10.5s.4,10.5,.9,12.8,1.4,7.3,2.1,11.1c2.5,15.2,10.9,34.9,21.9,51.6,7.6,11.6,26,29.9,37.9,37.8,17.2,11.4,34.4,18.4,54.6,22.3,9.6,1.8,13.5,2,29.6,1.6,16.5-.5,19.8-.9,30.4-3.6,13.4-3.5,30.3-10.3,39.1-15.8,23.6-14.5,43.8-36.6,55.1-60.3,8.9-18.5,14.3-39.6,14.6-57.3,0-3.9,.5-8,1-9.1,.7-1.2,.6-2.2-.1-2.9-.6-.6-1.1-2.5-1.1-4.3,0-3.7,.2-3.8,16.5-8.5,20.7-5.9,53.5-17.5,66.5-23.6,1.9-.9,6.4-2.9,10-4.4,3.5-1.5,6.6-3.2,6.8-3.7,.4-1.3-6.6-2.5-16.1-2.6-6.4-.1-7.8,.1-8.2,1.6-.7,2.1-16.1,8.1-19.2,7.4-1.5-.4-2.3-.1-2.7,1.2-.7,2.1-16.9,7.8-18.7,6.6-.7-.4-1.7,0-2.4,.9-1.6,2.2-17,7-19.6,6.2-1.4-.5-2.5-.1-3.3,1s-3.1,1.9-6.4,2.3l-5.1,.4-.9-3.8c-.6-2.2-1.4-5.5-1.7-7.4-2.2-10.6-12-32.4-19.1-42.3-2.6-3.7-3.2-5.2-2.4-6.2,1.3-1.6,12.6-4.5,17.5-4.5,1.9,0,3.5-.4,3.5-.9s2.9-1.9,6.5-3.1c6.1-2,9.2-4,6.3-4-.7,0-4.3,.8-7.9,1.9-16.5,4.7-28.3,7.2-29.9,6.4-1-.4-3.9-3.3-6.4-6.3-9.3-11-27.7-25-42.9-32.6-13.8-7-40.7-14.4-52.2-14.4-5.1,0-7.5-.8-7.5-2.3,0-.7,10.2-11.4,22.7-23.9s22.4-23,22-23.4-11.1,9.7-23.8,22.4Zm4.3,32.2c28.3,6.7,48.6,17.6,69.2,37.1,9.9,9.4,11.8,12,9.8,13.3-1.6,.9-20.9,4.6-34.7,6.5-27.3,3.8-40.4,4.6-74,4.5-41.1,0-58.3-1.5-92.5-8-7.4-1.4-14.2-3.3-15-4.1-1.3-1.2-.4-2.4,7.5-10.2,21.5-20.9,45.2-33.6,73.5-39.5,10.8-2.3,13.7-2.5,31.5-2,11.7,.2,18.4,.9,24.7,2.4Zm-135.9,52.9c2.4,.9,21.4,4.4,40.7,7.5,13.7,2.2,28.8,3.6,38.8,3.6s12.9,1.1,9.8,3.5c-1.1,.8-2.5,1.5-3.2,1.5-2.2,0-12.8,5.3-18.9,9.4-14.2,9.6-22.9,21.9-28.5,40.5l-2.1,7.1h-3.7c-9.5,0-63.3-10.8-64.7-13-.3-.4-.1-2.7,.5-5.1,2-9.6,3.3-14.4,3.9-15.4,.4-.6,1.5-3.3,2.5-6,3.6-10.2,14.1-28.4,18.5-32.2,3-2.6,3.1-2.6,6.4-1.4Zm219.9,1.3c5.8,4.7,18.2,29.3,23,45.6,3.6,12.4,3.4,14.1-1.8,15.3-41.2,9.4-59.7,12.1-61.4,8.9-.5-.8-1.8-4.7-2.9-8.5-3.7-12.3-11.4-23.7-22.6-33.3-5.2-4.5-21.4-13.2-24.5-13.2-1,0-2.3-.7-3.1-1.6-2.1-2.5,.5-3.4,10.2-3.4,14,0,54.7-5.5,73.9-10,5.3-1.2,7.5-1.1,9.2,.2Zm-93.7,16.2c14.1,3.8,29.1,13.9,37.9,25.7,10.2,13.6,14,24.5,14,40.9,.1,12.6-1.1,19.1-5.4,28.6-9.2,20.5-26.5,34.8-48.9,40.5-7.2,1.8-10,2-18.5,1.4-19.6-1.3-33-7.1-46-19.9-11.1-11.1-16.8-21.6-20-37.5-2-10.2-2-15.1,0-24.9,6.9-33.8,37.2-58,70.9-56.8,5.5,.2,12.7,1.1,16,2Zm-141.5,57.6c8,1.7,17.4,3.7,21,4.5,3.6,.7,11,1.9,16.5,2.6,12.7,1.5,13.5,1.9,13.5,7.1,0,2.3,.4,5.5,.9,7.2s2.1,7,3.5,11.8c6.5,21.3,25.4,40.1,46.9,46.5,6.8,2,23.1,3.1,31.3,2.1,23-2.7,44.2-17.5,53.9-37.3,3.8-7.8,6-14.1,7-19.8,.4-2,1.1-4,1.6-4.3s.7-2.7,.3-5.4c-.8-6-.3-6.3,12.1-8,5-.6,11.9-1.8,15.5-2.5s9.4-1.9,13-2.5c3.6-.7,9.8-2.1,13.7-3.1,8.5-2.2,10.9-2.4,11.6-.7,1.3,3.6,.6,26-1.2,35.8-12.7,70.5-77,121-147.6,115.9-21.7-1.5-35.5-5-53-13.4-22.8-11-41.8-27.6-56.5-49.4-4.7-7-14-24.8-14-26.9,0-.8-.6-2.8-1.4-4.5-3.8-8.4-6.9-25.2-7.3-38.6-.2-7.4-.5-13.6-.7-13.9-1-.9,1.7-6.2,3.2-6.2,1,0,8.2,1.3,16.2,3Z"/>
  <path class="cls-1" d="M545.87,1273.76c-1.4,3.2-2.3,6-2,6.3,.2,.3,1.6,0,3-.6,1.5-.7,7.6-1.2,14.6-1.2h12l2.2,3.7c1.8,3.1,2.2,3.4,2.5,1.8,.2-1.1,1.4-2.8,2.5-3.7,1.9-1.5,4.5-1.8,17.8-1.8,8.6,0,15.8-.2,16.1-.5s.2-2.1-.1-4.1l-.6-3.5-30.5-.2c-16.8-.2-31.5-.6-32.8-1.1-2-.8-2.4-.3-4.7,4.9Z"/>
  <path class="cls-1" d="M576.17,1297.26c-.4,1.4-.8,4.9-.8,7.8,0,6.3-2,10.2-6.4,12.7-4.2,2.5-4.6,3.2-4.6,8.7,0,6.3,2.2,7.8,11.1,7.8,5.1,0,7.2-.5,9.2-2,5.4-4.2,4-12.1-2.9-16.2-3.9-2.3-4.3-3.5-4.6-13.8-.2-5.1-.5-6.7-1-5Zm2,25.9c2.3,1.4,1,4.6-2.1,4.9-3.1,.4-4.6-2-2.7-4.3,1.4-1.7,2.9-1.9,4.8-.6Z"/>
  <path class="cls-1" d="M889.87,1133.36c.7,1,13.1,17.1,16.2,20.8,.1,.2,.5,.2,.8-.1,.6-.6-15.2-21.2-16.7-21.7-.7-.2-.8,.2-.3,1Z"/>
  <path class="cls-1" d="M916.37,1132.96c.1,1.2,8.9,11,8.9,9.8,0-.6-2-3.2-4.4-5.8-2.5-2.7-4.5-4.5-4.5-4Z"/>
  <path class="cls-1" d="M927.37,1145.66c0,.4,1.1,2.1,2.5,3.8,1.4,1.6,2.5,2.6,2.5,2.1,0-1.1-4.9-7-5-5.9Z"/>
  <path class="cls-1" d="M701.17,1148.86c-.6,.5,7.4,9.4,8,8.9s-1.9-4.8-4.1-7.3c-2.1-2.3-2.9-2.6-3.9-1.6Z"/>
  <path class="cls-1" d="M433.37,1151.46c0,1.1,12.4,10.4,15.4,11.7,2.2,.9-1-2.3-7.4-7.4-7.3-5.9-8-6.2-8-4.3Z"/>
  <path class="cls-1" d="M263.37,1157.06c-3.4,5.1-3.7,6.3-.6,2.7,3.3-3.7,4.9-6.5,3.9-6.5-.4,0-1.9,1.7-3.3,3.8Z"/>
  <path class="cls-1" d="M691.27,1153.76c-.7,.6-14.9,3.8-17.9,3.9-5.3,.3-7.3,4.6-2.2,4.6,1.5,0,3.4,.6,4.1,1.2,1.1,1.1,1.4,1,1.8,0,.7-1.9,6.3-4.5,11.2-5.1,3-.4,4.8-1.3,5.9-2.9,1.3-2,1.3-2.2-.5-2.2-1.1,0-2.2,.2-2.4,.5Z"/>
  <path class="cls-1" d="M907.47,1155.76c0,.5,1.8,3,3.9,5.5,2.2,2.5,4,4,4,3.5,0-.6-1.8-3-4-5.5-2.1-2.5-3.9-4.1-3.9-3.5Z"/>
  <path class="cls-1" d="M706.37,1167.96c0,.5,1.2,2,2.6,3.4,2.4,2.1,2.6,2.2,1.6,.3-1.3-2.5-4.2-5-4.2-3.7Z"/>
  <path class="cls-1" d="M429.37,1173.06c0,1.2,1.9,2.6,2.6,1.9,.2-.2-.2-1-1.1-1.7-.9-.8-1.5-.8-1.5-.2Z"/>
  <path class="cls-1" d="M447.07,1178.26c-3,2.4-4.8,2.5-8.7,.5-2.4-1.2-2.8-1.3-2.4-.1,.7,1.7,4.8,3.6,7.9,3.6,2.5,0,6.5-3.1,6.5-5,0-1.4-.4-1.3-3.3,1Z"/>
  <path class="cls-1" d="M414.07,1209.96c-.4,.3-.7,1.3-.7,2.2,.1,1.3,.3,1.3,1.1-.2,1.1-1.9,.8-3.3-.4-2Z"/>
  <path class="cls-1" d="M435.07,1211.66c-.3,.7-.8,3.5-1.2,6.2-.8,6.4,1,3.8,2-2.9,.7-4.5,.3-6.2-.8-3.3Z"/>
  <path class="cls-1" d="M732.37,1212.76c0,1.8,1.9,4,2.6,3.2,.4-.4,0-1.5-.9-2.4-.9-1-1.7-1.3-1.7-.8Z"/>
  <path class="cls-1" d="M711.77,1216.26c.9,5,3.8,14.1,4.4,13.5,.3-.2-.3-3.5-1.3-7.2-2.1-7.9-3.9-11.7-3.1-6.3Z"/>
  <path class="cls-1" d="M412.07,1215.96c-.4,.3-.7,1.3-.7,2.2,.1,1.3,.3,1.3,1.1-.2,1.1-1.9,.8-3.3-.4-2Z"/>
  <path class="cls-1" d="M735.37,1220.26c0,.8,.5,2.2,1,3,.9,1.3,1,1.3,1,0,0-.8-.5-2.2-1-3-.9-1.3-1-1.3-1,0Z"/>
  <path class="cls-1" d="M408.87,1225.26c-.4,1.2-.5,2.4-.2,2.7,.3,.2,.8-.5,1.2-1.7s.5-2.4,.2-2.7c-.3-.2-.8,.5-1.2,1.7Z"/>
  <path class="cls-1" d="M737.37,1226.96c0,1.2,.5,2.5,1,2.8,1.3,.8,1.3-1.5,0-3.5-.8-1.2-1-1.1-1,.7Z"/>
  <path class="cls-1" d="M384.87,1228.36c-.4,.6-.5,1.2-.2,1.5,.2,.3,.7-.2,1-1.1,.7-1.7,.1-2-.8-.4Z"/>
  <path class="cls-1" d="M430.07,1230.26c-.3,.8-1.1,3.5-1.7,6s-1.4,5.4-1.7,6.5c-.3,1.3-.2,1.7,.5,1,1.4-1.5,4.5-12.1,3.9-13.7-.4-1-.6-1-1,.2Z"/>
  <path class="cls-1" d="M382.47,1234.36c-.6,1.8-.9,3.4-.7,3.6s.9-1,1.6-2.7,1-3.3,.8-3.6c-.3-.3-1.1,.9-1.7,2.7Z"/>
  <path d="M254.67,1233.96c-.8,2,1.7,8.3,3.3,8.3,.9,0,1.4-1.1,1.4-3.4,0-1.9,.3-4.1,.6-5,.5-1.2,0-1.5-2.1-1.4-1.5,.2-3,.8-3.2,1.5Z"/>
  <path d="M886.37,1233.16c0,1.4,2.4,8.1,3,8.1s3-5.9,3-7.6c0-.5-1.3-.9-3-.9-1.6,0-3,.2-3,.4Z"/>
  <path class="cls-1" d="M717.47,1235.76c0,1.1,.4,2.9,.9,4,.8,1.8,.9,1.8,.9-.5,0-1.4-.4-3.2-.9-4-.8-1.2-1-1.2-.9,.5Z"/>
  <path class="cls-1" d="M740.47,1235.26c0,.8,.4,2.4,.9,3.5l.9,2v-2c0-1.1-.4-2.7-.9-3.5-.9-1.3-1-1.3-.9,0Z"/>
  <path class="cls-1" d="M764.37,1236.96c0,1.2,.5,2.5,1,2.8,1.3,.8,1.3-1.5,0-3.5-.8-1.2-1-1.1-1,.7Z"/>
  <path class="cls-1" d="M403.17,1242.26c-.3,.8-1.1,3.2-1.8,5.3-.6,2.1-1,4.1-.7,4.3,.7,.7,3.9-8.5,3.4-9.9-.3-.8-.6-.8-.9,.3Z"/>
  <path class="cls-1" d="M378.97,1243.86c-.4,.9-.4,1.9-.1,2.2,.2,.3,.7-.3,1.1-1.2s.4-1.9,.1-2.2c-.2-.3-.7,.3-1.1,1.2Z"/>
  <path class="cls-1" d="M719.47,1243.26c0,.8,.4,2.4,.9,3.5l.9,2v-2c0-1.1-.4-2.7-.9-3.5-.9-1.3-1-1.3-.9,0Z"/>
  <path class="cls-1" d="M743.97,1246.96c.4,1.6,1.3,3.9,2.1,5.3l1.4,2.5-.6-2.7c-.7-3.7-2.3-7.8-3-7.8-.3,0-.2,1.2,.1,2.7Z"/>
  <path class="cls-1" d="M425.07,1249.16c-.4,1.7-.3,2.1,.5,1.3,.5-.5,.8-1.6,.6-2.3-.3-.8-.7-.3-1.1,1Z"/>
  <path class="cls-1" d="M721.47,1250.26c0,.8,.4,2.2,.9,3,1.2,1.8,1.2,.2,0-2.5-.6-1.3-.9-1.5-.9-.5Z"/>
</svg>